<svg xmlns="http://www.w3.org/2000/svg" fill="none" viewBox="0 0 52 52"><path fill="#9d9d9d" d="M32.9537 22.9069L20.9359 11.6473C20.5251 11.2807 19.9876 11.0896 19.4381 11.1147C18.8886 11.1399 18.3707 11.3793 17.9949 11.7818C17.6191 12.1843 17.4152 12.7181 17.4267 13.2692C17.4381 13.8203 17.6641 14.3451 18.0564 14.7315L29.9476 25.8644L18.0564 36.9972C17.8464 37.1846 17.6759 37.4123 17.5549 37.6667C17.434 37.9211 17.3651 38.1972 17.3523 38.4787C17.3395 38.7602 17.383 39.0415 17.4803 39.3059C17.5776 39.5703 17.7267 39.8125 17.9188 40.0183C18.1109 40.2241 18.3422 40.3893 18.599 40.5041C18.8558 40.619 19.1329 40.6812 19.4141 40.6871C19.6952 40.693 19.9747 40.6424 20.2361 40.5384C20.4974 40.4344 20.7354 40.2791 20.9359 40.0815L32.9516 28.8303C33.3609 28.4528 33.6877 27.9943 33.9112 27.4838C34.1347 26.9733 34.2501 26.4219 34.2501 25.8644C34.2501 25.3069 34.1347 24.7555 33.9112 24.2449C33.6877 23.7344 33.3609 23.2759 32.9516 22.8984L32.9537 22.9069Z" class="color000000 svgShape"/></svg>