<svg width="38" height="36" viewBox="0 0 38 36" fill="none" xmlns="http://www.w3.org/2000/svg">
<path d="M24.6969 10.9324C24.6969 10.0493 24.0922 8.88842 23.3531 8.35285L15.3923 2.58378C14.6532 2.04821 13.4437 2.04821 12.7046 2.58378L4.74364 8.35313C4.00447 8.88877 3.39978 10.0496 3.39978 10.9328V30.5016H24.697L24.6969 10.9324ZM14.525 8.86521C14.1673 8.86521 13.8176 8.76444 13.5201 8.57564C13.2227 8.38683 12.9909 8.11848 12.854 7.80451C12.7171 7.49054 12.6813 7.14506 12.7511 6.81175C12.8209 6.47845 12.9932 6.17229 13.2461 5.93199C13.4991 5.6917 13.8213 5.52806 14.1722 5.46177C14.523 5.39548 14.8867 5.42951 15.2172 5.55957C15.5477 5.68963 15.8301 5.90987 16.0289 6.19244C16.2276 6.47501 16.3337 6.80722 16.3337 7.14706C16.3336 7.60269 16.143 8.03963 15.8038 8.36177C15.4646 8.68392 15.0046 8.86488 14.525 8.86486V8.86521Z" fill="#F8EC7D"/>
<path d="M5.59375 30.5016H3.39978V10.9324C3.39978 10.0493 4.00447 8.88841 4.74364 8.35277L12.7046 2.58377C13.0951 2.31555 13.5666 2.17462 14.0484 2.18207L6.24825 9.64778C5.82902 10.0491 5.59376 10.5916 5.59375 11.157V30.5016Z" fill="#D7BE69"/>
<path d="M3.39978 33.0066V30.5016H24.697V33.007C24.6958 33.4325 24.5173 33.8403 24.2006 34.1411C23.8839 34.442 23.4547 34.6116 23.0068 34.6127H5.09002C4.64204 34.6116 4.21277 34.442 3.89604 34.141C3.57932 33.84 3.40089 33.4322 3.39978 33.0066Z" fill="#80EAFF"/>
<path d="M6.81465 34.6124H5.09014C4.64224 34.6112 4.21304 34.4417 3.89632 34.1408C3.57961 33.8399 3.40113 33.4322 3.3999 33.0067V30.5016H5.59365V33.0708C5.59365 33.8013 6.11693 34.6122 6.81465 34.6124Z" fill="#66CCFF"/>
<path d="M19.4038 27.6367H23.4484V17.9696C23.4484 17.8101 23.5152 17.6571 23.6339 17.5443C23.7526 17.4315 23.9137 17.3681 24.0816 17.3681H29.3116C29.4796 17.3681 29.6406 17.4315 29.7594 17.5443C29.8781 17.6571 29.9448 17.8101 29.9448 17.9696V27.6367H33.9895C34.0882 27.6367 34.1848 27.6642 34.2672 27.7159C34.3496 27.7675 34.4143 27.841 34.4532 27.9272C34.4921 28.0135 34.5035 28.1086 34.486 28.201C34.4685 28.2933 34.4228 28.3787 34.3547 28.4466L28.1498 34.6327C27.9624 34.8196 27.7369 34.9684 27.4871 35.0701C27.2373 35.1717 26.9684 35.2242 26.6966 35.2242C26.4249 35.2242 26.1559 35.1717 25.9061 35.0701C25.6563 34.9684 25.4309 34.8196 25.2434 34.6327L19.0385 28.4466C18.9704 28.3787 18.9248 28.2933 18.9073 28.201C18.8898 28.1086 18.9012 28.0135 18.9401 27.9272C18.9789 27.841 19.0436 27.7675 19.126 27.7159C19.2085 27.6642 19.305 27.6367 19.4038 27.6367Z" fill="#FF5959"/>
<path d="M26.6966 35.2242C26.4248 35.2246 26.1557 35.1723 25.9058 35.0706C25.656 34.9689 25.4306 34.8199 25.2433 34.6327L19.0385 28.4466C18.9704 28.3787 18.9248 28.2933 18.9073 28.201C18.8898 28.1086 18.9012 28.0135 18.9401 27.9272C18.9789 27.841 19.0436 27.7675 19.126 27.7159C19.2085 27.6642 19.305 27.6367 19.4038 27.6367H23.4484V17.9696C23.4484 17.8101 23.5152 17.6571 23.6339 17.5443C23.7526 17.4315 23.9137 17.3681 24.0816 17.3681H26.6966V35.2242Z" fill="#E63A57"/>
<path d="M16.3131 26.0319C15.9534 26.2149 15.5711 26.355 15.1752 26.449V27.6064C15.1752 28.9523 12.9548 28.9523 12.9548 27.6064V26.4996C12.6355 26.4388 12.3236 26.3476 12.0235 26.2275C10.9225 25.7856 10.1237 24.9759 9.83194 24.0056C9.43493 22.6863 11.5698 22.1065 11.9668 23.4259C12.1123 23.9094 12.6062 24.1712 12.8878 24.2842C13.2682 24.4313 13.6779 24.4976 14.0882 24.4784C14.4984 24.4593 14.8993 24.3551 15.2627 24.1732C15.8685 23.8638 16.2122 23.2296 16.0984 22.6301C15.9434 21.8135 14.9678 21.2112 13.4888 21.0189C11.861 20.8072 10.6615 19.9536 10.1983 18.677C9.99379 18.1026 9.95937 17.4858 10.0988 16.8941C10.2382 16.3023 10.5461 15.7584 10.9889 15.3216C11.5305 14.8054 12.2103 14.4395 12.9548 14.2636V13.1073C12.9548 11.7273 15.1752 11.7273 15.1752 13.1073V14.2367C16.1659 14.4555 17.0504 14.9844 17.6866 15.7384C18.5728 16.7754 16.849 18.105 15.9627 17.0679C15.7556 16.8179 15.4935 16.6138 15.1949 16.4697C14.8963 16.3256 14.5682 16.2451 14.2335 16.2336C13.5949 16.2063 12.9611 16.4203 12.5819 16.7913C12.4235 16.9471 12.3131 17.1413 12.263 17.3527C12.2128 17.564 12.2247 17.7844 12.2974 17.9897C12.4806 18.4943 13.0106 18.828 13.7899 18.9293C16.2693 19.2517 17.9494 20.4953 18.2835 22.256C18.5703 23.7668 17.7785 25.2844 16.3131 26.0319Z" fill="#393939"/>
<path d="M18.761 22.2092C18.385 20.2283 16.5406 18.835 13.8278 18.4822C13.4948 18.4389 12.9116 18.3016 12.7546 17.8699C12.7126 17.7506 12.7059 17.6227 12.7353 17.5001C12.7646 17.3776 12.8289 17.265 12.921 17.1747C13.1962 16.9055 13.6896 16.745 14.178 16.7659C14.4397 16.7736 14.6964 16.8361 14.9297 16.9489C15.1631 17.0618 15.3673 17.2222 15.5278 17.4187C16.1785 18.1801 17.1549 18.0881 17.7833 17.6036C18.4117 17.1191 18.7069 16.2302 18.0562 15.4687C17.4365 14.7352 16.6037 14.1906 15.6612 13.9026V13.1479C15.6612 12.1452 14.8421 11.6206 14.0329 11.6206C13.2237 11.6206 12.4046 12.1452 12.4046 13.1479V13.939C11.7174 14.1588 11.0941 14.5289 10.5851 15.0195C10.076 15.5219 9.72197 16.1475 9.56174 16.828C9.4015 17.5085 9.4412 18.2178 9.67649 18.8783C10.2058 20.3368 11.558 21.3096 13.3865 21.5474C14.6135 21.7069 15.4449 22.1709 15.5565 22.7583C15.6309 23.1505 15.3961 23.5709 14.9855 23.7805C14.6905 23.9284 14.3651 24.0132 14.0321 24.029C13.699 24.0448 13.3664 23.9911 13.0574 23.8719C12.8994 23.8086 12.5223 23.6289 12.4329 23.3317C12.3754 23.1232 12.2708 22.9291 12.1264 22.7629C11.9819 22.5967 11.8011 22.4624 11.5965 22.3693C11.2289 22.2115 10.8138 22.1848 10.4271 22.2941C9.6491 22.5051 9.01266 23.2217 9.30161 24.1819C9.63667 25.2958 10.5436 26.2215 11.7897 26.7218C11.99 26.802 12.1953 26.8706 12.4045 26.9271V27.6469C12.4045 28.6327 13.2236 29.1484 14.0328 29.1484C14.8419 29.1484 15.661 28.6327 15.661 27.6469V26.8589C15.9596 26.7653 16.249 26.6472 16.526 26.5061C18.1896 25.657 19.088 23.9305 18.761 22.2092ZM16.0357 25.6388C15.7137 25.8026 15.3716 25.928 15.0173 26.0121C14.9052 26.0388 14.8058 26.1002 14.7347 26.1867C14.6636 26.2732 14.625 26.3798 14.625 26.4895V27.6469C14.625 28.1391 14.1318 28.164 14.0329 28.164C13.934 28.164 13.4408 28.1391 13.4408 27.6469V26.5402C13.4408 26.4265 13.3994 26.3163 13.3236 26.2284C13.2478 26.1405 13.1423 26.0801 13.0251 26.0577C12.7399 26.0033 12.4612 25.9219 12.1932 25.8147C11.2373 25.431 10.5465 24.7372 10.298 23.9112C10.1499 23.4198 10.6169 23.2661 10.712 23.2403C10.7776 23.2223 10.8455 23.2131 10.9138 23.213C10.9982 23.212 11.0819 23.2285 11.159 23.2613C11.229 23.295 11.2902 23.343 11.3382 23.4019C11.3862 23.4609 11.4198 23.5292 11.4366 23.6019C11.6414 24.2826 12.2873 24.6312 12.654 24.7783C13.106 24.9533 13.5927 25.0323 14.0801 25.0098C14.5676 24.9872 15.0439 24.8636 15.4758 24.6477C16.2768 24.239 16.7293 23.3902 16.5762 22.5835C16.3793 21.5467 15.2395 20.7948 13.5269 20.5721C12.0998 20.3865 11.0534 19.6522 10.6559 18.5574C10.4821 18.0691 10.4529 17.5448 10.5716 17.0418C10.6902 16.5388 10.952 16.0765 11.3285 15.7053C11.8033 15.2529 12.3999 14.9332 13.053 14.7809C13.1641 14.7535 13.2625 14.6919 13.3327 14.6057C13.403 14.5194 13.4411 14.4135 13.4411 14.3044V13.1479C13.4411 12.6312 13.9343 12.605 14.0332 12.605C14.1321 12.605 14.6253 12.6312 14.6253 13.1479V14.2773C14.6253 14.3885 14.665 14.4965 14.7378 14.5836C14.8107 14.6707 14.9124 14.7317 15.0265 14.7568C15.905 14.9509 16.6891 15.4202 17.2525 16.0892C17.5744 16.4658 17.2081 16.7801 17.1311 16.8393C17.054 16.8986 16.655 17.1749 16.3332 16.7983C16.0805 16.4937 15.761 16.2451 15.397 16.0697C15.0329 15.8943 14.6331 15.7963 14.2251 15.7825C13.4406 15.7485 12.658 16.0197 12.1785 16.489C11.9537 16.7103 11.7973 16.9861 11.7263 17.2862C11.6553 17.5863 11.6724 17.8991 11.7759 18.1905C12.026 18.8796 12.705 19.3296 13.6879 19.4573C15.934 19.7494 17.4495 20.8434 17.7419 22.3837C17.9882 23.6843 17.3027 24.9924 16.0357 25.6388ZM34.9461 27.6968C34.8674 27.5219 34.7363 27.3729 34.5692 27.2682C34.4021 27.1635 34.2063 27.1078 34.0061 27.1079H30.4796V17.933C30.4793 17.643 30.3579 17.365 30.142 17.16C29.9262 16.9549 29.6335 16.8396 29.3283 16.8393H25.1991V10.973C25.1991 9.936 24.5193 8.631 23.6514 8.00205L19.8882 5.27498C21.4533 3.62306 22.436 1.63139 21.4469 0.691661C20.9436 0.213536 20.0771 0.19652 19.0064 0.643286C18.0928 1.02452 17.0859 1.71204 16.1691 2.57983L15.6908 2.23305C14.7612 1.55932 13.3045 1.55918 12.3746 2.23305L4.41356 8.00205C3.54561 8.63093 2.86572 9.93565 2.86572 10.973V33.0469C2.86639 33.6031 3.09928 34.1363 3.51329 34.5297C3.9273 34.923 4.48863 35.1442 5.07413 35.1448H22.9909C23.5578 35.1442 24.1027 34.9361 24.5123 34.5637L24.885 34.9352C25.1209 35.1703 25.4045 35.3575 25.7188 35.4855C26.0331 35.6134 26.3714 35.6793 26.7133 35.6793C27.0552 35.6793 27.3936 35.6134 27.7078 35.4855C28.0221 35.3575 28.3058 35.1703 28.5416 34.9352L34.7465 28.7491C34.8846 28.6116 34.9772 28.4385 35.0127 28.2514C35.0482 28.0643 35.025 27.8715 34.9461 27.6968H34.9461ZM19.4231 1.54455C20.122 1.25289 20.5751 1.25564 20.7141 1.38768C21.0035 1.66268 20.6498 3.0349 19.0622 4.67641L17.0014 3.18297C17.8011 2.44399 18.6562 1.86454 19.4231 1.54455ZM3.90191 10.973C3.90191 10.2473 4.4348 9.22479 5.04171 8.7847L13.0028 3.0157C13.5611 2.61126 14.5041 2.61126 15.0622 3.0157L18.3213 5.3775C17.8327 5.80718 17.2967 6.18552 16.7226 6.50594C16.5477 5.9929 16.1814 5.55829 15.6927 5.28394C15.204 5.00959 14.6266 4.91442 14.0691 5.01635C13.5117 5.11827 13.0127 5.41027 12.6661 5.83736C12.3195 6.26445 12.1492 6.79717 12.1873 7.33524C12.2253 7.87331 12.4691 8.3796 12.8727 8.75881C13.2763 9.13802 13.812 9.36398 14.3787 9.39415C14.9455 9.42432 15.5043 9.25663 15.95 8.92264C16.3957 8.58865 16.6975 8.1114 16.7986 7.58074C17.5653 7.2277 18.3862 6.67153 19.1579 5.98345L23.0234 8.7847C23.6306 9.22479 24.1632 10.2472 24.1632 10.973V16.8393H24.0987C23.7935 16.8396 23.5008 16.955 23.285 17.16C23.0692 17.365 22.9478 17.643 22.9475 17.933V27.1079H19.4205C19.2203 27.108 19.0246 27.1638 18.8576 27.2685C18.6905 27.3732 18.5594 27.5221 18.4806 27.6969C18.4019 27.8717 18.3788 28.0646 18.4143 28.2517C18.4498 28.4388 18.5423 28.6119 18.6803 28.7495L19.9844 30.0495H3.90191V10.973ZM14.1492 7.62447C14.4096 7.8719 14.7675 7.99586 15.2008 7.99586C15.2988 7.99542 15.3967 7.98937 15.494 7.97772C15.3745 8.11253 15.2258 8.22125 15.058 8.29648C14.8903 8.3717 14.7074 8.41165 14.5219 8.41361C14.3364 8.41556 14.1526 8.37947 13.9832 8.30779C13.8137 8.23612 13.6625 8.13055 13.5399 7.9983C13.4173 7.86604 13.3261 7.71021 13.2727 7.54145C13.2193 7.37268 13.2048 7.19495 13.2303 7.02038C13.2558 6.84582 13.3206 6.67853 13.4203 6.52994C13.5201 6.38135 13.6524 6.25495 13.8083 6.15937C13.682 6.78283 13.7955 7.28859 14.1492 7.62447ZM14.8819 6.92838C14.7661 6.81834 14.7449 6.50496 14.9149 6.02423C15.1257 6.09104 15.3148 6.2083 15.4641 6.3647C15.6134 6.5211 15.7177 6.71137 15.7671 6.9172C15.2985 7.05565 14.9919 7.03279 14.8819 6.92838ZM19.4301 28.0707L19.0554 28.41L19.429 28.0689L19.4301 28.0707ZM22.9909 34.1608H5.0742C4.76333 34.1605 4.46529 34.0431 4.24551 33.8342C4.02572 33.6254 3.90214 33.3422 3.90191 33.0469V31.034H20.9716L23.7979 33.8518C23.5807 34.0496 23.2917 34.1603 22.9909 34.1608H22.9909ZM27.7916 34.2565C27.6525 34.3952 27.4852 34.5056 27.2999 34.581C27.1145 34.6565 26.915 34.6954 26.7134 34.6954C26.5118 34.6954 26.3122 34.6565 26.1269 34.581C25.9416 34.5056 25.7743 34.3952 25.6352 34.2565L19.4523 28.0923H23.4653C23.6027 28.0923 23.7345 28.0404 23.8316 27.9481C23.9288 27.8558 23.9834 27.7307 23.9834 27.6001V17.933C23.9834 17.904 23.9955 17.8762 24.0171 17.8557C24.0386 17.8352 24.0679 17.8237 24.0984 17.8237H29.3284C29.3589 17.8237 29.3881 17.8352 29.4097 17.8557C29.4313 17.8762 29.4434 17.904 29.4435 17.933V27.6001C29.4435 27.7307 29.4981 27.8558 29.5952 27.9481C29.6924 28.0404 29.8242 28.0923 29.9616 28.0923H33.9745L27.7916 34.2565Z" fill="black"/>
</svg>
