<svg width="173" height="12" viewBox="0 0 173 12" fill="none" xmlns="http://www.w3.org/2000/svg">
<path fill-rule="evenodd" clip-rule="evenodd" d="M2.74804 5.93417C2.52471 5.93417 2.26948 5.90227 2.04615 5.83846C1.8123 5.79603 1.57812 5.74275 1.34426 5.67894C1.02522 5.61513 0.833796 5.26418 0.929509 4.94514C0.993317 4.68991 1.24855 4.56229 1.50378 4.53039C2.03562 4.46658 2.57799 4.4133 3.13089 4.37087C3.35422 4.33896 3.57755 4.53038 3.67326 4.75371C4.50277 4.75371 5.36418 4.75372 6.19369 4.72182C7.15081 4.65801 8.07603 4.6261 9.03315 4.5623C9.60743 4.54092 10.1922 4.50901 10.7879 4.46658C14.4888 4.24325 18.1896 4.05182 21.8586 3.82849C26.1338 3.55189 30.3984 3.27559 34.6522 2.99899C37.1621 2.84999 39.6611 2.71185 42.1496 2.58424C46.9777 2.30763 51.8061 2.04187 56.6341 1.78663C57.4636 1.75473 58.2931 1.69092 59.1226 1.65902C60.6116 1.59521 62.0897 1.54193 63.5573 1.4995C68.4281 1.30807 73.2881 1.11664 78.1375 0.925218C78.967 0.925218 79.7646 0.861415 80.5941 0.861415C81.9979 0.818983 83.4017 0.787073 84.8055 0.765697C89.7187 0.659456 94.6319 0.552896 99.5452 0.446656C101.736 0.404223 103.927 0.372323 106.117 0.350947C111.031 0.308515 115.944 0.255235 120.857 0.191427C127.397 0.127618 133.938 0.127622 140.478 0.0957182C142.116 0.0957182 143.754 0.0957182 145.391 0.0957182C147.199 0.0957182 149.007 0.0957182 150.815 0.0957182C152.729 0.0743424 154.654 0.0638121 156.59 0.0638121C157.313 0.0424364 158.036 0.0319061 158.759 0.0319061C159.27 0.0319061 159.78 0.0213758 160.291 0C160.642 0 161.024 0 161.375 0C161.822 0 162.237 0.0319061 162.652 0.191427C162.886 0.255235 163.088 0.361476 163.258 0.510468C163.321 0.616709 163.385 0.712419 163.449 0.797603C163.577 1.0104 163.641 1.23373 163.641 1.46759C163.641 1.72282 163.577 1.94616 163.449 2.13758C163.343 2.35038 163.183 2.52043 162.971 2.64805C162.949 2.64805 162.918 2.65857 162.875 2.67994C162.918 2.78619 162.939 2.89274 162.939 2.99899C162.939 3.10523 162.928 3.20095 162.907 3.28613C162.907 3.41375 162.885 3.53083 162.843 3.63707C162.8 3.78606 162.726 3.92421 162.62 4.05183C162.896 4.03045 163.173 4.00939 163.449 3.98802C164.513 3.90283 165.576 3.8285 166.64 3.76469C167.044 3.72226 167.448 3.69035 167.852 3.66897C168.33 3.63707 168.809 3.57326 169.288 3.54136C169.511 3.50946 169.734 3.47755 169.958 3.47755C170.021 3.47755 170.085 3.48808 170.149 3.50945C170.468 3.53083 170.798 3.57326 171.138 3.63707C171.457 3.70088 171.744 3.95612 171.904 4.24325C172.031 4.45605 172.095 4.67938 172.095 4.91323C172.095 5.35989 171.84 5.83845 171.425 6.06178C171.074 6.25321 170.723 6.44464 170.34 6.60416C170 6.77421 169.66 6.9232 169.319 7.05081C168.979 7.19981 168.649 7.33795 168.33 7.46556C168.352 7.46556 168.362 7.46556 168.362 7.46556C168.32 7.48694 168.267 7.508 168.203 7.52937C168.16 7.55075 168.118 7.57181 168.075 7.59319C168.097 7.57181 168.107 7.56128 168.107 7.56128C167.49 7.81651 166.873 8.07174 166.257 8.32698C165.97 8.42269 165.587 8.35888 165.331 8.19936C165.076 8.03984 164.853 7.78461 164.789 7.49747C164.693 7.17843 164.757 6.85939 164.917 6.57225C162.045 6.76368 159.174 6.94458 156.303 7.11462C155.058 7.21034 153.782 7.21034 152.538 7.27415C150.007 7.35933 147.487 7.45504 144.977 7.56128C141.914 7.6889 138.851 7.6889 135.788 7.75271C132.215 7.79514 128.642 7.84842 125.068 7.91223C116.71 8.03984 108.351 8.16746 99.9918 8.29507C98.418 8.3375 96.8438 8.38025 95.27 8.42269C90.9097 8.52893 86.5388 8.63549 82.1574 8.74173C73.9899 8.95453 65.8225 9.17786 57.655 9.41172C57.2084 9.41172 56.7617 9.44362 56.2832 9.44362C54.688 9.52881 53.0927 9.61367 51.4975 9.69885C46.4353 9.93271 41.3626 10.1669 36.2793 10.4007C31.7065 10.6346 27.1228 10.8579 22.5286 11.0707C17.2644 11.326 11.9683 11.6769 6.70415 11.996C5.97036 12.0598 5.36418 11.3579 5.36418 10.6879C5.36418 10.4751 5.40661 10.2837 5.4918 10.1136C4.83234 10.0922 4.16235 10.0603 3.48184 10.0179C3.29041 10.0179 3.13089 9.85838 3.13089 9.66695C3.13089 9.44363 3.29041 9.31601 3.48184 9.31601C5.33228 9.09268 7.18271 8.86935 9.03315 8.70983C10.0541 8.62465 11.0855 8.52893 12.1279 8.42269C16.4244 8.06121 20.7206 7.68889 25.0171 7.30604C28.1118 7.05081 31.2065 6.79558 34.3012 6.54035C36.7473 6.32754 39.1826 6.11506 41.6073 5.90226C42.6601 5.83845 43.7129 5.71084 44.7658 5.64703C48.5518 5.3918 52.3484 5.12604 56.1555 4.84943C58.2826 4.70044 60.4093 4.56229 62.5364 4.43467C63.1744 4.37086 63.8125 4.32843 64.4506 4.30706C68.7896 4.09426 73.1391 3.8923 77.4994 3.70088C79.6264 3.59464 81.764 3.49893 83.9121 3.41374C84.5821 3.38184 85.2521 3.34993 85.9221 3.31803C89.9634 3.21179 93.9938 3.10523 98.0138 2.99899C101.481 2.89274 104.958 2.79703 108.446 2.71185C109.467 2.67995 110.52 2.67995 111.541 2.64805C113.966 2.62667 116.38 2.59476 118.783 2.55233C124.526 2.46715 130.279 2.39282 136.043 2.32901C135.831 2.30763 135.618 2.2971 135.405 2.2971C132.853 2.2971 130.301 2.2971 127.748 2.2971C126.504 2.2652 125.292 2.26519 124.079 2.26519C120.336 2.28657 116.592 2.30763 112.849 2.32901C110.446 2.32901 108.042 2.32901 105.639 2.32901C104.682 2.36091 103.725 2.329 102.736 2.3609C99.0561 2.40334 95.3762 2.45662 91.6967 2.52042C87.9534 2.58423 84.2206 2.63751 80.4984 2.67994C79.5732 2.71185 78.6479 2.74376 77.7227 2.77566C75.3405 2.86085 72.969 2.93518 70.6081 2.99899C66.7372 3.1266 62.8768 3.24369 59.0269 3.34993C58.0698 3.38184 57.1127 3.44565 56.1875 3.50945C53.7627 3.61569 51.338 3.72225 48.9133 3.82849C46.51 3.95611 44.0958 4.0732 41.6711 4.17944C40.7139 4.21135 39.7568 4.24325 38.7997 4.30706C34.6522 4.54091 30.5046 4.77509 26.3571 5.00895C23.4433 5.179 20.54 5.32799 17.6473 5.45561C15.2226 5.58322 12.7873 5.71084 10.3412 5.83846C9.78833 5.85984 9.23511 5.88089 8.68221 5.90226C7.34224 5.93417 5.97036 6.02988 4.63038 5.99798C3.9923 5.99798 3.38612 5.99798 2.74804 5.93417ZM131.8 4.05183C124.558 4.08373 117.348 4.14754 110.105 4.21135C107.84 4.24325 105.607 4.30706 103.374 4.33896C98.5028 4.4452 93.6324 4.54091 88.7616 4.6261C88.0172 4.64747 87.2621 4.66853 86.4964 4.68991C86.2198 4.68991 85.9435 4.68991 85.6669 4.68991C84.6035 4.73234 83.5293 4.77509 82.4445 4.81752C77.5951 5.00895 72.7352 5.20037 67.8644 5.39179C66.5458 5.43423 65.2268 5.48751 63.9083 5.55132C62.983 5.58322 62.0578 5.64703 61.1326 5.71084C56.4108 5.98744 51.6998 6.27459 46.9991 6.57225C46.1696 6.60416 45.372 6.66796 44.5424 6.73177C42.9686 6.83801 41.3839 6.9551 39.7887 7.08272C35.2583 7.42314 30.728 7.77408 26.1976 8.13555C24.9 8.22074 23.6028 8.31645 22.3053 8.42269C22.7519 8.40131 23.1986 8.38026 23.6452 8.35888C28.4522 8.12503 33.2698 7.89085 38.0978 7.65699C42.9897 7.42313 47.8924 7.18896 52.8056 6.9551C54.5284 6.8913 56.2513 6.76368 58.006 6.73177C66.6415 6.49791 75.2766 6.26373 83.9121 6.02988C89.6549 5.90226 95.3976 5.71084 101.108 5.61513C109.127 5.48751 117.146 5.35989 125.164 5.23227C129.29 5.16847 133.417 5.10467 137.543 5.04086C139.351 5.01948 141.148 4.98757 142.935 4.94514C144.115 4.94514 145.264 4.88133 146.412 4.81752C148.943 4.73234 151.464 4.63663 153.974 4.53039C154.569 4.50901 155.154 4.48795 155.728 4.46658C156.026 4.46658 156.335 4.45605 156.654 4.43467C156.505 4.30705 156.398 4.14753 156.335 3.95611C155.526 3.95611 154.729 3.95611 153.942 3.95611C146.572 3.95611 139.202 4.01992 131.8 4.05183Z" fill="#21510e"/>
</svg>
