<svg width="1344" height="55" viewBox="0 0 1344 55" fill="none" xmlns="http://www.w3.org/2000/svg">
<mask id="mask0_3106_1949" style="mask-type:alpha" maskUnits="userSpaceOnUse" x="0" y="0" width="1344" height="55">
<rect width="1344" height="55" fill="white"/>
</mask>
<g mask="url(#mask0_3106_1949)">
<path d="M400 93.192C400 103.22 406.751 111.927 416.637 116.371C421.037 118.352 426.1 119.493 431.525 119.493C439.542 119.493 446.836 116.971 452.441 112.828C455.696 126.759 470.404 137.327 488.066 137.327C498.252 137.327 507.475 133.784 514.045 128.14C520.555 133.184 529.175 136.306 538.759 136.306C558.831 136.306 575.106 122.736 575.106 105.982C575.106 104.901 575.046 103.821 574.865 102.8C580.652 108.744 589.452 112.527 599.338 112.527C610.248 112.527 619.832 107.904 625.498 100.878C631.225 105.862 639.302 108.985 648.223 108.985C656.843 108.985 664.679 106.102 670.345 101.419C672.394 101.138 674.384 100.678 676.312 100.037C681.195 110.005 692.407 117.511 705.969 118.532C714.709 119.253 722.907 117.151 729.296 113.128C732.31 124.297 743.703 133.124 757.928 134.265C770.707 135.286 782.16 129.761 787.766 120.994C793.07 126.399 800.846 130.061 809.646 130.782C816.398 131.262 822.666 130.001 828.031 127.419C831.708 134.145 839.544 139.189 848.887 139.909C859.014 140.69 868.055 136.366 872.516 129.401C875.349 133.965 880.834 137.267 887.344 137.748C897.169 138.528 905.669 132.644 906.633 124.477C925.319 124.717 940.991 112.888 942.257 97.0351C942.619 92.2913 941.594 87.6676 939.605 83.5243C953.288 81.6028 964.017 72.1752 964.921 60.0456C965.765 50.0776 959.738 40.8302 950.214 35.606C945.994 33.3242 940.991 31.763 935.627 31.3426C927.61 30.7422 920.135 32.7237 914.288 36.3867C912.118 22.2153 898.254 10.566 880.653 9.18494C870.527 8.40431 861.063 11.1665 854.011 16.2706C847.983 10.7462 839.544 6.96317 830.02 6.24259C810.008 4.68134 792.769 16.9311 791.443 33.6245C791.322 34.7053 791.322 35.7261 791.382 36.807C786.078 30.4419 777.579 25.9383 767.754 25.1577C756.904 24.317 746.958 28.1601 740.749 34.7654C735.445 29.301 727.669 25.578 718.748 24.8575C712.117 24.3771 705.848 25.578 700.544 28.1C699.781 28.06 699.017 28.04 698.253 28.04C693.311 28.04 688.73 29.0008 684.631 30.7422C678.965 21.1945 667.211 14.5893 653.588 14.5893C644.848 14.5893 636.831 17.3515 630.743 21.795C626.885 10.9263 614.829 3 600.544 3C587.765 3 576.734 9.36508 571.791 18.5524C566.125 13.6285 558.108 10.566 549.247 10.566C542.496 10.566 536.288 12.3074 531.224 15.3098C527.005 8.8847 518.807 4.5012 509.404 4.5012C499.277 4.5012 490.597 9.54523 486.679 16.811C483.484 12.4876 477.758 9.66532 471.248 9.66532C461.363 9.66532 453.346 16.2105 453.105 24.3771C434.418 25.6381 419.771 38.6685 419.771 54.5812C419.771 59.325 421.097 63.8286 423.448 67.8518C409.946 70.7941 400 81.0023 400 93.192Z" fill="white"/>
<path d="M-86 93.192C-86 103.22 -79.2489 111.927 -69.3634 116.371C-64.9631 118.352 -59.8998 119.493 -54.4748 119.493C-46.4579 119.493 -39.1643 116.971 -33.5585 112.828C-30.3035 126.759 -15.5958 137.327 2.06555 137.327C12.2525 137.327 21.4749 133.784 28.0452 128.14C34.5552 133.184 43.1749 136.306 52.759 136.306C72.8314 136.306 89.1064 122.736 89.1064 105.982C89.1064 104.901 89.0461 103.821 88.8653 102.8C94.6519 108.744 103.452 112.527 113.338 112.527C124.248 112.527 133.832 107.904 139.498 100.878C145.225 105.862 153.302 108.985 162.223 108.985C170.843 108.985 178.679 106.102 184.345 101.419C186.394 101.138 188.384 100.678 190.312 100.037C195.195 110.005 206.407 117.511 219.969 118.532C228.709 119.253 236.907 117.151 243.296 113.128C246.31 124.297 257.703 133.124 271.928 134.265C284.707 135.286 296.16 129.761 301.766 120.994C307.07 126.399 314.846 130.061 323.646 130.782C330.398 131.262 336.666 130.001 342.031 127.419C345.708 134.145 353.544 139.189 362.887 139.909C373.014 140.69 382.055 136.366 386.516 129.401C389.349 133.965 394.834 137.267 401.344 137.748C411.169 138.528 419.669 132.644 420.633 124.477C439.319 124.717 454.991 112.888 456.257 97.0351C456.619 92.2913 455.594 87.6676 453.605 83.5243C467.288 81.6028 478.017 72.1752 478.921 60.0456C479.765 50.0776 473.738 40.8302 464.214 35.606C459.994 33.3242 454.991 31.763 449.627 31.3426C441.61 30.7422 434.135 32.7237 428.288 36.3867C426.118 22.2153 412.254 10.566 394.653 9.18494C384.527 8.40431 375.063 11.1665 368.011 16.2706C361.983 10.7462 353.544 6.96317 344.02 6.24259C324.008 4.68134 306.769 16.9311 305.443 33.6245C305.322 34.7053 305.322 35.7261 305.382 36.807C300.078 30.4419 291.579 25.9383 281.754 25.1577C270.904 24.317 260.958 28.1601 254.749 34.7654C249.445 29.301 241.669 25.578 232.748 24.8575C226.117 24.3771 219.848 25.578 214.544 28.1C213.781 28.06 213.017 28.04 212.253 28.04C207.311 28.04 202.73 29.0008 198.631 30.7422C192.965 21.1945 181.211 14.5893 167.588 14.5893C158.848 14.5893 150.831 17.3515 144.743 21.795C140.885 10.9263 128.829 3 114.544 3C101.765 3 90.7339 9.36508 85.7911 18.5524C80.125 13.6285 72.1081 10.566 63.2473 10.566C56.4962 10.566 50.2876 12.3074 45.2243 15.3098C41.0049 8.8847 32.8071 4.5012 23.4038 4.5012C13.2772 4.5012 4.5972 9.54523 0.679154 16.811C-2.51556 12.4876 -8.24192 9.66532 -14.7519 9.66532C-24.6374 9.66532 -32.6543 16.2105 -32.8955 24.3771C-51.5815 25.6381 -66.229 38.6685 -66.229 54.5812C-66.229 59.325 -64.9028 63.8286 -62.552 67.8518C-76.0542 70.7941 -86 81.0023 -86 93.192Z" fill="white"/>
<path d="M887 90.192C887 100.22 893.739 108.927 903.607 113.371C908 115.352 913.054 116.493 918.469 116.493C926.472 116.493 933.753 113.971 939.349 109.828C942.598 123.759 957.28 134.327 974.91 134.327C985.079 134.327 994.285 130.784 1000.84 125.14C1007.34 130.184 1015.95 133.306 1025.51 133.306C1045.55 133.306 1061.8 119.736 1061.8 102.982C1061.8 101.901 1061.74 100.821 1061.56 99.7997C1067.33 105.744 1076.12 109.527 1085.99 109.527C1096.88 109.527 1106.44 104.904 1112.1 97.8782C1117.82 102.862 1125.88 105.985 1134.78 105.985C1143.39 105.985 1151.21 103.102 1156.87 98.4186C1158.91 98.1384 1160.9 97.678 1162.82 97.0375C1167.7 107.005 1178.89 114.511 1192.43 115.532C1201.15 116.253 1209.34 114.151 1215.71 110.128C1218.72 121.297 1230.09 130.124 1244.29 131.265C1257.05 132.286 1268.48 126.761 1274.08 117.994C1279.37 123.399 1287.14 127.061 1295.92 127.782C1302.66 128.262 1308.92 127.001 1314.27 124.419C1317.94 131.145 1325.77 136.189 1335.09 136.909C1345.2 137.69 1354.23 133.366 1358.68 126.401C1361.51 130.965 1366.98 134.267 1373.48 134.748C1383.29 135.528 1391.77 129.644 1392.74 121.477C1411.39 121.717 1427.03 109.888 1428.3 94.0351C1428.66 89.2913 1427.64 84.6676 1425.65 80.5243C1439.31 78.6028 1450.02 69.1752 1450.92 57.0456C1451.76 47.0776 1445.75 37.8302 1436.24 32.606C1432.03 30.3242 1427.03 28.763 1421.68 28.3426C1413.68 27.7422 1406.21 29.7237 1400.38 33.3867C1398.21 19.2153 1384.37 7.56604 1366.8 6.18494C1356.69 5.40432 1352 26.5 1342.5 15.5524C1336.48 10.028 1325.77 3.96317 1316.26 3.24259C1296.28 1.68134 1279.07 13.9311 1277.75 30.6245C1277.63 31.7053 1277.63 32.7261 1277.69 33.807C1272.39 27.4419 1263.91 22.9383 1254.1 22.1577C1243.27 21.317 1233.34 25.1601 1227.15 31.7654C1221.85 26.301 1214.09 22.578 1205.18 21.8575C1198.56 21.3771 1192.31 22.578 1187.01 25.1C1186.25 25.06 1185.49 25.04 1184.73 25.04C1179.79 25.04 1175.22 26.0008 1171.13 27.7422C1165.47 18.1945 1153.74 11.5893 1140.14 11.5893C1131.41 11.5893 1123.41 14.3515 1117.33 18.795C1113.48 7.92633 1101.45 0 1087.19 0C1074.43 0 1063.42 6.36508 1058.49 15.5524C1052.83 10.6285 1044.83 7.56604 1035.98 7.56604C1029.24 7.56604 1023.05 9.30743 1017.99 12.3098C1013.78 5.8847 1005.6 1.5012 996.21 1.5012C986.101 1.5012 977.437 6.54523 973.526 13.811C970.337 9.48758 964.62 6.66532 958.122 6.66532C948.254 6.66532 940.251 13.2105 940.011 21.3771C921.358 22.6381 906.736 35.6685 906.736 51.5812C906.736 56.325 908.06 60.8286 910.406 64.8518C896.928 67.7941 887 78.0023 887 90.192Z" fill="white"/>
</g>
</svg>
