<svg width="31" height="18" viewBox="0 0 31 18" fill="none" xmlns="http://www.w3.org/2000/svg">
<path d="M27.517 7.5H20.017C19.8844 7.5 19.7572 7.55268 19.6634 7.64645C19.5696 7.74021 19.517 7.86739 19.517 8V14.5C19.517 14.6326 19.5696 14.7598 19.6634 14.8536C19.7572 14.9473 19.8844 15 20.017 15H28.517C28.6496 15 28.7768 14.9473 28.8705 14.8536C28.9643 14.7598 29.017 14.6326 29.017 14.5V9C29.0165 8.60231 28.8584 8.22103 28.5771 7.93982C28.2959 7.65861 27.9147 7.50044 27.517 7.5Z" fill="#26A6FE"/>
<path d="M27.9913 7.8418L26.2194 2.52565C26.12 2.22684 25.9291 1.96692 25.6736 1.7828C25.4181 1.59868 25.1112 1.49973 24.7963 1.5H20.017C19.8844 1.5 19.7572 1.55268 19.6634 1.64645C19.5696 1.74021 19.517 1.86739 19.517 2V8C19.517 8.13261 19.5696 8.25979 19.6634 8.35355C19.7572 8.44732 19.8844 8.5 20.017 8.5H27.517C27.5959 8.49925 27.6736 8.47993 27.7438 8.44361C27.8139 8.40728 27.8745 8.35497 27.9207 8.2909C27.9668 8.22683 27.9973 8.1528 28.0096 8.07478C28.0218 7.99676 28.0156 7.91695 27.9913 7.8418Z" fill="#26A6FE"/>
<path d="M25.9913 6.3418L24.9913 3.3418C24.9581 3.24226 24.8944 3.15569 24.8093 3.09434C24.7242 3.033 24.6219 2.99999 24.517 3H21.517C21.3844 3 21.2572 3.05268 21.1634 3.14645C21.0696 3.24021 21.017 3.36739 21.017 3.5V6.5C21.017 6.63261 21.0696 6.75979 21.1634 6.85355C21.2572 6.94732 21.3844 7 21.517 7H25.517C25.5959 6.99924 25.6736 6.97991 25.7437 6.94359C25.8139 6.90726 25.8745 6.85495 25.9206 6.79088C25.9668 6.72681 25.9973 6.65278 26.0095 6.57477C26.0218 6.49676 26.0156 6.41695 25.9913 6.3418Z" fill="#EEEEEE"/>
<path d="M27.267 9.99991C25.6459 9.97726 25.6452 12.5224 27.267 12.4999H29.017V9.99991H27.267Z" fill="#FFD54F"/>
<path d="M19.017 0H3.51697C3.11928 0.00043674 2.738 0.158612 2.45679 0.439822C2.17558 0.721032 2.0174 1.10231 2.01697 1.5V12H20.517V1.5C20.5165 1.10231 20.3584 0.721032 20.0771 0.439822C19.7959 0.158612 19.4147 0.00043674 19.017 0Z" fill="#FFD54F"/>
<path d="M15.0173 2.50035C10.3659 2.46805 10.3347 9.5578 15.0169 9.5001C19.6992 9.5584 19.6679 2.46865 15.0173 2.50035Z" fill="#FFA000"/>
<path d="M19.517 11H2.01697V14.5C2.01697 14.6326 2.06965 14.7598 2.16341 14.8536C2.25718 14.9473 2.38436 15 2.51697 15H20.017C20.1496 15 20.2768 14.9473 20.3705 14.8536C20.4643 14.7598 20.517 14.6326 20.517 14.5V11H19.517Z" fill="#26A6FE"/>
<path d="M29.267 13.9999H1.76697C0.145922 13.9773 0.145172 16.5224 1.76697 16.4999H29.267C30.888 16.5226 30.8888 13.9775 29.267 13.9999Z" fill="#67676B"/>
<path d="M24.7673 12.5003C21.1004 12.4503 21.1004 18.0491 24.7673 17.9996C28.4337 18.0495 28.4337 12.4509 24.7673 12.5003Z" fill="#46464E"/>
<path d="M6.26726 12.5003C2.60036 12.4503 2.60036 18.0491 6.26726 17.9996C9.93371 18.0495 9.93366 12.4509 6.26726 12.5003Z" fill="#46464E"/>
<path d="M6.26693 13.9999C4.59653 13.9765 4.60378 16.5245 6.26693 16.4995C7.93723 16.5232 7.92993 13.9749 6.26693 13.9999Z" fill="#EEEEEE"/>
<path d="M24.7669 13.9999C23.0965 13.9765 23.1038 16.5245 24.7669 16.4995C26.4372 16.5232 26.4299 13.9749 24.7669 13.9999Z" fill="#EEEEEE"/>
<path d="M15.517 7C15.4513 7.00008 15.3863 6.98717 15.3256 6.96203C15.2649 6.93689 15.2098 6.90001 15.1635 6.8535L14.6635 6.3535C14.5697 6.25975 14.517 6.1326 14.517 6V4.5C14.517 4.36739 14.5696 4.24021 14.6634 4.14645C14.7572 4.05268 14.8844 4 15.017 4C15.1496 4 15.2768 4.05268 15.3705 4.14645C15.4643 4.24021 15.517 4.36739 15.517 4.5V5.79295L15.8705 6.1465C15.9388 6.21702 15.985 6.30598 16.0034 6.40244C16.0218 6.4989 16.0116 6.59863 15.974 6.68935C15.9365 6.78008 15.8732 6.85782 15.792 6.91302C15.7107 6.96822 15.6152 6.99845 15.517 7Z" fill="#EEEEEE"/>
<path d="M6.51697 9.5H1.01697C0.88436 9.5 0.757183 9.44732 0.663414 9.35355C0.569646 9.25979 0.516968 9.13261 0.516968 9C0.516968 8.86739 0.569646 8.74021 0.663414 8.64645C0.757183 8.55268 0.88436 8.5 1.01697 8.5H6.51697C6.64958 8.5 6.77675 8.55268 6.87052 8.64645C6.96429 8.74021 7.01697 8.86739 7.01697 9C7.01697 9.13261 6.96429 9.25979 6.87052 9.35355C6.77675 9.44732 6.64958 9.5 6.51697 9.5Z" fill="#FFA000"/>
<path d="M8.51697 7.5H2.01697C1.88436 7.5 1.75718 7.44732 1.66341 7.35355C1.56965 7.25979 1.51697 7.13261 1.51697 7C1.51697 6.86739 1.56965 6.74021 1.66341 6.64645C1.75718 6.55268 1.88436 6.5 2.01697 6.5H8.51697C8.64958 6.5 8.77675 6.55268 8.87052 6.64645C8.96429 6.74021 9.01697 6.86739 9.01697 7C9.01697 7.13261 8.96429 7.25979 8.87052 7.35355C8.77675 7.44732 8.64958 7.5 8.51697 7.5Z" fill="#FFA000"/>
<path d="M6.51697 3.5H1.01697C0.88436 3.5 0.757183 3.44732 0.663414 3.35355C0.569646 3.25979 0.516968 3.13261 0.516968 3C0.516968 2.86739 0.569646 2.74021 0.663414 2.64645C0.757183 2.55268 0.88436 2.5 1.01697 2.5H6.51697C6.64958 2.5 6.77675 2.55268 6.87052 2.64645C6.96429 2.74021 7.01697 2.86739 7.01697 3C7.01697 3.13261 6.96429 3.25979 6.87052 3.35355C6.77675 3.44732 6.64958 3.5 6.51697 3.5Z" fill="#FFA000"/>
<path d="M8.51697 5.5H2.01697C1.88436 5.5 1.75718 5.44732 1.66341 5.35355C1.56965 5.25979 1.51697 5.13261 1.51697 5C1.51697 4.86739 1.56965 4.74021 1.66341 4.64645C1.75718 4.55268 1.88436 4.5 2.01697 4.5H8.51697C8.64958 4.5 8.77675 4.55268 8.87052 4.64645C8.96429 4.74021 9.01697 4.86739 9.01697 5C9.01697 5.13261 8.96429 5.25979 8.87052 5.35355C8.77675 5.44732 8.64958 5.5 8.51697 5.5Z" fill="#FFA000"/>
</svg>
