<svg width="34" height="34" viewBox="0 0 34 34" fill="none" xmlns="http://www.w3.org/2000/svg">
<g clip-path="url(#clip0_1588_762)">
<path d="M32.0594 2.33464V8.86795C32.0594 9.68939 31.393 10.3557 30.5709 10.3557H23.9388C23.6908 10.1753 23.3847 10.069 23.0592 10.071C22.735 10.071 22.4349 10.1766 22.1923 10.3557H15.0494C14.228 10.3557 13.5616 9.68933 13.5616 8.86795V2.33464C13.5616 1.51253 14.228 0.846207 15.0494 0.846207H30.5709C31.393 0.84614 32.0594 1.51253 32.0594 2.33464Z" fill="#FF7E96"/>
<path d="M22.1374 33.1538L22.3693 28.9724C22.4168 28.2727 22.1334 27.4913 21.6421 26.9867L20.4798 25.8251C19.3576 24.7804 18.7193 23.3154 18.72 21.7821V20.0537C18.7206 19.112 19.1023 18.2103 19.7787 17.5546L21.5966 15.7921L21.598 11.532C21.598 10.7246 22.2523 10.0709 23.059 10.0709C23.8637 10.0663 24.5455 10.7199 24.5455 11.532L24.5461 17.5259C24.5461 16.7186 25.2005 16.0649 26.0072 16.0649C26.8146 16.0649 27.4683 16.7192 27.4683 17.5259L27.4669 18.0894C27.4676 17.282 28.1226 16.629 28.9293 16.629H28.9407C29.7474 16.6296 30.4018 17.284 30.4018 18.0901L30.4011 18.8888C30.4011 18.0814 31.0547 17.4277 31.8628 17.4284H31.8755C32.6816 17.4284 33.3359 18.0827 33.3359 18.8895L33.3333 22.0382C33.3333 23.1249 33.0131 24.1869 32.4123 25.0926L31.1504 26.9907C30.7775 27.5521 30.6859 28.3128 30.7434 28.9724L31.0081 33.1538H22.1374Z" fill="#FFC6AE"/>
<path d="M15.0494 10.3557H0.664062V7.39213C0.664062 6.44239 1.43404 5.67241 2.38312 5.67241H13.5616V8.86788C13.5616 9.68932 14.2279 10.3557 15.0494 10.3557Z" fill="#5C90AE"/>
<path d="M15.2117 30.4081H22.2898L22.3693 28.9725C22.4168 28.2727 22.1334 27.4914 21.6421 26.9868L20.4798 25.8251C19.3576 24.7805 18.7193 23.3154 18.72 21.7822V20.0537C18.7207 19.112 19.1023 18.2104 19.7787 17.5547L21.5966 15.7922L21.598 11.532C21.598 11.0495 21.8319 10.6217 22.1922 10.3557H0.664062V28.6884C0.664062 29.6382 1.43404 30.4081 2.38379 30.4081H9.33506H15.2117Z" fill="#EAF0F0"/>
<path d="M13.0771 15.0268H15.7623V20.0486H13.0771V15.0268Z" fill="#FF7E96"/>
<path d="M7.151 18.293H9.83614V22.6464H7.151V18.293Z" fill="#FFCE62"/>
<path d="M31.8756 16.7643H31.8634C31.8628 16.7643 31.8622 16.7643 31.8617 16.7643C31.4803 16.7643 31.1144 16.8639 30.7937 17.0509C30.4291 16.4039 29.7353 15.9656 28.9408 15.9649H28.9294C28.496 15.9649 28.0923 16.0954 27.7556 16.319C27.3717 15.7646 26.7312 15.4008 26.0073 15.4008C25.7255 15.4008 25.4564 15.4559 25.2101 15.556L25.2096 11.532C25.2096 11.3572 25.1881 11.1855 25.1465 11.0197H30.5709C31.7579 11.0197 32.7235 10.0544 32.7235 8.86789V2.33464C32.7235 1.1477 31.7579 0.182083 30.5709 0.182083H15.0494C13.8628 0.182083 12.8975 1.1477 12.8975 2.33464V5.00842H2.38312C1.06907 5.00842 0 6.07776 0 7.39214V10.3557V28.6884C0 30.0028 1.06941 31.0721 2.38379 31.0721H9.33499C9.70175 31.0721 9.99905 30.7748 9.99905 30.4081C9.99905 30.0414 9.70175 29.744 9.33499 29.744H2.38379C1.80167 29.744 1.32812 29.2704 1.32812 28.6884V11.0198H15.0494H20.9968C20.9554 11.1866 20.934 11.36 20.934 11.5318L20.9327 15.511L19.3166 17.078C18.5163 17.8538 18.0568 18.9383 18.0561 20.0538V21.7818C18.0553 23.4802 18.7779 25.1432 20.0185 26.3028L21.1692 27.4528C21.5443 27.8402 21.7318 28.4019 21.7064 28.9357L21.6616 29.744H15.2117C14.8449 29.744 14.5476 30.0414 14.5476 30.4081C14.5476 30.7748 14.8449 31.0721 15.2117 31.0721H21.5878L21.4744 33.117C21.454 33.4832 21.7344 33.7965 22.1007 33.8168C22.4666 33.8375 22.7801 33.5567 22.8005 33.1905L22.9527 30.4463C22.9527 30.4458 22.9529 30.4453 22.9529 30.4448L23.0322 29.013C23.0916 28.1157 22.7503 27.1556 22.1116 26.5169L20.9493 25.3553C19.9841 24.3901 19.3835 23.1671 19.3842 21.782V20.054C19.3847 19.2959 19.697 18.5586 20.241 18.0313L20.9326 17.3608V20.6165C20.9326 20.9832 21.23 21.2806 21.5967 21.2806C21.9634 21.2806 22.2608 20.9832 22.2608 20.6165L22.2622 11.5318C22.2622 11.0934 22.6319 10.7349 23.0679 10.7349C23.4978 10.7349 23.8815 11.0949 23.8815 11.5319L23.8822 17.5259C23.8823 17.8926 24.1796 18.1899 24.5463 18.1899C24.913 18.1899 25.2103 17.8925 25.2103 17.5258C25.2103 17.0863 25.5679 16.7288 26.0073 16.7288C26.4468 16.7288 26.8044 17.0863 26.8044 17.5242L26.803 18.081V18.0887C26.8026 18.4552 27.0994 18.7527 27.4659 18.7533H27.467C27.8331 18.7533 28.1302 18.457 28.1311 18.0909V18.0863C28.1334 17.6485 28.4908 17.293 28.9294 17.293H28.9402C29.38 17.2933 29.7378 17.6509 29.7378 18.0895L29.7371 18.8861V18.8877V18.8881V18.8887C29.7371 19.2553 30.0343 19.5526 30.4009 19.5527H30.4012C30.7677 19.5527 31.0649 19.2557 31.0652 18.8892V18.8871C31.0656 18.6746 31.1484 18.4751 31.2985 18.3251C31.4487 18.175 31.6487 18.0923 31.8623 18.0923H31.8629H31.8756C32.3147 18.0923 32.6719 18.4498 32.6719 18.8887L32.6692 22.038C32.6692 22.9971 32.389 23.9264 31.8593 24.7248L30.5972 26.6232C30.0423 27.4587 30.0349 28.4812 30.0811 29.0218L30.3453 33.1957C30.3676 33.5474 30.6598 33.8178 31.0075 33.8178C31.0216 33.8178 31.0358 33.8173 31.0501 33.8164C31.4161 33.7932 31.694 33.4777 31.6709 33.1117L31.4062 28.9304C31.4058 28.9252 31.4054 28.92 31.405 28.9148C31.3509 28.2928 31.4597 27.7254 31.7035 27.3583L32.9658 25.4596C33.6407 24.4423 33.9975 23.2591 33.9975 22.0386L34.0001 18.8893C34 17.7176 33.0469 16.7643 31.8756 16.7643ZM14.2256 2.33464C14.2256 1.88002 14.5952 1.51021 15.0494 1.51021H30.5708C31.0255 1.51021 31.3953 1.88002 31.3953 2.33464V8.86795C31.3953 9.32217 31.0255 9.69166 30.5708 9.69166H24.1338C23.8132 9.50685 23.4426 9.40691 23.0724 9.40691C22.6967 9.40691 22.3212 9.5026 21.9955 9.69166H15.0494C14.5952 9.69166 14.2256 9.32217 14.2256 8.86795V5.67248V2.33464ZM1.32812 9.69166V7.39214C1.32812 6.81002 1.8014 6.33655 2.38312 6.33655H12.8975V8.86795C12.8975 9.14945 12.9533 9.43168 13.0614 9.69166H1.32812Z" fill="black"/>
<path d="M24.5105 8.31784C24.5582 8.32601 25.6679 8.33019 26.1747 8.3274C26.5414 8.32534 26.8371 8.02638 26.835 7.65962C26.833 7.29412 26.5361 6.99928 26.171 6.99928C26.1698 6.99928 26.1685 6.99928 26.1672 6.99928C25.8675 7.00094 25.5517 7.0022 25.2866 7.00273V3.24513C25.2866 2.87844 24.9893 2.58107 24.6226 2.58107C24.2559 2.58107 23.9585 2.87844 23.9585 3.24513V7.66327C23.9585 7.98674 24.1916 8.26319 24.5105 8.31784Z" fill="black"/>
<path d="M28.0837 8.31784C28.1315 8.32601 29.2411 8.33019 29.7479 8.3274C30.1146 8.32534 30.4103 8.02638 30.4083 7.65962C30.4062 7.29412 30.1093 6.99928 29.7443 6.99928C29.743 6.99928 29.7417 6.99928 29.7405 6.99928C29.4407 7.00094 29.125 7.0022 28.8599 7.00273V3.24513C28.8599 2.87844 28.5625 2.58107 28.1958 2.58107C27.8291 2.58107 27.5317 2.87844 27.5317 3.24513V7.66327C27.5318 7.98674 27.7648 8.26319 28.0837 8.31784Z" fill="black"/>
<path d="M20.8141 8.31087H22.6602C23.0269 8.31087 23.3243 8.0135 23.3243 7.6468C23.3243 7.28011 23.0269 6.98274 22.6602 6.98274H21.4781V6.12013H22.5241C22.8908 6.12013 23.1882 5.82276 23.1882 5.45606C23.1882 5.08937 22.8908 4.792 22.5241 4.792H21.4781V3.92938H22.6602C23.0269 3.92938 23.3243 3.63202 23.3243 3.26532C23.3243 2.89862 23.0269 2.60126 22.6602 2.60126H20.8141C20.4474 2.60126 20.15 2.89862 20.15 3.26532V7.6468C20.15 8.0135 20.4473 8.31087 20.8141 8.31087Z" fill="black"/>
<path d="M17.4202 8.33105C18.406 8.33105 19.2347 7.69787 19.3904 6.82542C19.5084 6.16448 19.2141 5.30319 18.0339 4.86783C17.5102 4.67472 17.0213 4.46481 16.8514 4.39064C16.7881 4.33227 16.7872 4.25676 16.7934 4.21393C16.8015 4.15709 16.8446 4.01744 17.067 3.95043C17.6369 3.77884 18.1765 4.20756 18.1819 4.21194L18.2619 4.26672C18.5476 4.46236 18.9357 4.40438 19.1517 4.13391C19.3748 3.85454 19.3353 3.44847 19.0625 3.21737L19.0319 3.19141C18.9882 3.15475 17.9487 2.29791 16.6839 2.67869C16.0316 2.87525 15.5698 3.39116 15.4787 4.02514C15.3929 4.62266 15.6521 5.19754 16.1551 5.52552C16.1844 5.54465 16.2152 5.56138 16.2472 5.57572C16.2729 5.58715 16.8851 5.85968 17.5743 6.11388C17.8438 6.21329 18.1188 6.39106 18.083 6.59187C18.0534 6.75762 17.8223 7.00286 17.4202 7.00286C17.0126 7.00286 16.6214 6.84017 16.3732 6.56757C16.1379 6.30918 15.7319 6.27518 15.4609 6.49572C15.1632 6.7379 15.1329 7.17665 15.3872 7.45735C15.8903 8.01263 16.6313 8.33105 17.4202 8.33105Z" fill="black"/>
<path d="M3.95916 7.74356C3.81997 7.4098 3.42658 7.24545 3.09189 7.38437C2.75767 7.52309 2.59458 7.91722 2.73263 8.25164C2.87076 8.58613 3.26574 8.74929 3.5999 8.61089C3.93538 8.47197 4.09635 8.07858 3.95916 7.74356Z" fill="black"/>
<path d="M6.4175 7.74357C6.1953 7.21059 5.41337 7.20654 5.19097 7.74357C5.08266 8.00514 5.15631 8.31579 5.37093 8.50047C5.58596 8.68541 5.90225 8.71224 6.14569 8.56707C6.42546 8.40026 6.54041 8.04372 6.4175 7.74357Z" fill="black"/>
<path d="M14.4198 12.7894C14.053 12.7894 13.7557 13.0868 13.7557 13.4534V14.3627H13.0771C12.7104 14.3627 12.4131 14.6601 12.4131 15.0268V20.0486C12.4131 20.4153 12.7104 20.7127 13.0771 20.7127H13.7557V21.4464C13.7557 21.8131 14.053 22.1104 14.4198 22.1104C14.7865 22.1104 15.0838 21.8131 15.0838 21.4464V20.7128H15.7623C16.129 20.7128 16.4263 20.4154 16.4263 20.0487V15.0269C16.4263 14.6602 16.129 14.3628 15.7623 14.3628H15.0838V13.4535C15.0838 13.0867 14.7865 12.7894 14.4198 12.7894ZM15.0982 19.3847H13.7412V15.6909H15.0982V19.3847Z" fill="black"/>
<path d="M8.49354 16.0556C8.12677 16.0556 7.82947 16.3529 7.82947 16.7196V17.6289H7.151C6.78424 17.6289 6.48694 17.9263 6.48694 18.293V22.6465C6.48694 23.0132 6.78424 23.3106 7.151 23.3106H7.82947V24.0442C7.82947 24.4109 8.12677 24.7083 8.49354 24.7083C8.8603 24.7083 9.1576 24.4109 9.1576 24.0442V23.3106H9.83607C10.2028 23.3106 10.5001 23.0132 10.5001 22.6465V18.293C10.5001 17.9263 10.2028 17.6289 9.83607 17.6289H9.1576V16.7196C9.1576 16.3529 8.8603 16.0556 8.49354 16.0556ZM9.17208 21.9825H7.81506V18.9571H9.17208V21.9825Z" fill="black"/>
<path d="M3.95837 12.7894C3.59161 12.7894 3.29431 13.0868 3.29431 13.4534V27.0809C3.29431 27.4476 3.59161 27.7449 3.95837 27.7449H18.7201C19.0868 27.7449 19.3841 27.4476 19.3841 27.0809C19.3841 26.7142 19.0868 26.4168 18.7201 26.4168H4.62244V13.4534C4.62244 13.0868 4.32514 12.7894 3.95837 12.7894Z" fill="black"/>
<path d="M11.6569 30.6624C11.7961 30.9963 12.1894 31.1603 12.5242 31.0216C12.8585 30.8832 13.0214 30.4883 12.8834 30.1543C12.7454 29.8202 12.3499 29.6564 12.0162 29.7951C11.6809 29.9343 11.5196 30.3271 11.6569 30.6624Z" fill="black"/>
</g>
<defs>
<clipPath id="clip0_1588_762">
<rect width="34" height="34" fill="white"/>
</clipPath>
</defs>
</svg>
