<svg width="38" height="38" viewBox="0 0 38 38" fill="none" xmlns="http://www.w3.org/2000/svg">
<path fill-rule="evenodd" clip-rule="evenodd" d="M26.5723 8.25352C26.8098 6.65437 27.2438 4.89204 27.8742 2.96651C27.8972 2.89632 27.9352 2.832 27.9857 2.7781C28.0362 2.72419 28.0979 2.68201 28.1664 2.65453C28.235 2.62704 28.3087 2.61491 28.3824 2.619C28.4562 2.62309 28.5281 2.64329 28.5932 2.67819C33.3764 5.24364 36.3341 7.93921 37.4662 10.7649C38.6115 13.6227 37.914 16.5625 35.3738 19.5844C35.2317 24.0735 33.3819 28.3392 30.202 31.511C23.293 38.4201 12.0913 38.4201 5.1823 31.511C-1.72674 24.6019 -1.72682 13.4003 5.1823 6.49129C7.58858 4.08535 10.6374 2.42405 13.9636 1.70634C17.2898 0.988624 20.7524 1.24494 23.9367 2.44457C24.0001 2.46684 24.0584 2.50155 24.1082 2.54666C24.158 2.59178 24.1983 2.64639 24.2267 2.70729C24.2551 2.7682 24.2711 2.83416 24.2736 2.90131C24.2762 2.96847 24.2653 3.03545 24.2416 3.09834C24.2179 3.16123 24.1819 3.21875 24.1357 3.26753C24.0895 3.3163 24.034 3.35535 23.9724 3.38238C23.9109 3.40941 23.8446 3.42387 23.7774 3.42491C23.7102 3.42596 23.6435 3.41357 23.5811 3.38847C20.5783 2.25825 17.3134 2.01725 14.1772 2.6943C11.041 3.37134 8.16624 4.93776 5.89708 7.20608C-0.617233 13.7203 -0.617233 24.282 5.89708 30.7957C12.4114 37.3094 22.9732 37.3097 29.4868 30.7957C32.4137 27.8762 34.148 23.9711 34.3513 19.8421C33.425 19.7314 32.5135 19.5202 31.6329 19.2121C31.5856 22.3724 30.466 25.4227 28.4579 27.8634C26.4497 30.304 23.6721 31.99 20.5801 32.6452C17.4882 33.3004 14.2654 32.8858 11.44 31.4694C8.61457 30.0529 6.3541 27.7187 5.02906 24.8493C3.70403 21.9799 3.39303 18.7455 4.14705 15.6762C4.90107 12.6069 6.67537 9.88471 9.17915 7.95589C11.6829 6.02707 14.7677 5.006 17.9278 5.06001C21.0879 5.11403 24.1359 6.23994 26.5723 8.25321V8.25352Z" fill="black"/>
<path fill-rule="evenodd" clip-rule="evenodd" d="M28.5474 3.91183C27.9097 5.95685 27.5096 7.79463 27.3471 9.42518C27.1055 11.8501 27.3879 13.8101 28.1942 15.3053C29.3998 17.54 31.6899 18.5318 34.2694 18.8815C34.2494 16.4437 33.6921 14.0403 32.6372 11.8424C32.5796 11.7219 32.5722 11.5835 32.6166 11.4576C32.6611 11.3316 32.7537 11.2285 32.8742 11.1709C32.9947 11.1132 33.1332 11.1058 33.2591 11.1503C33.385 11.1947 33.4882 11.2874 33.5458 11.4079C34.5394 13.4778 35.1188 15.722 35.2513 18.0142C36.9105 15.6512 37.3028 13.3777 36.428 11.1937C35.4286 8.69838 32.8018 6.27108 28.5474 3.91183Z" fill="#117829"/>
<path fill-rule="evenodd" clip-rule="evenodd" d="M28.2564 4.89024C27.7867 6.54745 27.4837 8.05909 27.3475 9.42518C27.1059 11.8501 27.3882 13.8101 28.1946 15.3053C29.4002 17.54 31.6903 18.5318 34.2698 18.8815C34.2497 16.4437 33.6924 14.0403 32.6376 11.8424C32.58 11.7219 32.5726 11.5835 32.617 11.4576C32.6615 11.3316 32.7541 11.2285 32.8746 11.1709C32.9951 11.1132 33.1335 11.1058 33.2595 11.1503C33.3854 11.1947 33.4885 11.2874 33.5462 11.4079C34.5398 13.4778 35.1191 15.722 35.2516 18.0142C35.7249 17.3535 36.1154 16.6372 36.4143 15.8815C36.0303 13.5314 35.0893 11.3073 33.6701 9.39518C32.2509 7.48304 30.3946 5.93837 28.2564 4.89024Z" fill="#139130"/>
<path fill-rule="evenodd" clip-rule="evenodd" d="M30.5219 18.8374C26.985 17.0819 25.9603 13.5986 26.3262 9.51781C24.1378 7.51273 21.3265 6.3213 18.3638 6.14341C15.4011 5.96552 12.4674 6.81201 10.0549 8.54084C7.64238 10.2697 5.89786 12.7757 5.11406 15.6383C4.33026 18.5009 4.55486 21.5461 5.75019 24.2627C6.94551 26.9794 9.03882 29.2023 11.6789 30.5585C14.3189 31.9146 17.3451 32.3215 20.2496 31.7109C23.1541 31.1003 25.7603 29.5092 27.6307 27.2048C29.5012 24.9003 30.5222 22.0227 30.5223 19.0547C30.5223 18.9535 30.5223 18.8812 30.5223 18.8374H30.5219ZM24.5443 19.1192V27.0009C24.5443 27.135 24.491 27.2636 24.3962 27.3585C24.3014 27.4533 24.1728 27.5066 24.0387 27.5066H11.1429C11.0088 27.5066 10.8802 27.4533 10.7854 27.3585C10.6905 27.2637 10.6373 27.1351 10.6372 27.0009V19.1192L10.0817 19.4865C10.0264 19.5231 9.96446 19.5484 9.89941 19.561C9.83436 19.5736 9.76747 19.5733 9.70254 19.5601C9.63761 19.5469 9.57593 19.521 9.52101 19.4839C9.46609 19.4468 9.41901 19.3993 9.38246 19.344L7.97671 17.2187C7.94015 17.1635 7.91483 17.1015 7.90221 17.0365C7.88958 16.9714 7.8899 16.9045 7.90313 16.8396C7.91636 16.7747 7.94225 16.713 7.97933 16.658C8.0164 16.6031 8.06394 16.556 8.11921 16.5195L17.3041 10.4453C17.387 10.3881 17.4852 10.3571 17.5859 10.3561C17.6866 10.3552 17.7853 10.3843 17.8693 10.4399L27.0626 16.5194C27.1179 16.5559 27.1654 16.603 27.2025 16.658C27.2396 16.7129 27.2655 16.7746 27.2787 16.8395C27.292 16.9044 27.2923 16.9714 27.2796 17.0364C27.267 17.1015 27.2417 17.1634 27.2051 17.2187L25.7991 19.3443C25.7625 19.3996 25.7154 19.4471 25.6605 19.4842C25.6056 19.5213 25.5439 19.5472 25.479 19.5604C25.4141 19.5737 25.3472 19.574 25.2821 19.5613C25.2171 19.5487 25.1551 19.5234 25.0999 19.4868L24.5443 19.1192Z" fill="#7EBBCC"/>
<path fill-rule="evenodd" clip-rule="evenodd" d="M30.5218 18.8374C26.9849 17.0819 25.9601 13.5986 26.326 9.5178C24.2749 7.63939 21.673 6.47206 18.9062 6.18889C16.1394 5.90573 13.355 6.52182 10.9659 7.9458C9.31859 9.65778 8.1044 11.7387 7.42455 14.0152C6.7447 16.2917 6.61888 18.6977 7.05759 21.0326C7.49629 23.3676 8.48681 25.5638 9.94657 27.4383C11.4063 29.3128 13.293 30.8111 15.4494 31.8084C17.3029 32.1196 19.2019 32.0229 21.0143 31.5253C22.8266 31.0277 24.5087 30.1411 25.9435 28.9271C27.3783 27.7131 28.5312 26.201 29.322 24.496C30.1128 22.7911 30.5225 20.9343 30.5225 19.0548C30.5225 18.9537 30.5225 18.8814 30.5225 18.8376L30.5218 18.8374ZM24.5442 19.1192V27.0009C24.5442 27.135 24.4909 27.2636 24.3961 27.3584C24.3012 27.4533 24.1726 27.5065 24.0385 27.5066H11.1428C11.0087 27.5066 10.8801 27.4533 10.7853 27.3585C10.6904 27.2637 10.6371 27.135 10.6371 27.0009V19.1192L10.0815 19.4865C10.0263 19.5231 9.96434 19.5484 9.89929 19.561C9.83424 19.5736 9.76735 19.5733 9.70242 19.5601C9.63749 19.5469 9.57581 19.521 9.52089 19.4839C9.46597 19.4468 9.41889 19.3993 9.38234 19.344L7.97659 17.2187C7.94003 17.1635 7.91471 17.1015 7.90209 17.0365C7.88946 16.9714 7.88978 16.9045 7.90301 16.8396C7.91624 16.7746 7.94213 16.713 7.97921 16.658C8.01628 16.6031 8.06382 16.556 8.11909 16.5195L17.304 10.4453C17.3869 10.3881 17.485 10.3571 17.5857 10.3561C17.6865 10.3552 17.7852 10.3843 17.8692 10.4399L27.0625 16.5194C27.1178 16.5559 27.1653 16.603 27.2024 16.658C27.2395 16.7129 27.2654 16.7746 27.2786 16.8395C27.2918 16.9044 27.2921 16.9713 27.2795 17.0364C27.2669 17.1015 27.2416 17.1634 27.205 17.2187L25.799 19.3443C25.7624 19.3996 25.7153 19.4471 25.6604 19.4842C25.6055 19.5213 25.5438 19.5472 25.4789 19.5604C25.4139 19.5736 25.347 19.574 25.282 19.5613C25.2169 19.5487 25.155 19.5234 25.0998 19.4868L24.5442 19.1192Z" fill="#A6E1F2"/>
<path fill-rule="evenodd" clip-rule="evenodd" d="M10.8365 17.7774C10.8546 17.7637 10.8735 17.7512 10.8931 17.74L17.3121 13.4952C17.396 13.4396 17.4948 13.4104 17.5955 13.4114C17.6962 13.4124 17.7943 13.4434 17.8772 13.5006L25.2356 18.3666L26.0847 17.0826L17.5908 11.4656L9.09631 17.0827L9.94553 18.3666L10.8365 17.7774Z" fill="#1664B2"/>
<path fill-rule="evenodd" clip-rule="evenodd" d="M12.6792 16.559L17.3122 13.4952C17.3962 13.4396 17.4949 13.4104 17.5956 13.4114C17.6963 13.4124 17.7944 13.4434 17.8773 13.5006L25.2357 18.3666L26.0849 17.0826L17.5909 11.4656L12.8289 14.6142C12.7271 15.1754 12.676 15.7446 12.6761 16.315C12.6761 16.3967 12.6772 16.478 12.6792 16.559Z" fill="#498DD1"/>
<path fill-rule="evenodd" clip-rule="evenodd" d="M11.6486 18.4504V26.4952H23.5329V18.4504L17.591 14.5208L11.6488 18.4504H11.6486ZM16.2753 19.0469V18.5412H17.2867V19.6702H16.2753V19.0469ZM17.8948 20.8004V20.2947H18.9062V21.4236H17.8948V20.8004ZM16.2753 20.8004V20.2947H17.2867V21.4236H16.2753V20.8004ZM17.8948 19.0469V18.5412H18.9062V19.6702H17.8948V19.0469Z" fill="#F0B248"/>
<path fill-rule="evenodd" clip-rule="evenodd" d="M23.5328 25.6697V18.4504L17.5909 14.5208L12.7776 17.7033C13.1475 20.1859 14.4884 22.4199 16.5054 23.9139C18.5224 25.4079 21.0502 26.0394 23.5328 25.6697ZM16.2752 19.0469V18.5412H17.2866V19.6702H16.2752V19.0469ZM17.8947 20.8004V20.2947H18.9061V21.4236H17.8947V20.8004ZM16.2752 20.8004V20.2947H17.2866V21.4236H16.2752V20.8004ZM17.8947 19.0469V18.5412H18.9061V19.6702H17.8947V19.0469Z" fill="#E8BE76"/>
</svg>
