<?xml version="1.0" encoding="UTF-8"?>
<svg version="1.1" xmlns="http://www.w3.org/2000/svg" width="29" height="31">
<path d="M0 0 C-0.65657754 3.86903341 -1.78413601 7.30015142 -3.22143555 10.94848633 C-3.68249191 12.12353226 -4.14354828 13.29857819 -4.61857605 14.50923157 C-5.12416923 15.78367848 -5.6302286 17.05794054 -6.13671875 18.33203125 C-6.65902494 19.65092564 -7.18130747 20.9698294 -7.7035675 22.28874207 C-8.79901281 25.05131585 -9.89835036 27.81230732 -10.99975586 30.57250977 C-12.40168553 34.08822399 -13.78836131 37.6097397 -15.17138958 41.13292408 C-16.24506626 43.86019497 -17.32972193 46.58300367 -18.4173069 49.30475426 C-18.93275771 50.59997174 -19.44424758 51.89677358 -19.95148277 53.19523048 C-23.87543131 63.22220313 -28.06708701 72.74858289 -38 78 C-45.98956084 81.20938512 -56.03447811 81.68481532 -64.0625 78.3125 C-72.46284801 73.75051325 -75.81171003 68.48054458 -80 60 C-82.12593053 61.79057247 -84.25077556 63.58240553 -86.375 65.375 C-87.27992188 66.13683594 -87.27992188 66.13683594 -88.203125 66.9140625 C-88.78320312 67.40390625 -89.36328125 67.89375 -89.9609375 68.3984375 C-90.49509277 68.84880371 -91.02924805 69.29916992 -91.57958984 69.76318359 C-94.52896316 72.23110974 -94.52896316 72.23110974 -95.2734375 75.9765625 C-95.32371094 77.78253906 -95.32371094 77.78253906 -95.375 79.625 C-95.91151263 88.23558787 -97.58991242 93.01845221 -103.9375 98.875 C-108.48128 102.75934473 -112.53750568 104.26215077 -118.51953125 104.1953125 C-119.54111328 104.18886719 -120.56269531 104.18242188 -121.61523438 104.17578125 C-123.19788086 104.15064453 -123.19788086 104.15064453 -124.8125 104.125 C-125.88693359 104.11597656 -126.96136719 104.10695313 -128.06835938 104.09765625 C-130.71246854 104.07415306 -133.35611872 104.04129575 -136 104 C-136.21914063 105.1859375 -136.43828125 106.371875 -136.6640625 107.59375 C-140.04053642 125.13245362 -145.40352233 143.75218146 -157 157.8125 C-159.76638227 162.22142174 -159.4589438 165.93122074 -159 171 C-158.45472656 170.35933594 -157.90945313 169.71867188 -157.34765625 169.05859375 C-149.38951195 159.93053422 -141.02959007 153.14714203 -130 148 C-129.34 148 -128.68 148 -128 148 C-128.04640625 147.154375 -128.0928125 146.30875 -128.140625 145.4375 C-128.55078788 132.54666667 -128.55078788 132.54666667 -124 127 C-119.43889964 122.81516747 -115.34379425 119.85455794 -108.98828125 119.90234375 C-107.85229492 119.90717773 -107.85229492 119.90717773 -106.69335938 119.91210938 C-105.51483398 119.92467773 -105.51483398 119.92467773 -104.3125 119.9375 C-103.51521484 119.94201172 -102.71792969 119.94652344 -101.89648438 119.95117188 C-99.93095743 119.9629415 -97.96546915 119.98087652 -96 120 C-95.71382813 119.07445312 -95.42765625 118.14890625 -95.1328125 117.1953125 C-93.27861299 111.96519113 -90.24893783 108.47499645 -85.5625 105.625 C-79.13475046 102.72214537 -71.26407319 102.85976524 -64.53125 104.66015625 C-58.31568967 107.4212994 -54.21256241 111.85818494 -51.77734375 118.16796875 C-44.214338 142.15814829 -47.81141531 164.00137318 -57.609375 186.61328125 C-59.12661245 189.69816666 -59.12661245 189.69816666 -59 192 C-58.01 191.96519531 -57.02 191.93039063 -56 191.89453125 C-45.50969047 191.63011433 -37.88261802 192.23068573 -29.98892212 199.72914124 C-23.46199627 207.18128158 -20.22134419 217.99938124 -16.6015625 227.09765625 C-15.88182755 228.89268837 -15.88182755 228.89268837 -15.14755249 230.72398376 C-14.14432975 233.22766847 -13.14477621 235.73277596 -12.14794922 238.23901367 C-10.8706279 241.44958917 -9.58388023 244.65629162 -8.29445839 247.86202335 C-7.05847458 250.9385686 -5.83035642 254.01823213 -4.6015625 257.09765625 C-4.13916168 258.2475856 -3.67676086 259.39751495 -3.2003479 260.58229065 C-2.77925751 261.64447311 -2.35816711 262.70665558 -1.92431641 263.80102539 C-1.551586 264.73523819 -1.17885559 265.66945099 -0.79483032 266.63197327 C0 269 0 269 0 272 C-5.06797627 271.33652677 -9.5821443 269.87220485 -14.375 268.1875 C-22.8229009 265.28512144 -31.30979596 263.05146659 -40 261 C-40.04395401 262.24832108 -40.08790802 263.49664215 -40.13319397 264.78279114 C-40.79589989 282.22678765 -42.01261123 299.62428455 -43.25675082 317.03396201 C-43.49639134 320.39157953 -43.73420554 323.74932558 -43.97211033 327.10706645 C-44.53350087 335.02886859 -45.09834094 342.95041958 -45.6652832 350.87182617 C-46.24725465 359.00427754 -46.82260742 367.13717905 -47.39489979 375.27031678 C-47.89021453 382.30559852 -48.38995855 389.34055657 -48.89313084 396.37528068 C-49.19200849 400.55469791 -49.48919993 404.73421692 -49.78195 408.91406822 C-50.05677412 412.83563184 -50.33716268 416.7567601 -50.62166214 420.67763329 C-50.72439645 422.10603454 -50.825235 423.53457377 -50.92391777 424.96326065 C-52.07244384 441.55260282 -53.48768546 458.3417948 -66.55078125 470.25 C-74.21741928 475.7279168 -82.80935674 480.10386362 -92.34230042 480.14717102 C-93.42574234 480.15432632 -94.50918427 480.16148163 -95.62545776 480.16885376 C-97.40135788 480.17288712 -97.40135788 480.17288712 -99.21313477 480.17700195 C-100.46401382 480.18357315 -101.71489288 480.19014435 -103.00367737 480.19691467 C-107.14958944 480.21664865 -111.29546282 480.22831643 -115.44140625 480.23828125 C-116.87255306 480.24233097 -118.30369969 480.24644796 -119.73484612 480.25063133 C-126.46297874 480.26967778 -133.19110045 480.28390733 -139.91925484 480.2922433 C-147.66475345 480.30199997 -155.40996508 480.32828036 -163.15536267 480.36874419 C-169.15471869 480.39900129 -175.15399294 480.4137214 -181.15342373 480.41702431 C-184.73033235 480.41936479 -188.30693425 480.42819251 -191.88376045 480.45348549 C-195.88305531 480.48130872 -199.88171773 480.47690597 -203.88110352 480.4699707 C-205.05086731 480.48278076 -206.2206311 480.49559082 -207.42584229 480.50878906 C-219.77014186 480.43108959 -230.08102289 476.40599689 -239.16015625 468 C-252.29479792 454.25159003 -252.27484315 436.52920263 -253.47265625 418.62890625 C-253.60132743 416.77469303 -253.73060557 414.92052184 -253.86045837 413.06639099 C-254.19863287 408.22067271 -254.5305008 403.37454637 -254.8604126 398.52825928 C-255.39052461 390.74853321 -255.92780928 382.96931186 -256.46990776 375.19041252 C-256.65731878 372.48240648 -256.840459 369.77413523 -257.02320862 367.06581116 C-257.1377927 365.40657485 -257.25252566 363.74734881 -257.36743164 362.08813477 C-257.44148224 360.96518509 -257.44148224 360.96518509 -257.51702881 359.81954956 C-257.77572091 356.1410676 -258.16994279 352.59537421 -259 349 C-279.48767209 342.33372925 -300.03070867 338.15169769 -321.578125 337.48242188 C-329.19834389 337.17270439 -336.33867955 336.66132045 -342 331 C-345.25085768 325.85376593 -344.64628444 319.84348847 -344 314 C-341.89716547 307.2033384 -337.77025519 301.2211934 -332 297 C-329.78515625 296.31640625 -329.78515625 296.31640625 -328 296 C-327.95875 295.21625 -327.9175 294.4325 -327.875 293.625 C-325.41300009 283.4252861 -319.46772172 278.55659778 -311 273 C-311.24907104 271.98969727 -311.24907104 271.98969727 -311.50317383 270.95898438 C-314.6801312 258.02635457 -317.76870755 245.13330909 -320 232 C-320.61746094 233.16015625 -321.23492187 234.3203125 -321.87109375 235.515625 C-326.96584095 244.96397309 -332.24186982 253.6339426 -339 262 C-339.97259766 263.27617188 -339.97259766 263.27617188 -340.96484375 264.578125 C-349.65934959 275.72578316 -359.97856488 286.14813872 -371 295 C-370.690625 295.763125 -370.38125 296.52625 -370.0625 297.3125 C-367.2558867 304.41158069 -366.70958643 312.19667579 -369.1875 319.5 C-373.27662839 325.14017709 -378.65354472 329.22846008 -384.125 333.4375 C-384.91124756 334.04585693 -385.69749512 334.65421387 -386.50756836 335.28100586 C-392.9102754 340.2125551 -399.39801591 345.02365677 -405.92626953 349.78735352 C-409.95066113 352.72921626 -413.93753972 355.70693895 -417.87109375 358.76953125 C-418.64960693 359.37466553 -419.42812012 359.9797998 -420.23022461 360.60327148 C-421.71120442 361.75928638 -423.18752485 362.92130269 -424.65844727 364.09008789 C-425.31772217 364.60434326 -425.97699707 365.11859863 -426.65625 365.6484375 C-427.23181641 366.10395996 -427.80738281 366.55948242 -428.40039062 367.02880859 C-430 368 -430 368 -433 368 C-434.66452592 363.9514658 -436.31799782 359.89863048 -437.9621582 355.84179688 C-438.52079717 354.46757389 -439.08223667 353.09448541 -439.64672852 351.72265625 C-444.834089 339.10699555 -448.57354749 327.53506605 -448.4375 313.75 C-448.42992676 312.66533447 -448.42235352 311.58066895 -448.41455078 310.46313477 C-448.18707186 299.28428939 -447.25881928 287.28448136 -439.58203125 278.48046875 C-433.11141664 272.42525162 -427.20930218 271.63202644 -418.51953125 271.73046875 C-412.75418234 272.17198826 -409.16433896 273.67868701 -405.22265625 277.90625 C-402.62999475 281.17605368 -400.80371475 283.86133093 -400 288 C-387.23454702 288.43272722 -377.85391122 277.03368055 -369.04980469 268.9362793 C-366.14201992 266.26925207 -366.14201992 266.26925207 -364 263 C-365.0621875 262.56429688 -366.124375 262.12859375 -367.21875 261.6796875 C-368.64697733 261.08084615 -370.07398358 260.4790873 -371.5 259.875 C-372.2410498 259.56167725 -372.98209961 259.24835449 -373.74560547 258.92553711 C-377.70756682 257.19343432 -380.91685885 255.52331749 -384.125 252.5625 C-389.37753462 248.31963186 -395.63923658 249.36697962 -402 250 C-402.75974121 250.07395996 -403.51948242 250.14791992 -404.30224609 250.22412109 C-422.75565256 252.17224866 -441.1932833 256.35235435 -458.48828125 263.1171875 C-461 264 -461 264 -464 264 C-463.34342246 260.13096659 -462.21586399 256.69984858 -460.77856445 253.05151367 C-460.31750809 251.87646774 -459.85645172 250.70142181 -459.38142395 249.49076843 C-458.87583077 248.21632152 -458.3697714 246.94205946 -457.86328125 245.66796875 C-457.34097506 244.34907436 -456.81869253 243.0301706 -456.2964325 241.71125793 C-455.20098719 238.94868415 -454.10164964 236.18769268 -453.00024414 233.42749023 C-451.59831447 229.91177601 -450.21163869 226.3902603 -448.82861042 222.86707592 C-447.75493374 220.13980503 -446.67027807 217.41699633 -445.5826931 214.69524574 C-445.06724229 213.40002826 -444.55575242 212.10322642 -444.04851723 210.80476952 C-440.51239967 201.76883193 -436.92091637 192.89237364 -428.375 187.5625 C-427.64023437 187.08941406 -426.90546875 186.61632812 -426.1484375 186.12890625 C-419.35377634 182.55862066 -409.53605644 182.82445861 -402.2265625 184.71875 C-400.00521555 185.65884223 -398.03449195 186.70805469 -396 188 C-394.4221875 188.99 -394.4221875 188.99 -392.8125 190 C-388.47882816 193.8602455 -386.12527286 199.70942713 -384 205 C-384 205.99 -384 206.98 -384 208 C-383.319375 208.185625 -382.63875 208.37125 -381.9375 208.5625 C-375.74751265 211.59164275 -371.24736492 216.8221278 -368.64453125 223.1796875 C-367.23870947 229.33122282 -367.72322312 235.73407886 -368 242 C-358.68928473 245.30832987 -358.68928473 245.30832987 -349 247 C-348.73445313 246.27425781 -348.46890625 245.54851562 -348.1953125 244.80078125 C-346.99637773 241.99151253 -345.58521425 239.71304895 -343.875 237.1875 C-339.27250251 230.11418806 -335.66460495 222.58620817 -332 215 C-333.04800781 215.97453125 -333.04800781 215.97453125 -334.1171875 216.96875 C-335.02726563 217.8040625 -335.93734375 218.639375 -336.875 219.5 C-337.77992188 220.3353125 -338.68484375 221.170625 -339.6171875 222.03125 C-342 224 -342 224 -344 224 C-344.09405759 216.18314277 -344.16443432 208.3664262 -344.20724869 200.54913998 C-344.22783186 196.91642241 -344.25558738 193.28410095 -344.30175781 189.65161133 C-344.60066151 165.46881507 -344.07863832 140.15727663 -333 118 C-336.83484644 119.09895588 -340.66758157 120.20510933 -344.5 121.3125 C-345.57765625 121.62123047 -346.6553125 121.92996094 -347.765625 122.24804688 C-352.43908797 123.60164133 -357.05782631 124.96407539 -361.59375 126.73046875 C-365 128 -365 128 -368 128 C-367.34342246 124.13096659 -366.21586399 120.69984858 -364.77856445 117.05151367 C-364.31750809 115.87646774 -363.85645172 114.70142181 -363.38142395 113.49076843 C-362.87583077 112.21632152 -362.3697714 110.94205946 -361.86328125 109.66796875 C-361.34097506 108.34907436 -360.81869253 107.0301706 -360.2964325 105.71125793 C-359.20098719 102.94868415 -358.10164964 100.18769268 -357.00024414 97.42749023 C-355.59831447 93.91177601 -354.21163869 90.3902603 -352.82861042 86.86707592 C-351.75493374 84.13980503 -350.67027807 81.41699633 -349.5826931 78.69524574 C-349.06724229 77.40002826 -348.55575242 76.10322642 -348.04851723 74.80476952 C-344.50121145 65.74024238 -340.91760525 56.8637254 -332.3125 51.5625 C-331.56613281 51.08941406 -330.81976563 50.61632812 -330.05078125 50.12890625 C-323.45015202 46.49541701 -313.38645025 46.89133675 -306.15625 48.71875 C-303.94995456 49.65566998 -302.0102467 50.69874354 -300 52 C-298.948125 52.66 -297.89625 53.32 -296.8125 54 C-292.46671433 57.85886291 -290.19383538 63.73323917 -288 69 C-288 69.66 -288 70.32 -288 71 C-287.00484375 71.02578125 -286.0096875 71.0515625 -284.984375 71.078125 C-272.54701337 71.53620083 -259.85896149 73.04701284 -248 77 C-255.1505465 62.95569458 -263.83645158 50.01239464 -272.68212891 37.00024414 C-273.16294922 36.28989517 -273.64376953 35.5795462 -274.13916016 34.84767151 C-275.05562359 33.49486303 -275.97620944 32.14483593 -276.90136719 30.79795837 C-280 26.22369336 -280 26.22369336 -280 24 C-272.46121745 23.90580794 -264.92249843 23.83550129 -257.383255 23.79275131 C-253.87947279 23.77219576 -250.37610327 23.74449635 -246.87255859 23.69824219 C-185.74865531 22.91346336 -185.74865531 22.91346336 -167.4609375 39.484375 C-166.97882813 39.98453125 -166.49671875 40.4846875 -166 41 C-165.34 41.66 -164.68 42.32 -164 43 C-163.50072998 42.70230713 -163.00145996 42.40461426 -162.48706055 42.09790039 C-160.2223001 40.74978482 -157.95494139 39.40610108 -155.6875 38.0625 C-154.90181641 37.59392578 -154.11613281 37.12535156 -153.30664062 36.64257812 C-152.54931641 36.19462891 -151.79199219 35.74667969 -151.01171875 35.28515625 C-150.31522217 34.87144775 -149.61872559 34.45773926 -148.90112305 34.03149414 C-142.51349191 30.56575104 -133.90688522 30.88671979 -127.06640625 32.8359375 C-120.18317153 35.95801352 -116.12414685 40.58088329 -112.8828125 47.32421875 C-111.82612095 50.52702278 -111.57882393 53.44940519 -111.375 56.8125 C-111.26285156 58.55466797 -111.26285156 58.55466797 -111.1484375 60.33203125 C-111.09945313 61.21246094 -111.05046875 62.09289062 -111 63 C-110.10796875 62.16855469 -109.2159375 61.33710937 -108.296875 60.48046875 C-107.11467608 59.38271261 -105.93237926 58.2850619 -104.75 57.1875 C-104.16347656 56.64029297 -103.57695312 56.09308594 -102.97265625 55.52929688 C-94.85014205 48 -94.85014205 48 -92 48 C-92.28875 47.42894531 -92.5775 46.85789063 -92.875 46.26953125 C-96.11791163 39.18692216 -97.02271684 32.74785482 -96 25 C-93.88554787 20.45784358 -91.5597515 18.06274473 -87 16 C-82.85875197 15.1209907 -78.8457235 14.87757294 -74.63330078 14.76098633 C-51.00556833 14.05106943 -26.90165415 9.51195895 -4.92578125 0.6640625 C-3 0 -3 0 0 0 Z M-272 90 C-272.02578125 90.86882812 -272.0515625 91.73765625 -272.078125 92.6328125 C-272.65810173 104.41688516 -272.65810173 104.41688516 -277 109 C-279.75 110.875 -279.75 110.875 -282 112 C-280.31029911 115.66398299 -278.12699789 118.90832572 -275.875 122.25 C-275.15054688 123.32765625 -274.42609375 124.4053125 -273.6796875 125.515625 C-273.12539063 126.33546875 -272.57109375 127.1553125 -272 128 C-268.29042343 126.46704712 -266.105565 124.2165048 -263.375 121.3125 C-255.31977255 113.11595277 -245.954447 107.62717021 -236 102 C-236.495 100.515 -236.495 100.515 -237 99 C-239.42358658 97.84246611 -241.7293643 96.89177517 -244.25 96 C-244.96784668 95.73944824 -245.68569336 95.47889648 -246.42529297 95.21044922 C-254.7689054 92.2594569 -263.08529806 89.76192191 -272 90 Z M-170 94 C-169.84144531 94.52078125 -169.68289063 95.0415625 -169.51953125 95.578125 C-167.92047209 103.03238576 -167.69112525 111.72108831 -171.73046875 118.38671875 C-175.04411692 122.59760089 -178.86498585 125.37391219 -184 127 C-196.99973762 128.15374348 -207.82798511 126.78281902 -218.6875 119.0625 C-222.20157433 116.66228325 -222.20157433 116.66228325 -226.265625 115.9375 C-235.02483929 118.45813721 -243.04710257 125.32856724 -250 131 C-248.24585235 134.78794203 -245.90609326 137.82866849 -243.33984375 141.09765625 C-239.40850614 146.67946795 -240.43600951 154.49443531 -241 161 C-242.82108404 167.53547918 -246.02741063 171.67081542 -251.47998047 175.60131836 C-256.47321412 178.37270333 -262.02361638 179.30790141 -267.5625 180.5 C-280.70445105 183.55106814 -292.3229322 187.15785362 -304 194 C-303.77535941 213.2997253 -302.82039723 232.01768893 -299 251 C-298.80841309 252.0096582 -298.61682617 253.01931641 -298.41943359 254.05957031 C-296.5306 265.38581498 -296.5306 265.38581498 -290.15625 274.3828125 C-287.08844852 275.93587465 -287.08844852 275.93587465 -284 276.7421875 C-276.61590484 279.83812323 -273.98509743 286.67779936 -271.08068848 293.74679565 C-270.29534933 295.70294736 -269.52234566 297.66368669 -268.75 299.625 C-268.21738923 300.94841775 -267.68354346 302.27133918 -267.1484375 303.59375 C-265.7507349 307.05665372 -264.37339115 310.5273756 -263 314 C-262.33410459 315.66697496 -261.66774123 317.33376356 -261 319 C-260.67 319 -260.34 319 -260 319 C-260.62174745 304.54228684 -261.49814231 290.11897532 -262.5625 275.6875 C-262.70271237 273.75978295 -262.84268719 271.83204861 -262.98242188 269.90429688 C-263.31889505 265.26932866 -263.65851656 260.63460166 -264 256 C-265.89105469 255.56300781 -265.89105469 255.56300781 -267.8203125 255.1171875 C-272.34934843 254.07060047 -275.57072795 252.27475692 -278.109375 248.234375 C-279.91542337 243.70341155 -279.51828129 238.7797052 -279 234 C-276.82438957 229.40704465 -274.52355693 227.20739341 -270 225 C-266.90625 224.875 -266.90625 224.875 -263.5 225 C-254.08510919 224.49774118 -249.21062364 219.53245983 -243 213 C-241.63681641 211.57880859 -241.63681641 211.57880859 -240.24609375 210.12890625 C-228.44977974 196.85580178 -222.95358347 181.10391944 -217.56738281 164.51220703 C-216.77466595 162.08672293 -215.9623583 159.66843577 -215.1484375 157.25 C-214.92014252 156.52385498 -214.69184753 155.79770996 -214.45663452 155.04956055 C-212.35705176 148.84198845 -208.92579503 144.13568672 -203.61328125 140.2578125 C-195.71137446 136.36723021 -188.37906384 134.82104461 -179.75 137.1875 C-175.49784259 138.65469808 -171.79923555 140.60482976 -168 143 C-159.93952864 131.38343834 -153 114.43331392 -153 100 C-155.4566947 98.99580363 -157.91518353 97.99649499 -160.375 97 C-161.07367188 96.71382813 -161.77234375 96.42765625 -162.4921875 96.1328125 C-166.12885961 94.55475601 -166.12885961 94.55475601 -170 94 Z M-142.08984375 177.0703125 C-145.03483508 180.0939697 -145.03483508 180.0939697 -146 184 C-145.2786084 184.03440186 -144.5572168 184.06880371 -143.81396484 184.10424805 C-125.66410082 185.02530724 -108.20944797 187.13406322 -90.33544922 190.3984375 C-85.23245891 191.31878358 -80.11707587 192.16207517 -75 193 C-79.18333761 188.51485847 -83.84878714 185.02087835 -88.8125 181.4375 C-90.50578219 180.20521524 -92.1984799 178.97212698 -93.890625 177.73828125 C-94.74076172 177.11904785 -95.59089844 176.49981445 -96.46679688 175.86181641 C-98.90646791 174.06874284 -101.3244599 172.25078329 -103.734375 170.41796875 C-104.46551514 169.86246338 -105.19665527 169.30695801 -105.94995117 168.73461914 C-107.33566638 167.67879799 -108.71874243 166.61950214 -110.09887695 165.55639648 C-120.8329446 157.40130222 -134.0220729 169.07794137 -142.08984375 177.0703125 Z M-145 201 C-145.31453125 201.66386719 -145.6290625 202.32773438 -145.953125 203.01171875 C-150.63249273 212.66643831 -155.2816131 218.48060491 -165.5 222.3125 C-166.7375 222.6528125 -166.7375 222.6528125 -168 223 C-168 223.33 -168 223.66 -168 224 C-157.96847373 224.1625274 -147.93726303 224.28673915 -137.90468597 224.3626852 C-133.24555298 224.39914489 -128.5873238 224.44855985 -123.92871094 224.52807617 C-119.42878909 224.60439905 -114.92973386 224.64604489 -110.42921448 224.6641407 C-108.71637841 224.67702809 -107.0035873 224.70219544 -105.29112244 224.7401104 C-94.40415251 225.28010108 -94.40415251 225.28010108 -85.00976562 220.51977539 C-83.98767905 219.36288496 -82.97972551 218.1929771 -82 217 C-81.34 216.67 -80.68 216.34 -80 216 C-79.34227572 212.97065509 -79.34227572 212.97065509 -79 210 C-88.01390893 207.28427103 -97.02714403 205.35241234 -106.3125 203.8125 C-107.31345703 203.64588867 -108.31441406 203.47927734 -109.34570312 203.30761719 C-118.6271384 201.81387661 -127.71968234 200.82910538 -137.125 200.9375 C-138.27355469 200.94426758 -138.27355469 200.94426758 -139.4453125 200.95117188 C-141.29691037 200.96274436 -143.14846688 200.98066845 -145 201 Z " fill="#5D9D4D" transform="translate(488,16)"/>
<path d="M0 0 C24.86266934 -0.07038919 49.72532352 -0.12313364 74.58807278 -0.15543652 C86.13483977 -0.17084054 97.68154449 -0.1918049 109.22827148 -0.22631836 C119.30397957 -0.2564203 129.37964252 -0.27562183 139.45539433 -0.28226548 C144.77989967 -0.28614288 150.10427598 -0.2951168 155.42873955 -0.31719017 C203.06103323 -0.50707045 203.06103323 -0.50707045 224 4 C224.14840739 12.82729328 223.56350058 21.5687663 222.93017578 30.36669922 C222.81490973 32.00383528 222.6999378 33.64099206 222.5852356 35.27816772 C222.27445453 39.69997295 221.95916262 44.12144528 221.64271402 48.54284811 C221.37808535 52.24526076 221.1155429 55.94782023 220.85294521 59.65037739 C220.23291467 68.39134278 219.60906671 77.13203008 218.98291016 85.87255859 C218.33884163 94.86416405 217.70157611 103.85623364 217.067608 112.8485564 C216.52137364 120.59270087 215.97070467 128.33652162 215.41657245 136.08010495 C215.08641688 140.69455191 214.75793631 145.30910208 214.43381119 149.9239769 C214.12864099 154.26642609 213.81790065 158.60844269 213.50303268 162.95019913 C213.3890122 164.5350073 213.27689298 166.11995371 213.16691589 167.70504761 C210.77539802 202.10197018 210.77539802 202.10197018 197.44921875 214.25 C189.78258072 219.7279168 181.19064326 224.10386362 171.65769958 224.14717102 C170.57425766 224.15432632 169.49081573 224.16148163 168.37454224 224.16885376 C166.59864212 224.17288712 166.59864212 224.17288712 164.78686523 224.17700195 C163.53598618 224.18357315 162.28510712 224.19014435 160.99632263 224.19691467 C156.85041056 224.21664865 152.70453718 224.22831643 148.55859375 224.23828125 C147.12744694 224.24233097 145.69630031 224.24644796 144.26515388 224.25063133 C137.53702126 224.26967778 130.80889955 224.28390733 124.08074516 224.2922433 C116.33524655 224.30199997 108.59003492 224.32828036 100.84463733 224.36874419 C94.84528131 224.39900129 88.84600706 224.4137214 82.84657627 224.41702431 C79.26966765 224.41936479 75.69306575 224.42819251 72.11623955 224.45348549 C68.11694469 224.48130872 64.11828227 224.47690597 60.11889648 224.4699707 C58.94913269 224.48278076 57.7793689 224.49559082 56.57415771 224.50878906 C44.22985814 224.43108959 33.91897711 220.40599689 24.83984375 212 C11.71366765 198.26045118 11.71981018 180.5198447 10.4921875 162.62890625 C10.36097235 160.77470275 10.22930127 158.92053146 10.09719849 157.06639099 C9.82321501 153.20473257 9.55291617 149.34284157 9.28564453 145.48071289 C8.94336265 140.53531219 8.59451984 135.5904029 8.24328423 130.64563084 C7.90728495 125.91105067 7.57465391 121.17623557 7.2421875 116.44140625 C7.17878048 115.54278933 7.11537346 114.6441724 7.05004501 113.71832466 C6.87117786 111.17505379 6.6947243 108.63162744 6.51904297 106.08813477 C6.46608063 105.33950165 6.41311829 104.59086853 6.35855103 103.81954956 C6.11155418 100.20592714 5.94108345 96.62231485 6 93 C8.97 93.66 11.94 94.32 15 95 C14.70754395 94.28046143 14.41508789 93.56092285 14.11376953 92.81958008 C12.76979262 89.48949211 11.44737438 86.15122209 10.125 82.8125 C9.43470703 81.11577148 9.43470703 81.11577148 8.73046875 79.38476562 C3.40589814 65.84183603 2.5564575 52.21727821 1.56738281 37.84399414 C1.37555451 35.07051717 1.17272991 32.29799742 0.96875 29.52539062 C0.84048666 27.71619244 0.71286153 25.90694888 0.5859375 24.09765625 C0.52659027 23.29199722 0.46724304 22.4863382 0.40609741 21.65626526 C0.07008677 16.6552742 -0.02666866 11.68544117 -0.01522827 6.67259216 C-0.01302969 5.42048667 -0.01083111 4.16838118 -0.0085659 2.87833309 C-0.00573915 1.92848317 -0.00291241 0.97863325 0 0 Z " fill="#94603F" transform="translate(224,272)"/>
<path d="M0 0 C22.88609569 -2.34834175 22.88609569 -2.34834175 29.09912109 1.19824219 C32.43265007 4.478858 34.23366733 8.55490761 36.02832031 12.81933594 C37.32303983 15.72497281 38.9725319 18.33034381 40.6628418 21.01904297 C47.93661485 32.67992794 54.0092974 45.22268419 59.7109375 57.71484375 C65.33449972 69.7853074 73.66880826 77.90748476 85.5625 83.75 C94.04534557 86.83467112 102.0123355 87.52032128 111 88 C110.46562666 91.93243968 109.48350983 94.14217486 106.875 97.125 C106.31554687 97.78757812 105.75609375 98.45015625 105.1796875 99.1328125 C99.94404512 103.61782515 94.4352906 104.53358115 87.8125 104.4375 C86.69657471 104.42505249 86.69657471 104.42505249 85.55810547 104.41235352 C76.1533315 104.12751395 68.97223497 101.50801006 61.3125 96.0625 C57.79842567 93.66228325 57.79842567 93.66228325 53.734375 92.9375 C45.3720714 95.3439183 37.83703259 101.80320563 31 107 C32.75414765 110.78794203 35.09390674 113.82866849 37.66015625 117.09765625 C41.59343918 122.68222998 40.55822273 130.49177975 40 137 C37.86571994 144.90204178 32.92782839 149.90233401 26 154 C21.53875667 155.60401897 17.0097969 156.5906175 12.375 157.5625 C-0.30045073 160.46416873 -11.37632244 164.16702726 -23 170 C-22.72687974 193.46479753 -21.0631814 216.0854099 -15.25 238.9375 C-15.04673096 239.81422363 -14.84346191 240.69094727 -14.6340332 241.59423828 C-13.4426823 246.08546641 -13.4426823 246.08546641 -10.15869141 249.11987305 C-8.12430415 249.85756859 -6.08554238 250.4275863 -4 251 C7.57093012 257.99320524 11.29090007 272.84320979 15.8125 284.8125 C16.59209654 286.85750716 17.37355494 288.90179691 18.15505981 290.94607544 C18.67784408 292.31417672 19.19988209 293.6825634 19.72116089 295.05123901 C21.37520828 299.38934322 23.06296707 303.71261241 24.77734375 308.02734375 C25.19717529 309.08526123 25.61700684 310.14317871 26.04956055 311.2331543 C26.83255441 313.20091008 27.61901448 315.16729121 28.40942383 317.13208008 C28.75384521 318.0011499 29.0982666 318.87021973 29.453125 319.765625 C29.75379883 320.51618164 30.05447266 321.26673828 30.36425781 322.04003906 C31 324 31 324 31 327 C24.40202652 325.80807453 18.12361572 324.18601199 11.75 322.125 C-5.58744185 316.71408841 -23.4614468 314.04513688 -41.578125 313.48242188 C-49.19834389 313.17270439 -56.33867955 312.66132045 -62 307 C-65.25085768 301.85376593 -64.64628444 295.84348847 -64 290 C-61.89716547 283.2033384 -57.77025519 277.2211934 -52 273 C-49.78515625 272.31640625 -49.78515625 272.31640625 -48 272 C-47.95875 271.21625 -47.9175 270.4325 -47.875 269.625 C-45.41300009 259.4252861 -39.46772172 254.55659778 -31 249 C-31.16604736 248.32646484 -31.33209473 247.65292969 -31.50317383 246.95898438 C-34.6801312 234.02635457 -37.76870755 221.13330909 -40 208 C-40.61746094 209.16015625 -41.23492187 210.3203125 -41.87109375 211.515625 C-46.96584095 220.96397309 -52.24186982 229.6339426 -59 238 C-59.64839844 238.85078125 -60.29679687 239.7015625 -60.96484375 240.578125 C-69.65934959 251.72578316 -79.97856488 262.14813872 -91 271 C-90.690625 271.763125 -90.38125 272.52625 -90.0625 273.3125 C-87.2558867 280.41158069 -86.70958643 288.19667579 -89.1875 295.5 C-93.27662839 301.14017709 -98.65354472 305.22846008 -104.125 309.4375 C-104.91124756 310.04585693 -105.69749512 310.65421387 -106.50756836 311.28100586 C-112.9102754 316.2125551 -119.39801591 321.02365677 -125.92626953 325.78735352 C-129.95066113 328.72921626 -133.93753972 331.70693895 -137.87109375 334.76953125 C-138.64960693 335.37466553 -139.42812012 335.9797998 -140.23022461 336.60327148 C-141.71120442 337.75928638 -143.18752485 338.92130269 -144.65844727 340.09008789 C-145.31772217 340.60434326 -145.97699707 341.11859863 -146.65625 341.6484375 C-147.23181641 342.10395996 -147.80738281 342.55948242 -148.40039062 343.02880859 C-150 344 -150 344 -153 344 C-154.66452592 339.9514658 -156.31799782 335.89863048 -157.9621582 331.84179688 C-158.52079717 330.46757389 -159.08223667 329.09448541 -159.64672852 327.72265625 C-164.834089 315.10699555 -168.57354749 303.53506605 -168.4375 289.75 C-168.42992676 288.66533447 -168.42235352 287.58066895 -168.41455078 286.46313477 C-168.18707186 275.28428939 -167.25881928 263.28448136 -159.58203125 254.48046875 C-153.11141664 248.42525162 -147.20930218 247.63202644 -138.51953125 247.73046875 C-132.75418234 248.17198826 -129.16433896 249.67868701 -125.22265625 253.90625 C-122.62999475 257.17605368 -120.80371475 259.86133093 -120 264 C-107.23454702 264.43272722 -97.85391122 253.03368055 -89.04980469 244.9362793 C-86.14201992 242.26925207 -86.14201992 242.26925207 -84 239 C-85.0621875 238.56429687 -86.124375 238.12859375 -87.21875 237.6796875 C-88.64697733 237.08084615 -90.07398358 236.4790873 -91.5 235.875 C-92.2410498 235.56167725 -92.98209961 235.24835449 -93.74560547 234.92553711 C-97.70756682 233.19343432 -100.91685885 231.52331749 -104.125 228.5625 C-109.37753462 224.31963186 -115.63923658 225.36697962 -122 226 C-122.75974121 226.07395996 -123.51948242 226.14791992 -124.30224609 226.22412109 C-142.75565256 228.17224866 -161.1932833 232.35235435 -178.48828125 239.1171875 C-181 240 -181 240 -184 240 C-183.34342246 236.13096659 -182.21586399 232.69984858 -180.77856445 229.05151367 C-180.31750809 227.87646774 -179.85645172 226.70142181 -179.38142395 225.49076843 C-178.87583077 224.21632152 -178.3697714 222.94205946 -177.86328125 221.66796875 C-177.34097506 220.34907436 -176.81869253 219.0301706 -176.2964325 217.71125793 C-175.20098719 214.94868415 -174.10164964 212.18769268 -173.00024414 209.42749023 C-171.59831447 205.91177601 -170.21163869 202.3902603 -168.82861042 198.86707592 C-167.75493374 196.13980503 -166.67027807 193.41699633 -165.5826931 190.69524574 C-165.06724229 189.40002826 -164.55575242 188.10322642 -164.04851723 186.80476952 C-160.51239967 177.76883193 -156.92091637 168.89237364 -148.375 163.5625 C-147.64023438 163.08941406 -146.90546875 162.61632812 -146.1484375 162.12890625 C-139.35377634 158.55862066 -129.53605644 158.82445861 -122.2265625 160.71875 C-120.00521555 161.65884223 -118.03449195 162.70805469 -116 164 C-114.4221875 164.99 -114.4221875 164.99 -112.8125 166 C-108.47882816 169.8602455 -106.12527286 175.70942713 -104 181 C-104 181.99 -104 182.98 -104 184 C-103.319375 184.185625 -102.63875 184.37125 -101.9375 184.5625 C-95.74751265 187.59164275 -91.24736492 192.8221278 -88.64453125 199.1796875 C-87.23870947 205.33122282 -87.72322312 211.73407886 -88 218 C-78.68928473 221.30832987 -78.68928473 221.30832987 -69 223 C-68.73445313 222.27425781 -68.46890625 221.54851562 -68.1953125 220.80078125 C-66.99637773 217.99151253 -65.58521425 215.71304895 -63.875 213.1875 C-59.27250251 206.11418806 -55.66460495 198.58620817 -52 191 C-53.04800781 191.97453125 -53.04800781 191.97453125 -54.1171875 192.96875 C-55.02726563 193.8040625 -55.93734375 194.639375 -56.875 195.5 C-57.77992188 196.3353125 -58.68484375 197.170625 -59.6171875 198.03125 C-62 200 -62 200 -64 200 C-64.09405759 192.18314277 -64.16443432 184.3664262 -64.20724869 176.54913998 C-64.22783186 172.91642241 -64.25558738 169.28410095 -64.30175781 165.65161133 C-64.60066151 141.46881507 -64.07863832 116.15727663 -53 94 C-56.83484644 95.09895588 -60.66758157 96.20510933 -64.5 97.3125 C-65.57765625 97.62123047 -66.6553125 97.92996094 -67.765625 98.24804688 C-72.43908797 99.60164133 -77.05782631 100.96407539 -81.59375 102.73046875 C-85 104 -85 104 -88 104 C-87.34342246 100.13096659 -86.21586399 96.69984858 -84.77856445 93.05151367 C-84.31750809 91.87646774 -83.85645172 90.70142181 -83.38142395 89.49076843 C-82.87583077 88.21632152 -82.3697714 86.94205946 -81.86328125 85.66796875 C-81.34097506 84.34907436 -80.81869253 83.0301706 -80.2964325 81.71125793 C-79.20098719 78.94868415 -78.10164964 76.18769268 -77.00024414 73.42749023 C-75.59831447 69.91177601 -74.21163869 66.3902603 -72.82861042 62.86707592 C-71.75493374 60.13980503 -70.67027807 57.41699633 -69.5826931 54.69524574 C-69.06724229 53.40002826 -68.55575242 52.10322642 -68.04851723 50.80476952 C-64.50121145 41.74024238 -60.91760525 32.8637254 -52.3125 27.5625 C-51.19294922 26.85287109 -51.19294922 26.85287109 -50.05078125 26.12890625 C-43.45015202 22.49541701 -33.38645025 22.89133675 -26.15625 24.71875 C-23.94995456 25.65566998 -22.0102467 26.69874354 -20 28 C-18.4221875 28.99 -18.4221875 28.99 -16.8125 30 C-12.46671433 33.85886291 -10.19383538 39.73323917 -8 45 C-8 45.66 -8 46.32 -8 47 C-7.00484375 47.02578125 -6.0096875 47.0515625 -4.984375 47.078125 C7.45298663 47.53620083 20.14103851 49.04701284 32 53 C24.8494535 38.95569458 16.16354842 26.01239464 7.31787109 13.00024414 C6.83705078 12.28989517 6.35623047 11.5795462 5.86083984 10.84767151 C4.94437641 9.49486303 4.02379056 8.14483593 3.09863281 6.79795837 C0 2.22369336 0 2.22369336 0 0 Z M8 66 C7.97421875 66.86882812 7.9484375 67.73765625 7.921875 68.6328125 C7.34189827 80.41688516 7.34189827 80.41688516 3 85 C0.25 86.875 0.25 86.875 -2 88 C-0.31029911 91.66398299 1.87300211 94.90832572 4.125 98.25 C4.84945312 99.32765625 5.57390625 100.4053125 6.3203125 101.515625 C6.87460938 102.33546875 7.42890625 103.1553125 8 104 C11.70957657 102.46704712 13.894435 100.2165048 16.625 97.3125 C24.68022745 89.11595277 34.045553 83.62717021 44 78 C43.505 76.515 43.505 76.515 43 75 C40.57641342 73.84246611 38.2706357 72.89177517 35.75 72 C35.03215332 71.73944824 34.31430664 71.47889648 33.57470703 71.21044922 C25.2310946 68.2594569 16.91470194 65.76192191 8 66 Z " fill="#6DAB57" transform="translate(208,40)"/>
<path d="M0 0 C8.67728377 5.37694934 11.12588685 12.81929802 13.5 22.4375 C18.15571068 43.00626762 13.02408164 62.28024335 4.890625 81.05078125 C3.37338755 84.13566666 3.37338755 84.13566666 3.5 86.4375 C4.49 86.40269531 5.48 86.36789063 6.5 86.33203125 C16.99030953 86.06761433 24.61738198 86.66818573 32.51107788 94.16664124 C39.03800373 101.61878158 42.27865581 112.43688124 45.8984375 121.53515625 C46.3782608 122.73184433 46.85808411 123.92853241 47.35244751 125.16148376 C48.35567025 127.66516847 49.35522379 130.17027596 50.35205078 132.67651367 C51.6293721 135.88708917 52.91611977 139.09379162 54.20554161 142.29952335 C55.44152542 145.3760686 56.66964358 148.45573213 57.8984375 151.53515625 C58.36083832 152.6850856 58.82323914 153.83501495 59.2996521 155.01979065 C59.72074249 156.08197311 60.14183289 157.14415558 60.57568359 158.23852539 C60.948414 159.17273819 61.32114441 160.10695099 61.70516968 161.06947327 C62.5 163.4375 62.5 163.4375 62.5 166.4375 C58.4292058 165.90020573 54.75585878 164.90916299 50.89501953 163.52050781 C42.60054601 160.54106797 34.19813957 158.21914886 25.625 156.1875 C24.6237207 155.94169189 23.62244141 155.69588379 22.59082031 155.44262695 C5.94378035 151.61834259 -11.02857365 151.14151593 -28.03466797 151.18212891 C-29.99830265 151.17936967 -31.96193622 151.17568419 -33.92556763 151.17115784 C-38.10719188 151.16313262 -42.28876297 151.16085495 -46.47039413 151.16310501 C-53.08545964 151.16596707 -59.7004209 151.15148422 -66.31546021 151.13412476 C-85.10921728 151.08735595 -103.90296451 151.06313072 -122.69677734 151.05664062 C-133.11200397 151.05289245 -143.52710986 151.03489784 -153.9422847 151.00154626 C-160.51730202 150.98134772 -167.09200777 150.97895225 -173.66704345 150.98982644 C-177.74708314 150.99243077 -181.82694039 150.97844609 -185.90693283 150.95974541 C-187.79756506 150.95441905 -189.68823079 150.95592777 -191.57884979 150.96478081 C-194.15976431 150.97589292 -196.73944301 150.96248279 -199.32028198 150.94302368 C-200.0673522 150.95214834 -200.81442241 150.961273 -201.58413112 150.97067416 C-206.69249711 150.89573739 -209.54828143 149.62118778 -213.5 146.4375 C-217.12833663 142.61819828 -217.81000458 139.55470994 -218 134.4375 C-217.81000458 129.32029006 -217.12833663 126.25680172 -213.5 122.4375 C-208.87649417 118.76791195 -205.86907356 117.94143046 -199.99880981 117.96562195 C-198.89702764 117.96177851 -198.89702764 117.96177851 -197.77298725 117.95785743 C-195.32236407 117.95396275 -192.87285693 117.97842143 -190.42236328 118.00268555 C-188.66108382 118.0054123 -186.89980065 118.00628047 -185.13851929 118.00543213 C-181.35051479 118.00703016 -177.56281186 118.02066613 -173.77487564 118.04334068 C-167.78204969 118.07803181 -161.78950778 118.07912792 -155.79660034 118.07441711 C-139.83290083 118.0669189 -123.86935056 118.10020682 -107.90576828 118.16084844 C-97.41527857 118.20065572 -86.92518165 118.2205758 -76.43461788 118.20247108 C-70.4803148 118.19378093 -64.5272451 118.21676821 -58.5731318 118.26349866 C-54.86438702 118.28534085 -51.15612007 118.27796053 -47.44736099 118.26248169 C-45.73169538 118.26117822 -44.01597134 118.27181594 -42.30046844 118.29548073 C-31.66440968 118.70029514 -31.66440968 118.70029514 -22.54147339 113.88606262 C-21.97861067 113.24380139 -21.41574795 112.60154016 -20.83582878 111.93981647 C-20.39500528 111.44405204 -19.95418179 110.9482876 -19.5 110.4375 C-18.84 110.4375 -18.18 110.4375 -17.5 110.4375 C-17.17 108.4575 -16.84 106.4775 -16.5 104.4375 C-38.39626018 99.98209626 -60.14475327 96.30770424 -82.5 95.4375 C-82.48259766 93.97376953 -82.48259766 93.97376953 -82.46484375 92.48046875 C-82.45582031 91.20816406 -82.44679688 89.93585938 -82.4375 88.625 C-82.42009766 86.72814453 -82.42009766 86.72814453 -82.40234375 84.79296875 C-82.33840884 81.44144763 -82.33840884 81.44144763 -83.5 78.4375 C-59.76596749 77.61908509 -36.7052404 81.85196815 -13.5 86.4375 C-13.97083008 86.09195068 -14.44166016 85.74640137 -14.92675781 85.39038086 C-16.36539159 84.33393834 -17.80339675 83.27663956 -19.2409668 82.21875 C-20.93026756 80.97737612 -22.62188625 79.73915109 -24.31567383 78.50390625 C-28.93221696 75.1238993 -33.47561541 71.68484121 -37.93359375 68.09765625 C-38.81305664 67.4022876 -39.69251953 66.70691895 -40.59863281 65.99047852 C-42.29797145 64.64289849 -43.98168964 63.27533375 -45.64746094 61.88647461 C-49.73053697 58.51472904 -49.73053697 58.51472904 -54.72167969 57.42724609 C-57.14631919 57.94376254 -57.14631919 57.94376254 -60.5 59.4375 C-61.21929687 59.69789063 -61.93859375 59.95828125 -62.6796875 60.2265625 C-70.89154667 64.27572808 -78.01125696 70.11917595 -83.5 77.4375 C-84.09167969 77.01597656 -84.68335938 76.59445313 -85.29296875 76.16015625 C-86.08316406 75.61230469 -86.87335938 75.06445312 -87.6875 74.5 C-88.46480469 73.95472656 -89.24210938 73.40945312 -90.04296875 72.84765625 C-92.57950299 71.3918711 -94.6218182 70.84136565 -97.5 70.4375 C-96.57781767 62.33958637 -89.15699241 56.58713283 -83.125 51.6875 C-70.66716152 42.4375 -70.66716152 42.4375 -65.5 42.4375 C-65.54640625 41.591875 -65.5928125 40.74625 -65.640625 39.875 C-66.05078788 26.98416667 -66.05078788 26.98416667 -61.5 21.4375 C-56.93889964 17.25266747 -52.84379425 14.29205794 -46.48828125 14.33984375 C-45.35229492 14.34467773 -45.35229492 14.34467773 -44.19335938 14.34960938 C-43.01483398 14.36217773 -43.01483398 14.36217773 -41.8125 14.375 C-40.61657227 14.38176758 -40.61657227 14.38176758 -39.39648438 14.38867188 C-37.43095743 14.4004415 -35.46546915 14.41837652 -33.5 14.4375 C-33.21382812 13.51195312 -32.92765625 12.58640625 -32.6328125 11.6328125 C-30.77861299 6.40269113 -27.74893783 2.91249645 -23.0625 0.0625 C-16.17679238 -3.04717441 -6.90794573 -3.06872204 0 0 Z " fill="#5D9D4D" transform="translate(425.5,121.5625)"/>
<path d="M0 0 C24.86266934 -0.07038919 49.72532352 -0.12313364 74.58807278 -0.15543652 C86.13483977 -0.17084054 97.68154449 -0.1918049 109.22827148 -0.22631836 C119.30397957 -0.2564203 129.37964252 -0.27562183 139.45539433 -0.28226548 C144.77989967 -0.28614288 150.10427598 -0.2951168 155.42873955 -0.31719017 C203.06103323 -0.50707045 203.06103323 -0.50707045 224 4 C224.02698189 5.62490954 224.04638757 7.24994633 224.0625 8.875 C224.07410156 9.77992188 224.08570313 10.68484375 224.09765625 11.6171875 C224 14 224 14 223 16 C221.94618716 16.00219984 221.94618716 16.00219984 220.87108517 16.00444412 C203.71630985 16.04161919 186.56174827 16.10077454 169.40713406 16.18390274 C161.11101935 16.22358322 152.81499799 16.25603119 144.51879883 16.27099609 C137.28139441 16.28406997 130.04419634 16.31117932 122.80690819 16.35461307 C118.98060639 16.37710007 115.15455786 16.39291844 111.32818413 16.39188385 C107.71402751 16.39112958 104.10042802 16.40938165 100.48641586 16.44116783 C98.5534578 16.4535212 96.62040549 16.44666299 94.68742371 16.43885803 C76.74866224 16.64855493 61.20260788 22.72003693 48 35 C36.72708515 46.71498994 30.39075193 62.40383967 30.609375 78.60546875 C30.61725037 79.65872849 30.62512573 80.71198822 30.63323975 81.79716492 C30.90123881 97.23044212 32.37865936 112.6151071 33.77099609 127.97924805 C34.17618863 132.45434021 34.55784426 136.93110167 34.93341446 141.40876484 C35.23024937 144.91098012 35.54079138 148.41188178 35.85521698 151.9125576 C36.00159601 153.56293894 36.14356804 155.21371825 36.28070831 156.86489296 C37.59280368 172.51673885 40.46806217 186.03282379 52.1875 197.25 C63.00442008 206.38874698 73.99862214 207.15508949 87.54467773 207.11352539 C89.41889656 207.11374443 89.41889656 207.11374443 91.33097839 207.1139679 C94.73957012 207.11339257 98.14810051 207.10839373 101.55668139 207.10139394 C105.12543731 207.09512245 108.69419413 207.09455361 112.26295471 207.09336853 C119.01301277 207.09026638 125.76305455 207.08206808 132.51310545 207.07201904 C140.20114827 207.06082319 147.88919188 207.05533872 155.57724082 207.05032361 C171.38483663 207.03988449 187.19241621 207.02230673 203 207 C202.04726289 208.12978268 201.09192812 209.25737512 200.13549805 210.3840332 C199.60377487 211.01219437 199.0720517 211.64035553 198.5242157 212.28755188 C192.48812034 219.06907248 182.85960156 223.28829048 173.9586792 224.36940002 C170.63031772 224.51611593 167.32369506 224.54085716 163.9921875 224.51757812 C162.74028625 224.5245874 161.48838501 224.53159668 160.19854736 224.53881836 C156.79739435 224.55330665 153.39722754 224.55005339 149.9961319 224.53730202 C146.41651707 224.52708865 142.83694091 224.5365906 139.25732422 224.54284668 C133.2489476 224.55009907 127.24076843 224.54059911 121.23242188 224.52148438 C114.31185263 224.49972009 107.39175496 224.50677319 100.47119713 224.52879 C94.50138536 224.54701314 88.53171455 224.54946876 82.56188393 224.53903532 C79.00860504 224.53283813 75.45554692 224.53185939 71.90228271 224.54518127 C67.93727666 224.55901177 63.9727877 224.53977765 60.0078125 224.51757812 C58.84904602 224.52567505 57.69027954 224.53377197 56.49639893 224.54211426 C44.19545341 224.41518121 33.88743271 220.37679122 24.83984375 212 C11.71366765 198.26045118 11.71981018 180.5198447 10.4921875 162.62890625 C10.36097235 160.77470275 10.22930127 158.92053146 10.09719849 157.06639099 C9.82321501 153.20473257 9.55291617 149.34284157 9.28564453 145.48071289 C8.94336265 140.53531219 8.59451984 135.5904029 8.24328423 130.64563084 C7.90728495 125.91105067 7.57465391 121.17623557 7.2421875 116.44140625 C7.17878048 115.54278933 7.11537346 114.6441724 7.05004501 113.71832466 C6.87117786 111.17505379 6.6947243 108.63162744 6.51904297 106.08813477 C6.46608063 105.33950165 6.41311829 104.59086853 6.35855103 103.81954956 C6.11155418 100.20592714 5.94108345 96.62231485 6 93 C8.97 93.66 11.94 94.32 15 95 C14.70754395 94.28046143 14.41508789 93.56092285 14.11376953 92.81958008 C12.76979262 89.48949211 11.44737438 86.15122209 10.125 82.8125 C9.43470703 81.11577148 9.43470703 81.11577148 8.73046875 79.38476562 C3.40589814 65.84183603 2.5564575 52.21727821 1.56738281 37.84399414 C1.37555451 35.07051717 1.17272991 32.29799742 0.96875 29.52539062 C0.84048666 27.71619244 0.71286153 25.90694888 0.5859375 24.09765625 C0.52659027 23.29199722 0.46724304 22.4863382 0.40609741 21.65626526 C0.07008677 16.6552742 -0.02666866 11.68544117 -0.01522827 6.67259216 C-0.01302969 5.42048667 -0.01083111 4.16838118 -0.0085659 2.87833309 C-0.00573915 1.92848317 -0.00291241 0.97863325 0 0 Z " fill="#825031" transform="translate(224,272)"/>
<path d="M0 0 C0.74016597 -0.0034177 1.48033195 -0.0068354 2.24292719 -0.01035666 C4.71220655 -0.01692231 7.1803882 0.00501747 9.64956665 0.0269165 C11.42382786 0.02804527 13.19809095 0.02741055 14.97235107 0.02514648 C19.78192388 0.02399955 24.59109707 0.04750554 29.40057707 0.07544231 C34.42940459 0.10045939 39.45824143 0.10279821 44.48712158 0.10754395 C54.00682206 0.1199728 63.52633864 0.15279326 73.04595816 0.1929419 C83.88504286 0.23766235 94.72413636 0.25964735 105.56329036 0.27972364 C127.85728845 0.32152592 150.15112104 0.3918763 172.44497681 0.48101807 C172.16782837 1.01211182 171.89067993 1.54320557 171.60513306 2.09039307 C171.24290649 2.79679932 170.88067993 3.50320557 170.50747681 4.23101807 C170.14782837 4.92711182 169.78817993 5.62320557 169.41763306 6.34039307 C166.72498655 12.26637815 166.48580561 18.65679177 168.56997681 24.79351807 C170.77829461 27.95877358 173.15986708 29.50995223 176.44497681 31.48101807 C176.44497681 31.81101807 176.44497681 32.14101807 176.44497681 32.48101807 C152.55801972 32.57444131 128.67109 32.64498748 104.78398705 32.68826675 C93.69289418 32.70889581 82.6019148 32.73702308 71.51089478 32.78277588 C61.84445293 32.822633 52.17809326 32.84844838 42.51157153 32.85737205 C37.39274652 32.86258867 32.27415664 32.87485696 27.15540695 32.90393829 C22.33734655 32.93108952 17.51961813 32.93946361 12.70148849 32.93344879 C10.93340247 32.93454916 9.16530533 32.94250479 7.39728546 32.95783997 C4.981735 32.97776374 2.56743531 32.97294918 0.15185547 32.96203613 C-0.89583069 32.97951318 -0.89583069 32.97951318 -1.96468222 32.9973433 C-6.93671886 32.93669266 -9.70427376 31.5511925 -13.55502319 28.48101807 C-17.18335983 24.66171635 -17.86502777 21.59822801 -18.05502319 16.48101807 C-17.86502777 11.36380813 -17.18335983 8.30031979 -13.55502319 4.48101807 C-9.04100987 0.89479151 -5.64484081 -0.09631091 0 0 Z " fill="#BB7E4E" transform="translate(225.55502319335938,239.51898193359375)"/>
<path d="M0 0 C22.88609569 -2.34834175 22.88609569 -2.34834175 29.09912109 1.19824219 C32.43265007 4.478858 34.23366733 8.55490761 36.02832031 12.81933594 C37.32303983 15.72497281 38.9725319 18.33034381 40.6628418 21.01904297 C47.93661485 32.67992794 54.0092974 45.22268419 59.7109375 57.71484375 C65.33449972 69.7853074 73.66880826 77.90748476 85.5625 83.75 C94.04534557 86.83467112 102.0123355 87.52032128 111 88 C110.46562666 91.93243968 109.48350983 94.14217486 106.875 97.125 C106.31554687 97.78757812 105.75609375 98.45015625 105.1796875 99.1328125 C99.94404512 103.61782515 94.4352906 104.53358115 87.8125 104.4375 C87.0685498 104.42920166 86.32459961 104.42090332 85.55810547 104.41235352 C76.1533315 104.12751395 68.97223497 101.50801006 61.3125 96.0625 C57.79842567 93.66228325 57.79842567 93.66228325 53.734375 92.9375 C46.18351086 95.11041054 38.17459339 100.79841177 32.703125 106.31640625 C29.62067463 108.23625612 29.1160576 108.08532258 25.70703125 107.515625 C20.39294502 106.65833705 17.25825177 108.12461326 12.6875 110.75 C11.95474854 111.15758545 11.22199707 111.5651709 10.46704102 111.98510742 C-0.25302059 118.18973138 -8.05917842 126.02318732 -14.28125 136.76171875 C-14.8484375 137.50035156 -15.415625 138.23898438 -16 139 C-20.60496974 139 -21.64111568 138.15917792 -25.25 135.5 C-26.14203125 134.8503125 -27.0340625 134.200625 -27.953125 133.53125 C-28.96632812 132.77328125 -28.96632812 132.77328125 -30 132 C-27.82821412 125.86138073 -23.91509145 121.13114259 -20 116 C-19.525625 115.35546875 -19.05125 114.7109375 -18.5625 114.046875 C-13.27416545 107.31054409 -5.64438705 101.75424342 2 98 C2.66 97.34 3.32 96.68 4 96 C8 101.75 8 101.75 8 104 C9.12592245 103.02189418 10.25065233 102.04241565 11.375 101.0625 C12.11105469 100.423125 12.84710938 99.78375 13.60546875 99.125 C15.19491592 97.71446287 16.76068844 96.27676481 18.30078125 94.8125 C25.70376497 87.83358245 33.8162511 82.4144107 43 78 C43 77.34 43 76.68 43 76 C40.75738488 75.06035679 38.5106602 74.14474495 36.25 73.25 C35.54568848 72.97051514 34.84137695 72.69103027 34.11572266 72.40307617 C29.10969781 70.52296326 24.30632314 69.47982519 19.02319336 68.70654297 C8.01466148 67.06850752 8.01466148 67.06850752 4.64453125 63.51953125 C3.1875 60.625 3.1875 60.625 2.08984375 57.69921875 C0.42341767 53.57197709 -2.51582124 51.5772147 -6 49 C-6.66 48.34 -7.32 47.68 -8 47 C5.46862081 47.348928 19.14803017 48.71601006 32 53 C24.8494535 38.95569458 16.16354842 26.01239464 7.31787109 13.00024414 C6.83705078 12.28989517 6.35623047 11.5795462 5.86083984 10.84767151 C4.94437641 9.49486303 4.02379056 8.14483593 3.09863281 6.79795837 C0 2.22369336 0 2.22369336 0 0 Z " fill="#5C9D4D" transform="translate(208,40)"/>
<path d="M0 0 C9.23402129 -0.8249684 9.23402129 -0.8249684 12.93164062 1.62890625 C15.24981881 4.07820311 16.81948866 5.75449477 16.73242188 9.23046875 C15.35591954 12.09110117 13.44958514 12.94285806 10.72070312 14.515625 C2.38902162 19.63044106 -3.34898498 25.06281735 -9.15429688 32.890625 C-9.63962891 33.54482422 -10.12496094 34.19902344 -10.625 34.87304688 C-12.86985919 37.9953546 -14.44485174 40.38515428 -15.21679688 44.203125 C-13.62189607 45.40304099 -12.0155354 46.58773818 -10.40429688 47.765625 C-9.51097656 48.42691406 -8.61765625 49.08820313 -7.69726562 49.76953125 C-6.87871094 50.24261719 -6.06015625 50.71570313 -5.21679688 51.203125 C-1.25405873 49.88221228 -0.701077 48.16040658 1.47070312 44.640625 C9.44856558 32.39823244 20.96722976 23.31927896 34.78320312 18.203125 C39.71581359 17.77420235 41.90018066 19.1125561 45.78320312 22.203125 C51.68194232 28.11587545 54.07074359 32.8782159 54.22070312 41.390625 C54.18892008 49.29593534 52.58384686 55.28213878 46.99438477 61.04858398 C40.56983161 66.41474153 34.24610753 68.06839134 26.15820312 69.765625 C15.86270474 72.13546686 6.37672875 74.70760816 -3.21679688 79.203125 C-4.38726562 79.72390625 -5.55773437 80.2446875 -6.76367188 80.78125 C-14.47200062 84.38295819 -20.92416906 88.72245976 -27.47460938 94.06640625 C-29.72899622 95.82302962 -31.66684515 96.99487685 -34.21679688 98.203125 C-34.34631324 90.86486257 -34.43224919 83.5269062 -34.49145508 76.18774414 C-34.51620231 73.7045593 -34.55000902 71.22144397 -34.59399414 68.73852539 C-34.98268819 46.18969738 -32.71405698 24.6034552 -25.21679688 3.203125 C-23.64529355 1.63162167 -21.94443211 1.87344239 -19.76367188 1.66796875 C-18.84005859 1.58023193 -17.91644531 1.49249512 -16.96484375 1.40209961 C-12.9610483 1.05290865 -8.95658583 0.71968681 -4.94921875 0.4140625 C-3.29862674 0.2866401 -1.6485967 0.15106084 0 0 Z " fill="#7DB961" transform="translate(194.216796875,127.796875)"/>
<path d="M0 0 C1.051875 0.66 2.10375 1.32 3.1875 2 C7.52117184 5.8602455 9.87472714 11.70942713 12 17 C12 17.99 12 18.98 12 20 C12.680625 20.185625 13.36125 20.37125 14.0625 20.5625 C20.35934821 23.64393636 24.78350917 28.90696224 27.33203125 35.40625 C28.8332466 41.23553067 29.65890983 47.82666604 26.7890625 53.31640625 C23.44111126 57.38663124 20.21048107 59.69700517 14.91333008 60.4230957 C13.10964966 60.54817505 13.10964966 60.54817505 11.26953125 60.67578125 C9.90774239 60.77899594 8.54600937 60.8829494 7.18432617 60.98754883 C6.47134369 61.03988678 5.75836121 61.09222473 5.02377319 61.14614868 C-17.96957217 62.87590931 -41.38808885 66.34674145 -62.859375 75.17578125 C-65 76 -65 76 -68 76 C-67.34342246 72.13096659 -66.21586399 68.69984858 -64.77856445 65.05151367 C-64.31750809 63.87646774 -63.85645172 62.70142181 -63.38142395 61.49076843 C-62.87583077 60.21632152 -62.3697714 58.94205946 -61.86328125 57.66796875 C-61.34097506 56.34907436 -60.81869253 55.0301706 -60.2964325 53.71125793 C-59.20098719 50.94868415 -58.10164964 48.18769268 -57.00024414 45.42749023 C-55.59831447 41.91177601 -54.21163869 38.3902603 -52.82861042 34.86707592 C-51.75493374 32.13980503 -50.67027807 29.41699633 -49.5826931 26.69524574 C-49.06724229 25.40002826 -48.55575242 24.10322642 -48.04851723 22.80476952 C-44.51239967 13.76883193 -40.92091637 4.89237364 -32.375 -0.4375 C-31.27285156 -1.14712891 -31.27285156 -1.14712891 -30.1484375 -1.87109375 C-21.26851868 -6.53708745 -8.27658606 -5.25580676 0 0 Z " fill="#7DB961" transform="translate(92,204)"/>
<path d="M0 0 C9.9472731 7.66613152 13.47723631 21.12461418 17.765625 32.4765625 C18.54522154 34.52156966 19.32667994 36.56585941 20.10818481 38.61013794 C20.63096908 39.97823922 21.15300709 41.3466259 21.67428589 42.71530151 C23.32833328 47.05340572 25.01609207 51.37667491 26.73046875 55.69140625 C27.36021606 57.27828247 27.36021606 57.27828247 28.00268555 58.8972168 C28.78567941 60.86497258 29.57213948 62.83135371 30.36254883 64.79614258 C30.70697021 65.6652124 31.0513916 66.53428223 31.40625 67.4296875 C31.70692383 68.18024414 32.00759766 68.93080078 32.31738281 69.70410156 C32.953125 71.6640625 32.953125 71.6640625 32.953125 74.6640625 C26.35515152 73.47213703 20.07674072 71.85007449 13.703125 69.7890625 C-3.63431685 64.37815091 -21.5083218 61.70919938 -39.625 61.14648438 C-47.24521889 60.83676689 -54.38555455 60.32538295 -60.046875 54.6640625 C-63.29773268 49.51782843 -62.69315944 43.50755097 -62.046875 37.6640625 C-59.94404047 30.8674009 -55.81713019 24.8852559 -50.046875 20.6640625 C-47.83203125 19.98046875 -47.83203125 19.98046875 -46.046875 19.6640625 C-46.005625 18.8803125 -45.964375 18.0965625 -45.921875 17.2890625 C-44.04138799 9.49847345 -39.70288333 3.21491043 -33.02734375 -1.21875 C-23.16514051 -6.78204414 -9.40676312 -6.1395286 0 0 Z " fill="#5D9D4D" transform="translate(206.046875,292.3359375)"/>
<path d="M0 0 C13.60008856 6.43127832 17.75983414 20.96224944 22.9609375 34.03515625 C23.4407608 35.23184433 23.92058411 36.42853241 24.41494751 37.66148376 C25.41817025 40.16516847 26.41772379 42.67027596 27.41455078 45.17651367 C28.6918721 48.38708917 29.97861977 51.59379162 31.26804161 54.79952335 C32.50402542 57.8760686 33.73214358 60.95573213 34.9609375 64.03515625 C35.42333832 65.1850856 35.88573914 66.33501495 36.3621521 67.51979065 C36.78324249 68.58197311 37.20433289 69.64415558 37.63818359 70.73852539 C38.010914 71.67273819 38.38364441 72.60695099 38.76766968 73.56947327 C39.5625 75.9375 39.5625 75.9375 39.5625 78.9375 C35.49295678 78.40037085 31.82051337 77.41102634 27.96142578 76.02075195 C7.54254579 68.69714321 -12.8489736 65.22211174 -34.42919922 64.05004883 C-35.55716415 63.9797068 -35.55716415 63.9797068 -36.70791626 63.90794373 C-38.75919609 63.78153661 -40.81172831 63.67594233 -42.86425781 63.57177734 C-47.77614951 62.69987965 -50.97560529 60.60103536 -54.25 56.875 C-56.98209932 52.41736427 -56.9769445 47.99576946 -56.4375 42.9375 C-54.55607225 35.27996922 -50.41819892 29.06548208 -44.4375 23.9375 C-42.1875 23.19140625 -42.1875 23.19140625 -40.4375 22.9375 C-40.334375 22.050625 -40.23125 21.16375 -40.125 20.25 C-38.63498963 13.07085912 -33.73286848 7.47222783 -27.75 3.4375 C-26.33214105 2.57117056 -24.89516349 1.73503862 -23.4375 0.9375 C-22.83808594 0.56238281 -22.23867188 0.18726563 -21.62109375 -0.19921875 C-15.64014241 -2.56378091 -6.10494411 -1.97405378 0 0 Z " fill="#7DB961" transform="translate(448.4375,209.0625)"/>
<path d="M0 0 C19.68261005 -0.45594072 38.71721851 -0.58750583 58 4 C58.92570801 4.21962402 59.85141602 4.43924805 60.80517578 4.66552734 C82.63283977 10.05851374 82.63283977 10.05851374 88.85546875 19.94921875 C93.07566994 28.10956202 94.52232586 34.98318827 92.26171875 43.91796875 C90.40466137 49.58084743 88.15108327 53.73360886 84 58 C80.77472421 56.55117408 78.36873357 54.72974631 75.6875 52.4375 C64.49571078 43.40869201 52.57812139 37.54983043 39 33 C38.81824219 33.87011719 38.81824219 33.87011719 38.6328125 34.7578125 C37.66264526 39.28028442 36.56602217 43.63750966 35 48 C35.57105469 48.13535156 36.14210938 48.27070312 36.73046875 48.41015625 C51.64830808 52.37085445 63.44150923 61.11372947 74.04296875 72.0390625 C76.71916117 74.72059662 79.56114364 77.18462242 82.43359375 79.65234375 C83.31248398 80.40849619 84.18017851 81.18017851 85 82 C85.04080783 83.99958364 85.04254356 86.00045254 85 88 C76.17947344 88.31753896 68.27357944 88.41825795 60 85 C59.20464844 84.69449219 58.40929687 84.38898438 57.58984375 84.07421875 C39.34787158 76.1240724 32.18806007 59.63841138 24.18725586 42.70751953 C18.14801903 29.98128487 11.21843526 18.06448068 3.453125 6.31689453 C0 1.0914457 0 1.0914457 0 0 Z " fill="#7DB961" transform="translate(235,40)"/>
<path d="M0 0 C0.05945801 1.20438721 0.05945801 1.20438721 0.12011719 2.43310547 C1.32799953 25.90005712 3.1015274 49.09689796 10.046875 71.68359375 C11 75 11 75 11 78 C10.10796875 78.06058594 9.2159375 78.12117188 8.296875 78.18359375 C7.12640625 78.26738281 5.9559375 78.35117187 4.75 78.4375 C3.58984375 78.51871094 2.4296875 78.59992188 1.234375 78.68359375 C-1.32567884 78.9340338 -3.53465371 79.3414807 -6 80 C-8.42621648 73.28631688 -10.10166879 66.54407504 -11.5625 59.5625 C-11.77068359 58.58990234 -11.97886719 57.61730469 -12.19335938 56.61523438 C-13.51345253 50.42031445 -14.77255446 44.2138898 -16 38 C-16.61746094 39.16015625 -17.23492187 40.3203125 -17.87109375 41.515625 C-22.96584095 50.96397309 -28.24186982 59.6339426 -35 68 C-35.97259766 69.27617187 -35.97259766 69.27617187 -36.96484375 70.578125 C-45.58195512 81.62655186 -55.86229971 92.46721912 -67 101 C-70.00568617 101.09392769 -71.19696453 99.85462142 -73.625 98.0625 C-77.94703479 95.42125651 -82.04427363 94.74433835 -87 94 C-84.31785702 91.22642033 -81.55286801 88.79329648 -78.5 86.4375 C-74.33692306 83.14302331 -70.35491286 79.70399453 -66.4375 76.125 C-65.91285156 75.64861084 -65.38820313 75.17222168 -64.84765625 74.68139648 C-62.04608915 72.14000299 -62.04608915 72.14000299 -60 69 C-61.59328125 68.34644531 -61.59328125 68.34644531 -63.21875 67.6796875 C-79.36491769 60.92477495 -79.36491769 60.92477495 -84 56 C-84 55.34 -84 54.68 -84 54 C-83.34773438 53.97421875 -82.69546875 53.9484375 -82.0234375 53.921875 C-76.21354537 53.54483185 -72.66467048 52.75449087 -68 49 C-67.01 48.34 -66.02 47.68 -65 47 C-63.125 47.609375 -63.125 47.609375 -61 48.75 C-55.81563766 51.27812398 -50.67695995 52.19355335 -45 53 C-44.60167969 51.91332031 -44.60167969 51.91332031 -44.1953125 50.8046875 C-42.99326933 47.98420713 -41.57909001 45.66924602 -39.875 43.125 C-36.52393449 37.96520038 -33.5968262 32.66392076 -30.75341797 27.21533203 C-29.84375062 25.47261555 -28.92218979 23.73612252 -28 22 C-27.56429687 21.14019531 -27.12859375 20.28039062 -26.6796875 19.39453125 C-24.37900897 16.11472674 -21.55218911 13.96395215 -18.375 11.5625 C-17.75270508 11.08385498 -17.13041016 10.60520996 -16.48925781 10.11206055 C-3.2350703 0 -3.2350703 0 0 0 Z " fill="#1D7046" transform="translate(184,210)"/>
<path d="M0 0 C8.67728377 5.37694934 11.12588685 12.81929802 13.5 22.4375 C17.48609089 40.04791071 14.65067904 58.16919296 7.5 74.4375 C4.02070861 73.82235225 1.95280643 72.49352284 -0.81640625 70.33203125 C-1.65389404 69.68500244 -2.49138184 69.03797363 -3.35424805 68.37133789 C-4.24797119 67.67129639 -5.14169434 66.97125488 -6.0625 66.25 C-7.95459277 64.78498947 -9.84784703 63.32147796 -11.7421875 61.859375 C-12.70092773 61.11880859 -13.65966797 60.37824219 -14.64746094 59.61523438 C-18.14661715 56.94384842 -21.6963351 54.34820629 -25.25952148 51.76318359 C-47.13170342 35.87973483 -47.13170342 35.87973483 -49.1796875 27.64453125 C-49.84954482 23.0290509 -49.99602594 18.92557781 -48.5 14.4375 C-43.55 14.4375 -38.6 14.4375 -33.5 14.4375 C-32.84 12.4575 -32.18 10.4775 -31.5 8.4375 C-24.4528813 -1.92590985 -11.71693398 -5.20502259 0 0 Z " fill="#7CB961" transform="translate(425.5,121.5625)"/>
<path d="M0 0 C2.55650458 2.34984104 4.26651005 4.89009189 6.125 7.8125 C12.07693047 16.4027862 21.8143861 21.79920924 32 24 C33.49524638 24.10996205 34.99418299 24.17517035 36.49316406 24.20532227 C37.37377502 24.22526749 38.25438599 24.24521271 39.16168213 24.26576233 C40.10348328 24.28247482 41.04528442 24.29918732 42.015625 24.31640625 C43.47207428 24.3475779 43.47207428 24.3475779 44.95794678 24.37937927 C48.05522685 24.44468862 51.15259068 24.50367323 54.25 24.5625 C56.35157111 24.60570292 58.4531338 24.64931778 60.5546875 24.69335938 C65.70303948 24.80035098 70.85147558 24.9016709 76 25 C73.44913674 29.55080043 71.06942554 32.39305425 66 34 C63.01443913 34.20386986 60.10006721 34.11311856 57.109375 34.0078125 C51.77624245 33.90114985 46.49024215 34.48898452 41.1875 35 C40.18968506 35.09555176 39.19187012 35.19110352 38.16381836 35.28955078 C35.77537783 35.52168818 33.3874851 35.75826191 31 36 C23.0113282 60.39164134 21.48580133 83.23986134 22.38378906 108.80957031 C22.50442931 112.49812214 22.57548187 116.18511137 22.640625 119.875 C22.6944635 120.99165039 22.748302 122.10830078 22.80377197 123.25878906 C22.90160879 130.83377942 22.90160879 130.83377942 20.31091309 134.18481445 C18.28852188 135.96686012 16.22266948 137.47943974 14 139 C12.69341537 140.1287929 11.39926628 141.27234668 10.125 142.4375 C7.24804178 145 7.24804178 145 5 145 C4.90594241 137.18314277 4.83556568 129.3664262 4.79275131 121.54913998 C4.77216814 117.91642241 4.74441262 114.28410095 4.69824219 110.65161133 C4.39933849 86.46881507 4.92136168 61.15727663 16 39 C12.16515356 40.09895588 8.33241843 41.20510933 4.5 42.3125 C2.88351563 42.7755957 2.88351563 42.7755957 1.234375 43.24804688 C-3.43908797 44.60164133 -8.05782631 45.96407539 -12.59375 47.73046875 C-16 49 -16 49 -19 49 C-18.40442245 45.66599468 -17.58752054 42.64825927 -16.34179688 39.50097656 C-16.00474731 38.64368958 -15.66769775 37.78640259 -15.32043457 36.90313721 C-14.95687866 35.99150818 -14.59332275 35.07987915 -14.21875 34.140625 C-13.84520386 33.19564148 -13.47165771 32.25065796 -13.08679199 31.27703857 C-12.29865065 29.28594248 -11.50844349 27.29566302 -10.71630859 25.30615234 C-9.49964872 22.24911735 -8.29035643 19.18924386 -7.08203125 16.12890625 C-6.31553753 14.19514067 -5.54862504 12.26154102 -4.78125 10.328125 C-4.41769409 9.40839905 -4.05413818 8.4886731 -3.67956543 7.54107666 C-3.34251587 6.69639832 -3.00546631 5.85171997 -2.65820312 4.98144531 C-2.36143677 4.23485657 -2.06467041 3.48826782 -1.75891113 2.71905518 C-1 1 -1 1 0 0 Z " fill="#5D9D4D" transform="translate(139,95)"/>
<path d="M0 0 C-0.62458384 3.50700713 -1.52857288 6.71129303 -2.77490234 10.04638672 C-3.13973724 11.02445282 -3.50457214 12.00251892 -3.88046265 13.01022339 C-5.57491342 17.46531501 -7.28730097 21.91310945 -9.01611328 26.35498047 C-9.91852967 28.6925729 -10.8066963 31.03571878 -11.68017578 33.38427734 C-12.94779027 36.78868664 -14.26156734 40.17201586 -15.5859375 43.5546875 C-15.96350189 44.59656219 -16.34106628 45.63843689 -16.73007202 46.71188354 C-20.32116237 55.63052893 -26.01595525 59.38007345 -34.65145874 63.16085815 C-40.17401038 65.13408479 -47.10292987 64.99155674 -52.625 63.1015625 C-54.8125 62 -54.8125 62 -58 60 C-58 59.34 -58 58.68 -58 58 C-56.27852222 56.62340232 -54.49622345 55.32227237 -52.6875 54.0625 C-48.07378496 50.84670321 -48.07378496 50.84670321 -44 47 C-45.40844718 43.78475695 -47.10344786 41.67816132 -49.625 39.25 C-50.25664062 38.63640625 -50.88828125 38.0228125 -51.5390625 37.390625 C-52.02117187 36.93171875 -52.50328125 36.4728125 -53 36 C-55.91997173 37.3261007 -58.04302874 38.81035562 -60.375 41 C-63.39502245 43.67431793 -66.02849953 45.03134135 -70 46 C-73 41.25 -73 41.25 -73 39 C-73.556875 38.773125 -74.11375 38.54625 -74.6875 38.3125 C-80.99871155 34.73046101 -86.03365606 27.97158306 -88 21 C-87.625 18.1875 -87.625 18.1875 -87 16 C-82.84333346 15.18457738 -78.84985305 14.87768723 -74.63330078 14.76098633 C-51.00556833 14.05106943 -26.90165415 9.51195895 -4.92578125 0.6640625 C-3 0 -3 0 0 0 Z " fill="#7CB860" transform="translate(488,16)"/>
<path d="M0 0 C5.75238959 5.77401511 9.03462441 11.86267606 10.875 19.75 C10.65454399 24.70546761 7.25891778 27.58967945 3.82324219 30.85131836 C-6.39092446 40.05141436 -18.35908979 48.27181796 -32 51 C-30.515 55.95 -30.515 55.95 -29 61 C-38.57887169 58.0066026 -47.55536525 49.16695212 -53 41 C-52.71851706 34.08490253 -50.08356659 27.56021992 -47.875 21.0625 C-47.50890625 19.92103516 -47.1428125 18.77957031 -46.765625 17.60351562 C-43.95444571 9.32774803 -40.62289174 3.19733041 -33.33984375 -1.83984375 C-21.81046367 -7.10773937 -10.75128476 -7.61248686 0 0 Z " fill="#7DB961" transform="translate(318,157)"/>
<path d="M0 0 C54.78 0 109.56 0 166 0 C164.68 2.64 163.36 5.28 162 8 C161.16053622 10.41616345 161.16053622 10.41616345 160.75 12.5 C160.37875 14.2325 160.37875 14.2325 160 16 C140.80684571 16.07009354 121.61371741 16.12298987 102.42046165 16.15543652 C93.5086171 16.17090276 84.59685209 16.19198764 75.68505859 16.22631836 C67.91717463 16.25622814 60.14934828 16.27557677 52.38140833 16.28226548 C48.26865864 16.28617507 44.15607377 16.29535806 40.04337692 16.31719017 C36.17087657 16.3375803 32.29860866 16.34382873 28.42605972 16.33932304 C27.00629157 16.34014712 25.58651549 16.34609785 24.16679382 16.35761642 C22.22464653 16.37259823 20.28237401 16.36715312 18.34017944 16.36076355 C16.71137124 16.36491162 16.71137124 16.36491162 15.04965782 16.36914349 C9.98076652 15.75558344 6.79912671 13.78136834 3.1875 10.25 C1 7 1 7 0 0 Z " fill="#CC8A58" transform="translate(232,240)"/>
<path d="M0 0 C9.66127614 7.44572034 13.26194526 20.49267717 17.4777832 31.53930664 C18.27505473 33.62624579 19.08317517 35.70875537 19.89257812 37.79101562 C24.15802837 48.8612261 24.15802837 48.8612261 24.953125 53.6640625 C24.06496094 53.42171875 23.17679687 53.179375 22.26171875 52.9296875 C10.29426362 49.75741784 -1.81803895 47.56925391 -14.046875 45.6640625 C-14.73120605 45.55731201 -15.41553711 45.45056152 -16.12060547 45.34057617 C-19.89625813 44.80867906 -23.61754991 44.58501408 -27.4296875 44.48828125 C-28.36941406 44.46443359 -29.30914062 44.44058594 -30.27734375 44.41601562 C-32.21461553 44.37287799 -34.15218941 44.34171999 -36.08984375 44.32226562 C-43.20229439 44.11192493 -46.69892729 42.89656374 -51.859375 37.9140625 C-53.62842592 34.56217655 -53.73300625 31.43048748 -54.046875 27.6640625 C-44.47576511 27.11627243 -35.5535776 27.33471888 -27.7265625 33.48828125 C-26.38184544 34.71142795 -25.06823441 35.9703971 -23.80078125 37.2734375 C-21.89753604 39.07825175 -21.89753604 39.07825175 -18.046875 38.6640625 C-15.82346119 36.92490614 -15.82346119 36.92490614 -13.796875 34.6640625 C-12.73726562 33.5503125 -12.73726562 33.5503125 -11.65625 32.4140625 C-11.12515625 31.8365625 -10.5940625 31.2590625 -10.046875 30.6640625 C-12.92470692 23.84814479 -19.4611727 19.6482194 -26.08984375 16.84765625 C-31.62627795 14.68298774 -37.16412755 12.65400259 -43.046875 11.6640625 C-40.77231858 5.0299396 -37.12149488 1.11825812 -31.046875 -2.3359375 C-21.17532657 -6.44908268 -8.94846122 -5.84040789 0 0 Z " fill="#7DB961" transform="translate(206.046875,292.3359375)"/>
<path d="M0 0 C1.07230241 2.12012304 2.11422858 4.24649325 3.11328125 6.40234375 C5.50974479 11.46848328 7.72277312 15.25742648 12 19 C15.47891629 22.2362012 17.37908981 24.55915017 19 29 C24.62775683 25.8200442 29.70024145 22.87305969 34 18 C37.45201639 19.47721422 39.64961936 21.43794001 42.25 24.125 C42.95640625 24.84945312 43.6628125 25.57390625 44.390625 26.3203125 C45.18726563 27.15175781 45.18726563 27.15175781 46 28 C43.53905873 33.72957609 38.54762306 37.77926395 33 40.4375 C32.34 40.623125 31.68 40.80875 31 41 C34.0547458 44.53707408 37.31914984 45.76535783 41.91015625 46.40625 C51.96919709 46.70540363 58.75086089 43.49942607 67 38 C65.57458512 46.43245436 61.83016893 53.29214514 55.078125 58.59375 C47.33491346 63.83351721 39.18850363 63.88921003 30 63 C23.02912612 61.16348082 17.09264307 57.405957 13.30078125 51.234375 C11.80567434 48.5159988 10.37366412 45.78142628 9 43 C8.10796875 43.75925781 7.2159375 44.51851562 6.296875 45.30078125 C5.11463432 46.30474754 3.93233982 47.30865046 2.75 48.3125 C2.16347656 48.81201172 1.57695312 49.31152344 0.97265625 49.82617188 C-1.95626566 52.31081912 -4.88855374 54.7434313 -8 57 C-8.3403125 56.52949219 -8.680625 56.05898437 -9.03125 55.57421875 C-12.89051039 50.61671139 -15.98079912 48.76424854 -22 47 C-17.28564662 40.66000753 -10.59026286 33.53008762 -3 31 C-3.28875 30.42894531 -3.5775 29.85789062 -3.875 29.26953125 C-7.11370781 22.19610342 -8.04081817 15.7391529 -7 8 C-5.53874721 4.18648663 -3.40982217 2.27321478 0 0 Z " fill="#5C9D4C" transform="translate(399,33)"/>
<path d="M0 0 C4.6353992 3.2403857 7.53833988 6.55608714 9.0234375 12.08984375 C9.7472153 18.8176874 10.1458996 25.40368914 6.0234375 31.08984375 C1.8287091 35.61029916 -2.90409695 39.27991766 -7.7890625 43.02734375 C-8.55798828 43.62224609 -9.32691406 44.21714844 -10.11914062 44.83007812 C-11.65184246 46.01355676 -13.188428 47.19202405 -14.72900391 48.36523438 C-16.21857475 49.5082203 -17.69516982 50.6683331 -19.15771484 51.84570312 C-23.81214288 55.52904772 -26.5087172 56.9541889 -32.5234375 56.5390625 C-39.02664946 55.3481877 -43.62350271 52.24337237 -47.72265625 47.10546875 C-49.85732293 43.67404193 -50.97053864 39.98156762 -51.9765625 36.08984375 C-47.199977 36.57559821 -43.41316052 37.17845476 -38.9765625 39.08984375 C-38.75742188 37.90648437 -38.53828125 36.723125 -38.3125 35.50390625 C-36.12096283 24.32505608 -33.67870174 13.89864007 -24.23046875 6.54296875 C-8.21466733 -3.78264326 -8.21466733 -3.78264326 0 0 Z " fill="#7DB961" transform="translate(110.9765625,306.91015625)"/>
<path d="M0 0 C0.48210937 0.42152344 0.96421875 0.84304687 1.4609375 1.27734375 C2.09257812 1.82519531 2.72421875 2.37304688 3.375 2.9375 C4.00148438 3.48277344 4.62796875 4.02804688 5.2734375 4.58984375 C7.97051985 6.7926644 9.65135895 7.12417336 13.05859375 7.17578125 C33.75837551 7.68756741 54.3480451 10.09112182 74.12207031 16.43261719 C75.92087378 16.97609343 77.75414393 17.40127475 79.5859375 17.8203125 C87.07934058 19.68912731 87.07934058 19.68912731 89.76953125 23.51953125 C91.06901793 26.31698529 92.07430455 29.06029147 93 32 C93.36867188 32.87785156 93.73734375 33.75570312 94.1171875 34.66015625 C95 37 95 37 95 40 C90.93045678 39.46287085 87.25801337 38.47352634 83.39892578 37.08325195 C62.98004579 29.75964321 42.5885264 26.28461174 21.00830078 25.11254883 C19.88033585 25.0422068 19.88033585 25.0422068 18.72958374 24.97044373 C16.67830391 24.84403661 14.62577169 24.73844233 12.57324219 24.63427734 C7.66135049 23.76237965 4.46189471 21.66353536 1.1875 17.9375 C-0.74533701 14.78392383 -1.13719803 12.17921713 -1.125 8.5625 C-1.12757813 7.80066406 -1.13015625 7.03882813 -1.1328125 6.25390625 C-1.00276015 4.04684141 -0.60856199 2.12030724 0 0 Z " fill="#5D9C4D" transform="translate(393,248)"/>
<path d="M0 0 C0.33 0 0.66 0 1 0 C1 3.96 1 7.92 1 12 C14.47169561 10.44083929 26.98939637 8.46710782 38.78125 1.3125 C41 0 41 0 43.0625 0 C45.92084536 1.47527502 47.20864627 3.34410746 49 6 C50.13638724 12.52587085 49.8432901 19.43893976 46.40234375 25.21875 C42.5710823 30.08519908 38.02634141 34.27353462 32 36 C28.55963851 36.33957211 25.14290542 36.38001382 21.6875 36.375 C20.71651367 36.37556396 19.74552734 36.37612793 18.74511719 36.37670898 C9.70721808 36.24064979 0.19714738 35.09857369 -8 31 C-9.52741291 27.70078812 -10.09833487 24.62855659 -10 21 C-8.54962032 17.98832925 -6.78803866 15.46624527 -4.828125 12.76171875 C-2.18825169 8.77370501 -1.05347489 4.6252564 0 0 Z " fill="#7DB961" transform="translate(343,84)"/>
<path d="M0 0 C0.57105469 0.59554687 1.14210938 1.19109375 1.73046875 1.8046875 C3.82924473 3.83482881 5.93392369 5.44351977 8.3125 7.125 C19.73650341 15.93726579 24.3409374 29.26150988 27 43 C27 44.32 27 45.64 27 47 C16.03100374 51.5870348 16.03100374 51.5870348 10 51 C6.56541468 49.31043226 3.82486548 46.99125581 0.9375 44.5 C0.18662109 43.88640625 -0.56425781 43.2728125 -1.33789062 42.640625 C-3.58627602 40.79061385 -5.7965598 38.90322729 -8 37 C-8.74950928 36.3601416 -9.49901855 35.7202832 -10.27124023 35.06103516 C-15.44003872 30.60933246 -19.17640331 27.08293149 -20 20 C-20.17446047 16.13911398 -20.23764874 12.71294622 -19 9 C-14.05 9 -9.1 9 -4 9 C-3.34 7.02 -2.68 5.04 -2 3 C-1.34 2.01 -0.68 1.02 0 0 Z " fill="#5D9D4D" transform="translate(396,127)"/>
<path d="M0 0 C0.69738281 0.00451172 1.39476562 0.00902344 2.11328125 0.01367188 C3.82555803 0.0253998 5.53779033 0.04333347 7.25 0.0625 C4.44917405 3.10339675 1.25789457 4.92706334 -2.30078125 6.9765625 C-8.5224968 12.27543986 -11.81906998 19.87406922 -14.625 27.3828125 C-14.95741699 28.24454071 -15.28983398 29.10626892 -15.63232422 29.99411011 C-16.68191517 32.7214012 -17.71637795 35.45412236 -18.75 38.1875 C-19.44167131 39.9951888 -20.13437283 41.80248376 -20.828125 43.609375 C-21.16729446 44.49446243 -21.50646393 45.37954987 -21.85591125 46.29145813 C-22.53181648 48.05161303 -23.21000623 49.81089248 -23.89054871 51.56925964 C-25.42742806 55.55014487 -26.92537292 59.53082607 -28.2980957 63.5715332 C-32.09867724 74.46535238 -32.09867724 74.46535238 -36.73046875 76.83984375 C-38.81835938 77.51367188 -38.81835938 77.51367188 -40.9375 78 C-41.64841797 78.21849609 -42.35933594 78.43699219 -43.09179688 78.66210938 C-46.04453419 79.53709739 -48.66386164 80.0625 -51.75 80.0625 C-51.09342246 76.19346659 -49.96586399 72.76234858 -48.52856445 69.11401367 C-48.06750809 67.93896774 -47.60645172 66.76392181 -47.13142395 65.55326843 C-46.62583077 64.27882152 -46.1197714 63.00455946 -45.61328125 61.73046875 C-45.09097506 60.41157436 -44.56869253 59.0926706 -44.0464325 57.77375793 C-42.95098719 55.01118415 -41.85164964 52.25019268 -40.75024414 49.48999023 C-39.34831447 45.97427601 -37.96163869 42.4527603 -36.57861042 38.92957592 C-35.50493374 36.20230503 -34.42027807 33.47949633 -33.3326931 30.75774574 C-32.81724229 29.46252826 -32.30575242 28.16572642 -31.79851723 26.86726952 C-28.26239967 17.83133193 -24.67091637 8.95487364 -16.125 3.625 C-15.02285156 2.91537109 -15.02285156 2.91537109 -13.8984375 2.19140625 C-9.3557256 -0.19558237 -5.04723935 -0.06201712 0 0 Z " fill="#5D9D4D" transform="translate(75.75,199.9375)"/>
<path d="M0 0 C19.92449254 -0.68705147 39.25748333 2.05736451 58.75 6 C60.61555542 6.37342529 60.61555542 6.37342529 62.51879883 6.75439453 C64.26519653 7.12346924 64.26519653 7.12346924 66.046875 7.5 C67.07651367 7.7165625 68.10615234 7.933125 69.16699219 8.15625 C72.1453234 9.04328143 74.41608083 10.29240771 77 12 C75.45158425 15.34708051 73.50894136 18.24667512 71.375 21.25 C70.74335938 22.14203125 70.11171875 23.0340625 69.4609375 23.953125 C68.97882813 24.62859375 68.49671875 25.3040625 68 26 C66.44785757 25.71907634 64.89579139 25.43773134 63.34375 25.15625 C62.33441406 24.97320312 61.32507813 24.79015625 60.28515625 24.6015625 C58.12528113 24.20605624 55.96638319 23.80516892 53.80859375 23.3984375 C36.22567645 20.08723257 18.87042 17.92302762 1 17 C1.01160156 16.02417969 1.02320313 15.04835937 1.03515625 14.04296875 C1.04417969 12.77066406 1.05320312 11.49835938 1.0625 10.1875 C1.07410156 8.92292969 1.08570313 7.65835938 1.09765625 6.35546875 C1.16159116 3.00394763 1.16159116 3.00394763 0 0 Z " fill="#1D7147" transform="translate(342,200)"/>
<path d="M0 0 C4.333806 0.47277884 8.53324152 1.06967323 12.78515625 2.0390625 C13.97637085 2.30904053 13.97637085 2.30904053 15.19165039 2.58447266 C15.78840576 2.72159668 16.38516113 2.8587207 17 3 C13.33912047 24.01775539 7.33783955 43.91089308 -6 61 C-7.0865217 58.83701699 -8.16071833 56.66929112 -9.21875 54.4921875 C-9.85296875 53.19667969 -9.85296875 53.19667969 -10.5 51.875 C-10.9228125 51.00617188 -11.345625 50.13734375 -11.78125 49.2421875 C-12.92436886 46.88658289 -12.92436886 46.88658289 -15 45 C-14.6487687 41.04189344 -13.12766666 38.08029381 -11.25 34.625 C-5.64759882 23.67546292 -2.48889286 11.99929649 0 0 Z " fill="#1D7147" transform="translate(335,116)"/>
<path d="M0 0 C6.05341508 3.50460873 10.65868909 9.18714962 12.5 16 C12.52461573 17.66648488 12.52763578 19.33356247 12.5 21 C1.62922677 26.78331321 -6.97158227 30.39772755 -19.5 30 C-19.64695312 28.54980469 -19.64695312 28.54980469 -19.796875 27.0703125 C-20.6180405 19.92050946 -21.57228742 13.66092674 -24.59765625 7.05078125 C-25.47949967 5.04659167 -26.03255868 3.13480933 -26.5 1 C-18.48212694 -3.58164175 -8.41456795 -3.768097 0 0 Z " fill="#7CB961" transform="translate(363.5,50)"/>
<path d="M0 0 C2.25245881 2.68841859 3.88213958 4.64641875 5 8 C5.90363281 7.97679687 6.80726563 7.95359375 7.73828125 7.9296875 C8.91777344 7.91164062 10.09726563 7.89359375 11.3125 7.875 C13.07013672 7.84019531 13.07013672 7.84019531 14.86328125 7.8046875 C18 8 18 8 21 10 C19.88882813 10.4846875 18.77765625 10.969375 17.6328125 11.46875 C0.73760126 19.00982966 -9.68622919 28.70176245 -20 44 C-23.56305823 42.71455342 -26.32844233 41.20155344 -29.3125 38.875 C-30.00988281 38.33617187 -30.70726562 37.79734375 -31.42578125 37.2421875 C-31.94527344 36.83226562 -32.46476563 36.42234375 -33 36 C-30.82821412 29.86138073 -26.91509145 25.13114259 -23 20 C-22.525625 19.35546875 -22.05125 18.7109375 -21.5625 18.046875 C-16.75081213 11.91770117 -9.67415247 6.30538707 -2.6953125 2.86328125 C-0.80970069 2.11449057 -0.80970069 2.11449057 0 0 Z " fill="#5D9D4D" transform="translate(211,136)"/>
<path d="M0 0 C3.98588051 1.82546628 6.43516885 3.83514172 8 8 C8.99385142 15.67777529 7.62024136 21.84000332 5 29 C0.01954576 29.04974332 -4.96076121 29.08588098 -9.94140625 29.10986328 C-11.63283816 29.11986984 -13.32425299 29.13347931 -15.015625 29.15087891 C-17.45837642 29.17536403 -19.90089749 29.18653672 -22.34375 29.1953125 C-23.46299866 29.21079636 -23.46299866 29.21079636 -24.6048584 29.22659302 C-29.71195154 29.22766432 -34.08611717 28.40327286 -39 27 C-35.73403923 24.32639486 -32.31685456 22.65447949 -28.5 20.875 C-17.70857606 15.64960454 -8.75636235 8.11511359 0 0 Z " fill="#7CB961" transform="translate(336,195)"/>
<path d="M0 0 C2.37169339 1.15544037 3.01393577 2.33647736 4.265625 4.640625 C6.41253315 8.34770864 8.67444322 11.0072588 11.828125 13.890625 C11.10109375 14.14714844 10.3740625 14.40367187 9.625 14.66796875 C-1.58981559 18.93822546 -10.84925162 25.33053336 -18.171875 34.890625 C-19.05939453 34.25833984 -19.05939453 34.25833984 -19.96484375 33.61328125 C-20.75503906 33.06542969 -21.54523438 32.51757812 -22.359375 31.953125 C-23.13667969 31.40785156 -23.91398437 30.86257812 -24.71484375 30.30078125 C-27.25137799 28.8449961 -29.2936932 28.29449065 -32.171875 27.890625 C-31.24969267 19.79271137 -23.82886741 14.04025783 -17.796875 9.140625 C-5.06775477 -0.25521067 -5.06775477 -0.25521067 0 0 Z " fill="#1D7047" transform="translate(360.171875,164.109375)"/>
<path d="M0 0 C9.41950933 0.24402874 18.50225042 1.07019878 27.75 2.9375 C28.5946582 3.10733398 29.43931641 3.27716797 30.30957031 3.45214844 C32.5519828 3.92627915 34.7735897 4.45668068 37 5 C37.91652344 5.17660156 38.83304688 5.35320312 39.77734375 5.53515625 C43.65507645 8.09077973 44.98675069 12.35029358 46.8125 16.5 C47.21919922 17.38042969 47.62589844 18.26085937 48.04492188 19.16796875 C51 25.65424107 51 25.65424107 51 28 C46.87405075 27.30068657 43.12384939 26.03236219 39.1875 24.625 C34.29250649 22.87534702 29.69737092 21.74996316 24.53613281 21.13696289 C15.91901664 20.06132705 15.91901664 20.06132705 12.90625 16.58203125 C11.4375 13.6875 11.4375 13.6875 10.23046875 10.734375 C8.39763379 6.66140842 5.50887882 4.59548511 2 2 C1.34 1.34 0.68 0.68 0 0 Z " fill="#1D7147" transform="translate(200,87)"/>
<path d="M0 0 C14.31488547 0.34837111 25.19266696 6.91066697 35 17 C33.52278578 20.45201639 31.56205999 22.64961936 28.875 25.25 C28.15054688 25.95640625 27.42609375 26.6628125 26.6796875 27.390625 C26.12539063 27.92171875 25.57109375 28.4528125 25 29 C22.14469278 27.70493625 20.15979431 26.31887623 17.9375 24.125 C9.34091916 16.69159289 -1.16162487 16.29253374 -12 16 C-11.09515208 14.84481082 -10.1755794 13.70114594 -9.25 12.5625 C-8.73953125 11.92441406 -8.2290625 11.28632813 -7.703125 10.62890625 C-5.80332371 8.81189446 -4.56413092 8.39576803 -2 8 C-1.7834375 6.576875 -1.7834375 6.576875 -1.5625 5.125 C-1 2 -1 2 0 0 Z " fill="#5D9D4D" transform="translate(410,224)"/>
<path d="M0 0 C1.25664978 2.90600261 2 4.79604584 2 8 C2.721875 8.20625 3.44375 8.4125 4.1875 8.625 C7.91279185 10.44625379 9.42333505 12.76942512 12 16 C10.91203125 16.00257813 9.8240625 16.00515625 8.703125 16.0078125 C-2.76390183 16.23157851 -12.19854807 18.02195763 -20.75 26.375 C-21.4925 27.24125 -22.235 28.1075 -23 29 C-26.23861303 27.55575365 -28.61969163 25.74227753 -31.25 23.375 C-31.95640625 22.74335938 -32.6628125 22.11171875 -33.390625 21.4609375 C-33.92171875 20.97882813 -34.4528125 20.49671875 -35 20 C-34.14150809 14.23400959 -29.44044294 11.29390917 -25 8 C-17.07881717 3.32721944 -9.35147774 -0.45616965 0 0 Z " fill="#5D9D4D" transform="translate(102,216)"/>
<path d="M0 0 C1.25664978 2.90600261 2 4.79604584 2 8 C2.721875 8.20625 3.44375 8.4125 4.1875 8.625 C7.91279185 10.44625379 9.42333505 12.76942512 12 16 C10.91203125 16.00257812 9.8240625 16.00515625 8.703125 16.0078125 C-2.76390183 16.23157851 -12.19854807 18.02195763 -20.75 26.375 C-21.4925 27.24125 -22.235 28.1075 -23 29 C-26.23861303 27.55575365 -28.61969163 25.74227753 -31.25 23.375 C-31.95640625 22.74335937 -32.6628125 22.11171875 -33.390625 21.4609375 C-33.92171875 20.97882813 -34.4528125 20.49671875 -35 20 C-34.14150809 14.23400959 -29.44044294 11.29390917 -25 8 C-17.07881717 3.32721944 -9.35147774 -0.45616965 0 0 Z " fill="#5D9D4D" transform="translate(198,80)"/>
<path d="M0 0 C2.18517336 1.53885448 3.46249093 3.06365385 5.00390625 5.2421875 C5.48988281 5.92023438 5.97585938 6.59828125 6.4765625 7.296875 C7.20166016 8.32167969 7.20166016 8.32167969 7.94140625 9.3671875 C8.93770385 10.70328962 9.93664226 12.0374405 10.94140625 13.3671875 C10.07 13.76808594 9.19859375 14.16898438 8.30078125 14.58203125 C0.57117901 18.27115959 -5.94988137 22.25746541 -12.53515625 27.7421875 C-15.05859375 29.3671875 -15.05859375 29.3671875 -17.08203125 29.2421875 C-17.73429687 28.9534375 -18.3865625 28.6646875 -19.05859375 28.3671875 C-22.7618719 26.77920243 -25.84378663 26.03331813 -29.87109375 25.7421875 C-30.84691406 25.66742188 -31.82273438 25.59265625 -32.828125 25.515625 C-33.56417969 25.46664062 -34.30023438 25.41765625 -35.05859375 25.3671875 C-26.80458529 15.1582823 -17.41952816 7.78657727 -6.05859375 1.3671875 C-5.35476562 0.92246094 -4.6509375 0.47773437 -3.92578125 0.01953125 C-2.05859375 -0.6328125 -2.05859375 -0.6328125 0 0 Z " fill="#1D7046" transform="translate(253.05859375,118.6328125)"/>
<path d="M0 0 C11.44870533 5.29020232 22.32676678 10.42717326 27 23 C28.63080048 28.93359453 29.83388217 34.96094284 31 41 C26.14340315 38.71655706 22.00563678 35.53170689 17.6875 32.375 C16.85798828 31.78332031 16.02847656 31.19164062 15.17382812 30.58203125 C7.76423472 25.16665359 0.52581891 19.49398431 -1 10 C-1.46376812 2.92753623 -1.46376812 2.92753623 0 0 Z " fill="#7DB961" transform="translate(377,137)"/>
<path d="M0 0 C7.23157882 0.33816735 12.91173416 2.36294546 17.921875 7.7265625 C16.4562947 11.46743597 14.62064454 12.78764936 11.234375 14.8515625 C-0.45634669 22.74659533 -4.83626893 35.5872216 -8.078125 48.7265625 C-8.408125 48.7265625 -8.738125 48.7265625 -9.078125 48.7265625 C-11.80464249 37.82049253 -10.86235771 25.19358713 -8.328125 14.3515625 C-8.17126221 13.66932617 -8.01439941 12.98708984 -7.8527832 12.28417969 C-6.62629498 7.57117075 -4.98013392 1.74117464 0 0 Z " fill="#7BB860" transform="translate(66.078125,287.2734375)"/>
<path d="M0 0 C0.5775 0.7425 1.155 1.485 1.75 2.25 C3.9115759 5.16566815 3.9115759 5.16566815 7.1875 7.125 C10 9 10 9 11 12 C8.75131288 13.9390417 6.50111139 15.87627622 4.25 17.8125 C3.61578125 18.35970703 2.9815625 18.90691406 2.328125 19.47070312 C-0.71269962 22.08391179 -3.74281371 24.6558129 -7 27 C-7.3403125 26.52949219 -7.680625 26.05898437 -8.03125 25.57421875 C-11.89051039 20.61671139 -14.98079912 18.76424854 -21 17 C-16.83151101 11.39410102 -7.2971265 0 0 0 Z " fill="#1D7046" transform="translate(398,63)"/>
<path d="M0 0 C0.66 0.33 1.32 0.66 2 1 C-0.97 3.97 -3.94 6.94 -7 10 C-7 6.04435836 -5.59478606 4.89133304 -3 2 C-2.01 1.34 -1.02 0.68 0 0 Z " fill="#72AE5E" transform="translate(172,292)"/>
</svg>
