<svg width="46" height="46" viewBox="0 0 46 46" fill="none" xmlns="http://www.w3.org/2000/svg">
<g clip-path="url(#clip0_1355_1925)">
<path d="M6.84116 6.97943C8.13513 5.68545 9.54746 4.58259 11.0424 3.66748C12.1882 4.00615 12.8113 5.47035 12.8113 5.47035C12.8113 5.47035 13.9827 8.49558 13.1854 11.2237C12.7861 11.5144 12.4073 11.8359 12.0525 12.1907C11.6978 12.5455 11.3762 12.9243 11.0855 13.3236C9.34333 13.0467 6.7198 13.0533 6.7198 13.0533C6.7198 13.0533 4.66013 11.2607 3.52939 11.1805C4.44432 9.68572 5.54719 8.2734 6.84116 6.97943Z" fill="#528FD8"/>
<path d="M11.0425 3.66638C11.2 5.89317 11.8267 8.25318 12.8909 10.597C18.0455 7.52042 31.2369 5.32488 36.0234 4.55131C28.6125 -0.745947 18.7287 -1.04178 11.0425 3.66638Z" fill="#99E6FC"/>
<path d="M9.75586 4.51904C8.31016 6.75548 7.2983 9.19038 6.72 11.7051C5.3322 12.4051 4.7362 12.699 4.7362 12.699C4.7362 12.699 4.26263 12.1905 3.52942 11.1803C4.44444 9.68538 5.5473 8.27305 6.84128 6.97908C7.75736 6.06308 8.73373 5.24472 9.75586 4.51904Z" fill="#0573CE"/>
<path d="M12.0262 12.217C12.0267 12.2168 12.0273 12.2166 12.0278 12.2163C6.66275 17.6213 26.7031 43.525 31.5737 43.9312C23.3525 47.3489 13.5277 45.7159 6.84103 39.0292C5.93982 38.128 5.13199 37.1689 4.41428 36.1653C0.205366 28.4434 4.43685 15.7202 4.43685 15.7202C4.43685 15.7202 9.98815 13.1104 12.0262 12.217Z" fill="#FFE177"/>
<path d="M6.14315 17.0723C6.20998 22.7828 8.42048 28.4729 12.7777 32.8302C13.6689 33.7214 14.6166 34.5213 15.6081 35.233C15.9518 35.6138 16.3082 35.9892 16.6775 36.3585C21.2218 40.9028 26.7031 43.5251 31.5737 43.9313C23.3525 47.3489 13.5277 45.7159 6.84103 39.0293C5.93982 38.1281 5.13199 37.169 4.41428 36.1653C2.83979 31.9106 1.29654 22.3997 1.29654 22.3997C1.29654 22.3997 2.54962 20.8046 6.14315 17.0723Z" fill="#FFD15B"/>
<path d="M12.0787 12.1646C12.0785 12.1651 12.0783 12.1657 12.078 12.1662C17.483 6.80114 43.3867 26.8415 43.7929 31.7121C47.2107 23.4909 45.5777 13.6661 38.891 6.97942C37.9898 6.07821 37.0307 5.27038 36.0271 4.55267C26.1137 0.884169 15.6028 4.12547 12.0787 12.1646Z" fill="#FD8087"/>
<path d="M12.0524 12.1906C17.449 6.79413 28.2691 8.86477 36.22 16.8156C40.7648 21.3605 43.3871 26.8425 43.793 31.7134C42.6872 34.3733 41.0542 36.8657 38.8908 39.029C36.7275 41.1923 34.235 42.8254 31.5752 43.9312C26.7043 43.5253 21.2223 40.903 16.6774 36.3582C8.72654 28.4073 6.65581 17.5871 12.0524 12.1906Z" fill="#CB97E7"/>
<path d="M41.9077 35.2968C41.0532 36.6184 40.0487 37.8713 38.8909 39.0291C36.7276 41.1925 34.2351 42.8256 31.5753 43.9313C26.7044 43.5255 21.2224 40.9032 16.6775 36.3583C16.3083 35.9891 15.9519 35.6137 15.6082 35.2329C23.4417 40.856 34.0532 40.8773 41.9077 35.2968Z" fill="#BD80E1"/>
<path d="M3.52789 11.1807C5.75468 11.3381 8.11469 11.9649 10.4585 13.029C3.581 17.1643 0.995175 26.9215 4.41281 36.1616C-0.884441 28.7507 -1.18027 18.8669 3.52789 11.1807Z" fill="#9CF8D2"/>
<path d="M3.52817 11.1807C4.568 11.2542 5.63705 11.4313 6.71973 11.7063C6.31422 13.4699 6.12213 15.2724 6.14329 17.0731C2.66546 21.9954 1.8471 29.2241 4.41309 36.1615C-0.884161 28.7507 -1.17999 18.8669 3.52817 11.1807Z" fill="#6CF5C2"/>
<path d="M8.14966 16.1007C6.71081 14.6619 7.29403 11.7458 9.45232 9.58753C11.6106 7.42924 14.5267 6.84602 15.9655 8.28487C17.4044 9.72372 16.8212 12.6398 14.6629 14.7981C12.5046 16.9564 9.58851 17.5396 8.14966 16.1007Z" fill="#DFF6FD"/>
<path d="M9.44685 9.58492C9.86599 9.16578 10.3139 8.80684 10.7738 8.50977C9.54095 10.4185 9.38657 12.5373 10.5462 13.697C11.7058 14.8566 13.8247 14.7022 15.7334 13.4693C15.4363 13.9293 15.0774 14.3772 14.6582 14.7963C12.4996 16.9549 9.58317 17.5382 8.14403 16.0991C6.70488 14.6601 7.28831 11.7435 9.44685 9.58492Z" fill="#C8EFFE"/>
</g>
<defs>
<clipPath id="clip0_1355_1925">
<rect width="45.3218" height="45.3218" fill="white" transform="matrix(-1 0 0 1 45.5273 0.34375)"/>
</clipPath>
</defs>
</svg>
