<svg width="100" height="66" viewBox="0 0 100 66" fill="none" xmlns="http://www.w3.org/2000/svg">
<circle cx="1.6851" cy="1.6851" r="1.6851" transform="matrix(-1 0 0 1 99.9919 0.804688)" fill="#71B347"/>
<circle cx="1.6851" cy="1.6851" r="1.6851" transform="matrix(-1 0 0 1 91.2297 0.804688)" fill="#71B347"/>
<circle cx="1.6851" cy="1.6851" r="1.6851" transform="matrix(-1 0 0 1 82.467 0.804688)" fill="#71B347"/>
<circle cx="1.6851" cy="1.6851" r="1.6851" transform="matrix(-1 0 0 1 73.7043 0.804688)" fill="#71B347"/>
<circle cx="1.6851" cy="1.6851" r="1.6851" transform="matrix(-1 0 0 1 64.9419 0.804688)" fill="#71B347"/>
<circle cx="1.6851" cy="1.6851" r="1.6851" transform="matrix(-1 0 0 1 56.1794 0.804688)" fill="#71B347"/>
<circle cx="1.6851" cy="1.6851" r="1.6851" transform="matrix(-1 0 0 1 47.417 0.804688)" fill="#71B347"/>
<circle cx="1.6851" cy="1.6851" r="1.6851" transform="matrix(-1 0 0 1 38.6543 0.804688)" fill="#71B347"/>
<circle cx="1.6851" cy="1.6851" r="1.6851" transform="matrix(-1 0 0 1 29.8916 0.804688)" fill="#71B347"/>
<circle cx="1.6851" cy="1.6851" r="1.6851" transform="matrix(-1 0 0 1 21.1294 0.804688)" fill="#71B347"/>
<circle cx="1.6851" cy="1.6851" r="1.6851" transform="matrix(-1 0 0 1 12.3667 0.804688)" fill="#71B347"/>
<circle cx="1.6851" cy="1.6851" r="1.6851" transform="matrix(-1 0 0 1 3.60449 0.804688)" fill="#71B347"/>
<circle cx="1.6851" cy="1.6851" r="1.6851" transform="matrix(-1 0 0 1 99.9919 9.56738)" fill="#71B347"/>
<circle cx="1.6851" cy="1.6851" r="1.6851" transform="matrix(-1 0 0 1 99.9919 18.3291)" fill="#71B347"/>
<circle cx="1.6851" cy="1.6851" r="1.6851" transform="matrix(-1 0 0 1 99.9919 27.0918)" fill="#71B347"/>
<circle cx="1.6851" cy="1.6851" r="1.6851" transform="matrix(-1 0 0 1 99.9919 35.855)" fill="#71B347"/>
<circle cx="1.6851" cy="1.6851" r="1.6851" transform="matrix(-1 0 0 1 99.9919 44.6172)" fill="#71B347"/>
<circle cx="1.6851" cy="1.6851" r="1.6851" transform="matrix(-1 0 0 1 99.9919 53.3799)" fill="#71B347"/>
<circle cx="1.6851" cy="1.6851" r="1.6851" transform="matrix(-1 0 0 1 99.9919 62.1421)" fill="#71B347"/>
<circle cx="1.6851" cy="1.6851" r="1.6851" transform="matrix(-1 0 0 1 91.2297 9.56738)" fill="#71B347"/>
<circle cx="1.6851" cy="1.6851" r="1.6851" transform="matrix(-1 0 0 1 91.2297 18.3291)" fill="#71B347"/>
<circle cx="1.6851" cy="1.6851" r="1.6851" transform="matrix(-1 0 0 1 91.2297 27.0918)" fill="#71B347"/>
<circle cx="1.6851" cy="1.6851" r="1.6851" transform="matrix(-1 0 0 1 91.2297 35.855)" fill="#71B347"/>
<circle cx="1.6851" cy="1.6851" r="1.6851" transform="matrix(-1 0 0 1 91.2297 44.6172)" fill="#71B347"/>
<circle cx="1.6851" cy="1.6851" r="1.6851" transform="matrix(-1 0 0 1 91.2297 53.3799)" fill="#71B347"/>
<circle cx="1.6851" cy="1.6851" r="1.6851" transform="matrix(-1 0 0 1 91.2297 62.1421)" fill="#71B347"/>
<circle cx="1.6851" cy="1.6851" r="1.6851" transform="matrix(-1 0 0 1 82.467 9.56738)" fill="#71B347"/>
<circle cx="1.6851" cy="1.6851" r="1.6851" transform="matrix(-1 0 0 1 82.467 18.3291)" fill="#71B347"/>
<circle cx="1.6851" cy="1.6851" r="1.6851" transform="matrix(-1 0 0 1 82.467 27.0918)" fill="#71B347"/>
<circle cx="1.6851" cy="1.6851" r="1.6851" transform="matrix(-1 0 0 1 82.467 35.855)" fill="#71B347"/>
<circle cx="1.6851" cy="1.6851" r="1.6851" transform="matrix(-1 0 0 1 82.467 44.6172)" fill="#71B347"/>
<circle cx="1.6851" cy="1.6851" r="1.6851" transform="matrix(-1 0 0 1 82.467 53.3799)" fill="#71B347"/>
<circle cx="1.6851" cy="1.6851" r="1.6851" transform="matrix(-1 0 0 1 82.467 62.1421)" fill="#71B347"/>
<circle cx="1.6851" cy="1.6851" r="1.6851" transform="matrix(-1 0 0 1 73.7043 9.56738)" fill="#71B347"/>
<circle cx="1.6851" cy="1.6851" r="1.6851" transform="matrix(-1 0 0 1 73.7043 18.3291)" fill="#71B347"/>
<circle cx="1.6851" cy="1.6851" r="1.6851" transform="matrix(-1 0 0 1 73.7043 27.0918)" fill="#71B347"/>
<circle cx="1.6851" cy="1.6851" r="1.6851" transform="matrix(-1 0 0 1 73.7043 35.855)" fill="#71B347"/>
<circle cx="1.6851" cy="1.6851" r="1.6851" transform="matrix(-1 0 0 1 73.7043 44.6172)" fill="#71B347"/>
<circle cx="1.6851" cy="1.6851" r="1.6851" transform="matrix(-1 0 0 1 73.7043 53.3799)" fill="#71B347"/>
<circle cx="1.6851" cy="1.6851" r="1.6851" transform="matrix(-1 0 0 1 73.7043 62.1421)" fill="#71B347"/>
<circle cx="1.6851" cy="1.6851" r="1.6851" transform="matrix(-1 0 0 1 64.9419 9.56738)" fill="#71B347"/>
<circle cx="1.6851" cy="1.6851" r="1.6851" transform="matrix(-1 0 0 1 64.9419 18.3291)" fill="#71B347"/>
<circle cx="1.6851" cy="1.6851" r="1.6851" transform="matrix(-1 0 0 1 64.9419 27.0918)" fill="#71B347"/>
<circle cx="1.6851" cy="1.6851" r="1.6851" transform="matrix(-1 0 0 1 64.9419 35.855)" fill="#71B347"/>
<circle cx="1.6851" cy="1.6851" r="1.6851" transform="matrix(-1 0 0 1 64.9419 44.6172)" fill="#71B347"/>
<circle cx="1.6851" cy="1.6851" r="1.6851" transform="matrix(-1 0 0 1 64.9419 53.3799)" fill="#71B347"/>
<circle cx="1.6851" cy="1.6851" r="1.6851" transform="matrix(-1 0 0 1 64.9419 62.1421)" fill="#71B347"/>
<circle cx="1.6851" cy="1.6851" r="1.6851" transform="matrix(-1 0 0 1 56.1794 9.56738)" fill="#71B347"/>
<circle cx="1.6851" cy="1.6851" r="1.6851" transform="matrix(-1 0 0 1 56.1794 18.3291)" fill="#71B347"/>
<circle cx="1.6851" cy="1.6851" r="1.6851" transform="matrix(-1 0 0 1 56.1794 27.0918)" fill="#71B347"/>
<circle cx="1.6851" cy="1.6851" r="1.6851" transform="matrix(-1 0 0 1 56.1794 35.855)" fill="#71B347"/>
<circle cx="1.6851" cy="1.6851" r="1.6851" transform="matrix(-1 0 0 1 56.1794 44.6172)" fill="#71B347"/>
<circle cx="1.6851" cy="1.6851" r="1.6851" transform="matrix(-1 0 0 1 56.1794 53.3799)" fill="#71B347"/>
<circle cx="1.6851" cy="1.6851" r="1.6851" transform="matrix(-1 0 0 1 56.1794 62.1421)" fill="#71B347"/>
<circle cx="1.6851" cy="1.6851" r="1.6851" transform="matrix(-1 0 0 1 47.417 9.56738)" fill="#71B347"/>
<circle cx="1.6851" cy="1.6851" r="1.6851" transform="matrix(-1 0 0 1 47.417 18.3291)" fill="#71B347"/>
<circle cx="1.6851" cy="1.6851" r="1.6851" transform="matrix(-1 0 0 1 47.417 27.0918)" fill="#71B347"/>
<circle cx="1.6851" cy="1.6851" r="1.6851" transform="matrix(-1 0 0 1 47.417 35.855)" fill="#71B347"/>
<circle cx="1.6851" cy="1.6851" r="1.6851" transform="matrix(-1 0 0 1 47.417 44.6172)" fill="#71B347"/>
<circle cx="1.6851" cy="1.6851" r="1.6851" transform="matrix(-1 0 0 1 47.417 53.3799)" fill="#71B347"/>
<circle cx="1.6851" cy="1.6851" r="1.6851" transform="matrix(-1 0 0 1 47.417 62.1421)" fill="#71B347"/>
<circle cx="1.6851" cy="1.6851" r="1.6851" transform="matrix(-1 0 0 1 38.6543 9.56738)" fill="#71B347"/>
<circle cx="1.6851" cy="1.6851" r="1.6851" transform="matrix(-1 0 0 1 38.6543 18.3291)" fill="#71B347"/>
<circle cx="1.6851" cy="1.6851" r="1.6851" transform="matrix(-1 0 0 1 38.6543 27.0918)" fill="#71B347"/>
<circle cx="1.6851" cy="1.6851" r="1.6851" transform="matrix(-1 0 0 1 38.6543 35.855)" fill="#71B347"/>
<circle cx="1.6851" cy="1.6851" r="1.6851" transform="matrix(-1 0 0 1 38.6543 44.6172)" fill="#71B347"/>
<circle cx="1.6851" cy="1.6851" r="1.6851" transform="matrix(-1 0 0 1 38.6543 53.3799)" fill="#71B347"/>
<circle cx="1.6851" cy="1.6851" r="1.6851" transform="matrix(-1 0 0 1 38.6543 62.1421)" fill="#71B347"/>
<circle cx="1.6851" cy="1.6851" r="1.6851" transform="matrix(-1 0 0 1 29.8916 9.56738)" fill="#71B347"/>
<circle cx="1.6851" cy="1.6851" r="1.6851" transform="matrix(-1 0 0 1 29.8916 18.3291)" fill="#71B347"/>
<circle cx="1.6851" cy="1.6851" r="1.6851" transform="matrix(-1 0 0 1 29.8916 27.0918)" fill="#71B347"/>
<circle cx="1.6851" cy="1.6851" r="1.6851" transform="matrix(-1 0 0 1 29.8916 35.855)" fill="#71B347"/>
<circle cx="1.6851" cy="1.6851" r="1.6851" transform="matrix(-1 0 0 1 29.8916 44.6172)" fill="#71B347"/>
<circle cx="1.6851" cy="1.6851" r="1.6851" transform="matrix(-1 0 0 1 29.8916 53.3799)" fill="#71B347"/>
<circle cx="1.6851" cy="1.6851" r="1.6851" transform="matrix(-1 0 0 1 29.8916 62.1421)" fill="#71B347"/>
<circle cx="1.6851" cy="1.6851" r="1.6851" transform="matrix(-1 0 0 1 21.1294 9.56738)" fill="#71B347"/>
<circle cx="1.6851" cy="1.6851" r="1.6851" transform="matrix(-1 0 0 1 21.1294 18.3291)" fill="#71B347"/>
<circle cx="1.6851" cy="1.6851" r="1.6851" transform="matrix(-1 0 0 1 21.1294 27.0918)" fill="#71B347"/>
<circle cx="1.6851" cy="1.6851" r="1.6851" transform="matrix(-1 0 0 1 21.1294 35.855)" fill="#71B347"/>
<circle cx="1.6851" cy="1.6851" r="1.6851" transform="matrix(-1 0 0 1 21.1294 44.6172)" fill="#71B347"/>
<circle cx="1.6851" cy="1.6851" r="1.6851" transform="matrix(-1 0 0 1 21.1294 53.3799)" fill="#71B347"/>
<circle cx="1.6851" cy="1.6851" r="1.6851" transform="matrix(-1 0 0 1 21.1294 62.1421)" fill="#71B347"/>
<circle cx="1.6851" cy="1.6851" r="1.6851" transform="matrix(-1 0 0 1 12.3667 9.56738)" fill="#71B347"/>
<circle cx="1.6851" cy="1.6851" r="1.6851" transform="matrix(-1 0 0 1 12.3667 18.3291)" fill="#71B347"/>
<circle cx="1.6851" cy="1.6851" r="1.6851" transform="matrix(-1 0 0 1 12.3667 27.0918)" fill="#71B347"/>
<circle cx="1.6851" cy="1.6851" r="1.6851" transform="matrix(-1 0 0 1 12.3667 35.855)" fill="#71B347"/>
<circle cx="1.6851" cy="1.6851" r="1.6851" transform="matrix(-1 0 0 1 12.3667 44.6172)" fill="#71B347"/>
<circle cx="1.6851" cy="1.6851" r="1.6851" transform="matrix(-1 0 0 1 12.3667 53.3799)" fill="#71B347"/>
<circle cx="1.6851" cy="1.6851" r="1.6851" transform="matrix(-1 0 0 1 12.3667 62.1421)" fill="#71B347"/>
<circle cx="1.6851" cy="1.6851" r="1.6851" transform="matrix(-1 0 0 1 3.60449 9.56738)" fill="#71B347"/>
<circle cx="1.6851" cy="1.6851" r="1.6851" transform="matrix(-1 0 0 1 3.60449 18.3291)" fill="#71B347"/>
<circle cx="1.6851" cy="1.6851" r="1.6851" transform="matrix(-1 0 0 1 3.60449 27.0918)" fill="#71B347"/>
<circle cx="1.6851" cy="1.6851" r="1.6851" transform="matrix(-1 0 0 1 3.60449 35.855)" fill="#71B347"/>
<circle cx="1.6851" cy="1.6851" r="1.6851" transform="matrix(-1 0 0 1 3.60449 44.6172)" fill="#71B347"/>
<circle cx="1.6851" cy="1.6851" r="1.6851" transform="matrix(-1 0 0 1 3.60449 53.3799)" fill="#71B347"/>
<circle cx="1.6851" cy="1.6851" r="1.6851" transform="matrix(-1 0 0 1 3.60449 62.1421)" fill="#71B347"/>
</svg>
