<svg width="42" height="36" viewBox="0 0 42 36" fill="none" xmlns="http://www.w3.org/2000/svg">
<path fill-rule="evenodd" clip-rule="evenodd" d="M10.2981 21.9072C4.46192 22.0443 -0.00911713 22.8198 -0.00911713 23.7559C-0.00911713 24.6921 4.46192 25.4676 10.2981 25.6046C10.4351 31.4409 11.2106 35.912 12.1468 35.912C13.0829 35.912 13.8584 31.4409 13.9955 25.6046C19.8319 25.4676 24.3032 24.6921 24.3032 23.7559C24.3032 22.8197 19.8319 22.0442 13.9955 21.9072C13.8585 16.0709 13.0829 11.5997 12.1468 11.5997C11.2106 11.5997 10.4351 16.0709 10.2981 21.9072Z" fill="#04A15B"/>
<path fill-rule="evenodd" clip-rule="evenodd" d="M32.1506 7.94527C28.0903 8.04058 24.9797 8.5801 24.9797 9.23139C24.9797 9.88268 28.0903 10.4222 32.1506 10.5175C32.2459 14.5777 32.7854 17.6882 33.4367 17.6882C34.088 17.6882 34.6275 14.5777 34.7228 10.5175C38.783 10.4222 41.8936 9.88268 41.8936 9.23139C41.8936 8.5801 38.783 8.04059 34.7228 7.94528C34.6275 3.88497 34.088 0.774365 33.4367 0.774365C32.7854 0.774365 32.2459 3.88497 32.1506 7.94527Z" fill="#F7DA5E"/>
</svg>
