<svg width="232" height="36" viewBox="0 0 232 36" fill="none" xmlns="http://www.w3.org/2000/svg">
<g clip-path="url(#clip0_2010_159)">
<path d="M224.013 13.7064V18.4502C224.013 21.9502 222.119 25.1752 219.062 26.8814C217.531 27.7377 215.881 28.8627 214.475 30.3002C213.069 28.8689 211.419 27.7377 209.887 26.8814C206.831 25.1752 204.938 21.9502 204.938 18.4502V9.0502L214.475 5.66895L222.394 8.4752" fill="#DBDBDB"/>
<path d="M214.481 30.2939C213.075 28.8627 211.425 27.7314 209.894 26.8752C206.837 25.1689 204.944 21.9439 204.944 18.4439V9.0502L214.481 5.66895V30.2939Z" fill="white"/>
<path d="M230.037 2.45635V9.2876C230.037 9.2876 227.581 10.2501 224.012 13.7064C221.669 15.9813 218.837 19.3376 215.912 24.2188L206.819 14.2626C206.819 14.2626 208.469 12.8376 210.194 11.1126C212.537 13.4564 215.944 16.7626 215.944 16.7626C215.944 16.7626 217.85 12.9438 222.394 8.4751C224.406 6.50635 226.931 4.40635 230.037 2.45635ZM202.45 8.5376C202.181 8.5376 201.962 8.75635 201.962 9.0251C201.962 9.29385 202.181 9.5126 202.45 9.5126C202.719 9.5126 202.937 9.29385 202.937 9.0251C202.937 8.75635 202.725 8.5376 202.45 8.5376ZM202.45 16.0189C202.181 16.0189 201.962 16.2376 201.962 16.5064C201.962 16.7751 202.181 16.9938 202.45 16.9938C202.719 16.9938 202.937 16.7751 202.937 16.5064C202.944 16.2376 202.725 16.0189 202.45 16.0189ZM207.325 5.48135C207.381 5.48135 207.437 5.4751 207.487 5.4501C207.744 5.35635 207.875 5.08135 207.787 4.8251C207.7 4.56885 207.419 4.4376 207.162 4.5251C206.906 4.6126 206.775 4.89385 206.862 5.1501C206.937 5.35635 207.125 5.48135 207.325 5.48135ZM221.262 5.38135C221.319 5.4001 221.369 5.4126 221.425 5.4126C221.625 5.4126 221.812 5.2876 221.887 5.0876C221.981 4.83135 221.844 4.5501 221.587 4.4626C221.331 4.36885 221.05 4.50635 220.962 4.7626C220.875 5.0126 221.006 5.2876 221.262 5.38135ZM214.375 2.98135C214.431 2.98135 214.487 2.9751 214.537 2.9501C214.794 2.8626 214.925 2.58135 214.837 2.3251C214.75 2.06885 214.469 1.9376 214.212 2.0251C213.956 2.11885 213.825 2.39385 213.912 2.6501C213.987 2.85635 214.175 2.98135 214.375 2.98135ZM208.906 28.7563C208.669 28.6251 208.369 28.7064 208.237 28.9438C208.106 29.1813 208.187 29.4813 208.425 29.6126C208.5 29.6563 208.581 29.6751 208.662 29.6751C208.831 29.6751 209 29.5876 209.087 29.4251C209.231 29.1876 209.144 28.8939 208.906 28.7563ZM226.506 15.8063C226.237 15.8063 226.019 16.0251 226.019 16.2938C226.019 16.5626 226.237 16.7814 226.506 16.7814C226.775 16.7814 226.994 16.5626 226.994 16.2938C226.994 16.0251 226.775 15.8063 226.506 15.8063ZM225.612 23.1688C225.369 23.0564 225.075 23.1626 224.962 23.4126C224.85 23.6563 224.956 23.9501 225.206 24.0626C225.275 24.0938 225.344 24.1063 225.406 24.1063C225.594 24.1063 225.769 24.0001 225.85 23.8188C225.969 23.5751 225.856 23.2813 225.612 23.1688ZM203.425 23.3688C203.181 23.4876 203.075 23.7751 203.194 24.0251C203.275 24.2001 203.456 24.3063 203.637 24.3063C203.706 24.3063 203.781 24.2938 203.85 24.2563C204.094 24.1376 204.2 23.8501 204.081 23.6063C203.962 23.3563 203.669 23.2501 203.425 23.3688ZM214.131 33.1688C213.944 33.3626 213.944 33.6751 214.137 33.8626C214.231 33.9563 214.356 34.0001 214.481 34.0001C214.606 34.0001 214.737 33.9501 214.831 33.8501C215.019 33.6563 215.019 33.3438 214.825 33.1563C214.625 32.9688 214.319 32.9751 214.131 33.1688ZM220.225 28.6563C219.994 28.7938 219.912 29.0938 220.05 29.3251C220.144 29.4813 220.306 29.5688 220.475 29.5688C220.556 29.5688 220.644 29.5501 220.725 29.5001C220.956 29.3626 221.037 29.0626 220.9 28.8313C220.762 28.6001 220.462 28.5188 220.225 28.6563Z" fill="#47B574"/>
</g>
<g clip-path="url(#clip1_2010_159)">
<path d="M8.33724 35.9212V33.5321C8.33724 32.6181 7.7848 32.0197 6.83644 32.0197C6.36226 32.0197 5.84665 32.1774 5.49216 32.697C5.21594 32.2609 4.82002 32.0197 4.22615 32.0197C3.83023 32.0197 3.43432 32.1403 3.12127 32.5764V32.0986H2.2926V35.9212H3.12127V33.8104C3.12127 33.1331 3.47575 32.813 4.02819 32.813C4.58063 32.813 4.85685 33.1702 4.85685 33.8104V35.9212H5.68552V33.8104C5.68552 33.1331 6.08143 32.813 6.59244 32.813C7.14488 32.813 7.42111 33.1702 7.42111 33.8104V35.9212H8.33724ZM20.6291 32.0986H19.2848V30.9434H18.4561V32.0986H17.7057V32.8547H18.4561V34.6083C18.4561 35.4852 18.8106 36.0001 19.759 36.0001C20.1135 36.0001 20.5094 35.8795 20.7856 35.7217L20.5462 35.0027C20.3068 35.1604 20.0306 35.2022 19.8326 35.2022C19.4367 35.2022 19.2802 34.9609 19.2802 34.5666V32.8547H20.6245V32.0986H20.6291ZM27.6635 32.015C27.1893 32.015 26.8717 32.2563 26.6737 32.5717V32.0939H25.845V35.9166H26.6737V33.764C26.6737 33.1284 26.9499 32.7666 27.4655 32.7666C27.6221 32.7666 27.82 32.8083 27.9812 32.8455L28.2205 32.0475C28.0548 32.015 27.82 32.015 27.6635 32.015ZM17.0336 32.414C16.6377 32.1357 16.0852 32.015 15.4914 32.015C14.543 32.015 13.9123 32.4929 13.9123 33.2491C13.9123 33.8846 14.3865 34.2465 15.2151 34.3625L15.6111 34.4042C16.0438 34.4831 16.2832 34.6037 16.2832 34.8032C16.2832 35.0815 15.9655 35.281 15.4131 35.281C14.8607 35.281 14.4233 35.0815 14.1471 34.8821L13.7512 35.5176C14.1839 35.8377 14.7778 35.9955 15.3717 35.9955C16.4766 35.9955 17.1119 35.4759 17.1119 34.7614C17.1119 34.0841 16.5962 33.7269 15.809 33.6063L15.4131 33.5645C15.0586 33.5228 14.7824 33.4439 14.7824 33.2073C14.7824 32.929 15.0586 32.7712 15.496 32.7712C15.9701 32.7712 16.4443 32.9707 16.6837 33.0913L17.0336 32.414ZM39.0806 32.015C38.6065 32.015 38.2888 32.2563 38.0908 32.5717V32.0939H37.2622V35.9166H38.0908V33.764C38.0908 33.1284 38.3671 32.7666 38.8827 32.7666C39.0392 32.7666 39.2372 32.8083 39.3983 32.8455L39.6377 32.0568C39.4766 32.015 39.2418 32.015 39.0806 32.015ZM28.4922 34.0099C28.4922 35.165 29.284 36.0001 30.5086 36.0001C31.061 36.0001 31.4569 35.8795 31.8529 35.564L31.4569 34.8867C31.1393 35.1279 30.8262 35.2439 30.4671 35.2439C29.795 35.2439 29.3208 34.7661 29.3208 34.0099C29.3208 33.2908 29.795 32.813 30.4671 32.7759C30.8216 32.7759 31.1393 32.8965 31.4569 33.1331L31.8529 32.4558C31.4569 32.1357 31.061 32.0197 30.5086 32.0197C29.284 32.015 28.4922 32.8547 28.4922 34.0099ZM36.1573 34.0099V32.0986H35.3286V32.5764C35.0524 32.2192 34.6565 32.0197 34.1409 32.0197C33.0728 32.0197 32.2442 32.8547 32.2442 34.0099C32.2442 35.165 33.0728 36.0001 34.1409 36.0001C34.6933 36.0001 35.0892 35.8006 35.3286 35.4434V35.9212H36.1573V34.0099ZM33.1143 34.0099C33.1143 33.3326 33.547 32.7759 34.2606 32.7759C34.9327 32.7759 35.4069 33.2955 35.4069 34.0099C35.4069 34.6872 34.9327 35.2439 34.2606 35.2439C33.5516 35.2022 33.1143 34.6826 33.1143 34.0099ZM23.1979 32.015C22.093 32.015 21.3012 32.813 21.3012 34.0053C21.3012 35.2022 22.093 35.9955 23.2394 35.9955C23.7918 35.9955 24.3442 35.8377 24.7816 35.4759L24.3857 34.8774C24.068 35.1187 23.6721 35.2764 23.2808 35.2764C22.7652 35.2764 22.2542 35.0352 22.1345 34.3625H24.9381C24.9381 34.2419 24.9381 34.163 24.9381 34.0424C24.975 32.813 24.2614 32.015 23.1979 32.015ZM23.1979 32.7341C23.7135 32.7341 24.068 33.0542 24.1463 33.648H22.1713C22.2496 33.1331 22.6041 32.7341 23.1979 32.7341ZM43.7856 34.0099V30.5862H42.9569V32.5764C42.6807 32.2192 42.2848 32.0197 41.7692 32.0197C40.7011 32.0197 39.8725 32.8547 39.8725 34.0099C39.8725 35.165 40.7011 36.0001 41.7692 36.0001C42.3216 36.0001 42.7175 35.8006 42.9569 35.4434V35.9212H43.7856V34.0099ZM40.7426 34.0099C40.7426 33.3326 41.1753 32.7759 41.8889 32.7759C42.561 32.7759 43.0352 33.2955 43.0352 34.0099C43.0352 34.6872 42.561 35.2439 41.8889 35.2439C41.1753 35.2022 40.7426 34.6826 40.7426 34.0099ZM13.0008 34.0099V32.0986H12.1721V32.5764C11.8959 32.2192 11.5 32.0197 10.9844 32.0197C9.9163 32.0197 9.08764 32.8547 9.08764 34.0099C9.08764 35.165 9.9163 36.0001 10.9844 36.0001C11.5368 36.0001 11.9327 35.8006 12.1721 35.4434V35.9212H13.0008V34.0099ZM9.92091 34.0099C9.92091 33.3326 10.3537 32.7759 11.0672 32.7759C11.7394 32.7759 12.2135 33.2955 12.2135 34.0099C12.2135 34.6872 11.7394 35.2439 11.0672 35.2439C10.3537 35.2022 9.92091 34.6826 9.92091 34.0099Z" fill="black"/>
<path d="M29.2058 3.06641H16.7574V25.6035H29.2058V3.06641Z" fill="#FF5A00"/>
<path d="M17.5861 14.3351C17.5861 9.75619 19.7222 5.69227 23 3.06649C20.5877 1.15515 17.5446 0 14.2254 0C6.36229 0 0 6.41134 0 14.3351C0 22.2588 6.36229 28.6701 14.2254 28.6701C17.5446 28.6701 20.5877 27.515 23 25.6036C19.7176 23.015 17.5861 18.9139 17.5861 14.3351Z" fill="#EB001B"/>
<path d="M46 14.3351C46 22.2588 39.6377 28.6701 31.7746 28.6701C28.4554 28.6701 25.4123 27.515 23 25.6036C26.3193 22.9732 28.4139 18.9139 28.4139 14.3351C28.4139 9.75619 26.2778 5.69227 23 3.06649C25.4077 1.15515 28.4508 0 31.77 0C39.6377 0 46 6.45309 46 14.3351Z" fill="#F79E1B"/>
</g>
<g clip-path="url(#clip2_2010_159)">
<path d="M84.8333 26.7548H80.3779L83.1646 10.2983H87.6198L84.8333 26.7548Z" fill="#00579F"/>
<path d="M100.984 10.7006C100.106 10.3676 98.7118 10 96.9883 10C92.5885 10 89.4901 12.2408 89.4711 15.4444C89.4346 17.808 91.6895 19.1208 93.3759 19.9089C95.0996 20.7142 95.6856 21.2399 95.6856 21.9577C95.668 23.0602 94.2927 23.5684 93.01 23.5684C91.2312 23.5684 90.2781 23.3064 88.8297 22.693L88.243 22.4301L87.6195 26.1242C88.6645 26.5788 90.5897 26.9823 92.5885 27C97.2634 27 100.307 24.7939 100.343 21.38C100.361 19.5066 99.1701 18.0712 96.6031 16.8982C95.0448 16.1452 94.0905 15.6375 94.0905 14.8671C94.1088 14.1667 94.8977 13.4493 96.6567 13.4493C98.1051 13.4142 99.1694 13.7467 99.9755 14.0794L100.379 14.2542L100.984 10.7006Z" fill="#00579F"/>
<path d="M106.906 20.9249C107.273 19.9795 108.685 16.3205 108.685 16.3205C108.666 16.3556 109.051 15.3576 109.271 14.745L109.582 16.1629C109.582 16.1629 110.426 20.1021 110.609 20.9249C109.913 20.9249 107.786 20.9249 106.906 20.9249ZM112.406 10.2983H108.959C107.897 10.2983 107.089 10.5957 106.631 11.6637L100.013 26.7546H104.688C104.688 26.7546 105.457 24.7234 105.623 24.286C106.136 24.286 110.683 24.286 111.343 24.286C111.471 24.8638 111.875 26.7546 111.875 26.7546H116L112.406 10.2983Z" fill="#00579F"/>
<path d="M76.6566 10.2983L72.2933 21.5201L71.8165 19.2442C71.0098 16.6181 68.4799 13.7649 65.6566 12.3462L69.6532 26.7373H74.3647L81.3678 10.2983H76.6566Z" fill="#00579F"/>
<path d="M68.2416 10.2983H61.0733L61 10.6308C66.5917 11.9965 70.295 15.2883 71.8165 19.2449L70.2582 11.6817C70.0016 10.6306 69.2132 10.333 68.2416 10.2983Z" fill="#FAA61A"/>
</g>
<path d="M131.433 25.3225H131.835L131.461 26.8854C131.406 27.1172 131.416 27.2918 131.493 27.4083C131.569 27.5249 131.712 27.5831 131.92 27.5831C132.126 27.5831 132.296 27.5249 132.428 27.4083C132.561 27.2918 132.655 27.1172 132.711 26.8854L133.085 25.3225H133.492L133.109 26.924C133.026 27.2721 132.877 27.5326 132.665 27.7053C132.452 27.8782 132.173 27.9646 131.828 27.9646C131.483 27.9646 131.246 27.8784 131.117 27.7061C130.988 27.534 130.966 27.2732 131.049 26.924L131.433 25.3225Z" fill="#696A6A"/>
<path d="M133.438 27.8965L134.079 25.2209L135.296 26.7943C135.328 26.8386 135.361 26.8861 135.394 26.9366C135.426 26.987 135.459 27.0437 135.493 27.1071L135.92 25.3228H136.297L135.657 27.9963L134.415 26.3949C134.381 26.3518 134.35 26.3061 134.322 26.258C134.292 26.2099 134.266 26.1594 134.242 26.1068L133.813 27.8965H133.438Z" fill="#696A6A"/>
<path d="M136.264 27.8962L136.88 25.3226H137.288L136.672 27.8962H136.264Z" fill="#696A6A"/>
<path d="M137.258 27.8962L137.874 25.3226H139.274L139.189 25.6776H138.197L138.043 26.3193H139.035L138.947 26.6866H137.955L137.666 27.8962H137.258Z" fill="#696A6A"/>
<path d="M139.107 27.8962L139.723 25.3226H140.131L139.515 27.8962H139.107Z" fill="#696A6A"/>
<path d="M140.101 27.8962L140.717 25.3226H142.117L142.032 25.6776H141.04L140.885 26.3228H141.878L141.79 26.6902H140.798L140.598 27.5218H141.591L141.501 27.8962H140.101Z" fill="#696A6A"/>
<path d="M142.467 27.5184H142.81C142.998 27.5184 143.143 27.5054 143.243 27.4797C143.344 27.454 143.436 27.4105 143.52 27.3496C143.635 27.2666 143.731 27.1631 143.808 27.0394C143.885 26.9158 143.943 26.7718 143.982 26.6076C144.021 26.4435 144.032 26.2999 144.015 26.1765C143.997 26.0526 143.95 25.9492 143.876 25.8659C143.819 25.8052 143.745 25.7616 143.652 25.7357C143.559 25.7101 143.408 25.6972 143.198 25.6972H143.051H142.903L142.467 27.5184ZM141.969 27.8965L142.585 25.3227H143.135C143.493 25.3227 143.74 25.341 143.877 25.3779C144.013 25.415 144.126 25.4769 144.215 25.5636C144.333 25.6773 144.408 25.8232 144.44 26.0011C144.472 26.1794 144.461 26.3827 144.406 26.6113C144.352 26.8398 144.266 27.0423 144.149 27.2186C144.032 27.3951 143.887 27.5406 143.714 27.6555C143.584 27.7422 143.444 27.804 143.296 27.8411C143.147 27.8779 142.925 27.8965 142.629 27.8965H142.519H141.969Z" fill="#696A6A"/>
<path d="M146.392 26.3987H146.496C146.722 26.3987 146.879 26.3733 146.967 26.323C147.054 26.2727 147.113 26.1836 147.144 26.0558C147.177 25.9187 147.16 25.8219 147.093 25.7658C147.025 25.7095 146.884 25.6812 146.668 25.6812H146.564L146.392 26.3987ZM146.284 26.7412L146.008 27.8965H145.625L146.242 25.3228H146.859C147.041 25.3228 147.173 25.333 147.255 25.3535C147.336 25.3739 147.403 25.4077 147.456 25.4547C147.52 25.5144 147.563 25.595 147.583 25.6963C147.603 25.7978 147.599 25.9094 147.57 26.0311C147.54 26.1531 147.491 26.2656 147.422 26.3688C147.353 26.4719 147.272 26.5528 147.179 26.6113C147.104 26.6582 147.021 26.6917 146.93 26.7114C146.838 26.7315 146.702 26.7412 146.519 26.7412H146.439H146.284Z" fill="#696A6A"/>
<path d="M148.073 26.8855H148.772L148.655 26.2982C148.65 26.2608 148.645 26.2178 148.64 26.1691C148.636 26.1204 148.633 26.0662 148.631 26.0064C148.604 26.0627 148.577 26.1152 148.55 26.1639C148.523 26.2124 148.496 26.2572 148.471 26.2982L148.073 26.8855ZM148.959 27.8962L148.833 27.2335H147.839L147.389 27.8962H146.961L148.816 25.2207L149.389 27.8962H148.959Z" fill="#696A6A"/>
<path d="M149.973 27.8962L150.255 26.7183L149.744 25.3226H150.173L150.49 26.1963C150.497 26.2187 150.506 26.2479 150.516 26.2842C150.526 26.3206 150.536 26.3597 150.545 26.402C150.571 26.361 150.597 26.322 150.623 26.2858C150.65 26.2495 150.676 26.2162 150.703 26.1857L151.449 25.3226H151.857L150.659 26.7183L150.377 27.8962H149.973Z" fill="#696A6A"/>
<path d="M153.864 26.6248C153.864 26.6049 153.87 26.55 153.881 26.4597C153.89 26.3847 153.897 26.3225 153.902 26.2732C153.878 26.3319 153.849 26.3907 153.816 26.4491C153.783 26.5077 153.745 26.5674 153.702 26.6285L152.717 27.9998L152.396 26.6004C152.383 26.5429 152.372 26.4872 152.365 26.4334C152.358 26.3795 152.353 26.3261 152.351 26.2732C152.337 26.3273 152.319 26.3837 152.298 26.443C152.276 26.5021 152.25 26.5641 152.22 26.6285L151.647 27.896H151.272L152.507 25.2131L152.859 26.8377C152.864 26.8634 152.871 26.9063 152.88 26.966C152.889 27.0258 152.9 27.0996 152.912 27.1874C152.954 27.1136 153.014 27.02 153.092 26.9063C153.113 26.8758 153.129 26.8523 153.14 26.8359L154.252 25.2131L154.216 27.896H153.837L153.864 26.6248Z" fill="#696A6A"/>
<path d="M154.542 27.8962L155.158 25.3226H156.558L156.473 25.6776H155.481L155.326 26.3228H156.318L156.231 26.6902H155.238L155.039 27.5218H156.031L155.942 27.8962H154.542Z" fill="#696A6A"/>
<path d="M156.409 27.8965L157.05 25.2209L158.267 26.7943C158.3 26.8386 158.332 26.8861 158.365 26.9366C158.397 26.987 158.43 27.0437 158.464 27.1071L158.892 25.3228H159.269L158.629 27.9963L157.386 26.3949C157.353 26.3518 157.322 26.3061 157.293 26.258C157.263 26.2099 157.237 26.1594 157.213 26.1068L156.785 27.8965H156.409Z" fill="#696A6A"/>
<path d="M160.57 25.6778L160.039 27.8965H159.631L160.162 25.6778H159.495L159.58 25.3228H161.318L161.233 25.6778H160.57Z" fill="#696A6A"/>
<path d="M160.993 27.3809L161.356 27.2264C161.359 27.3411 161.395 27.4288 161.462 27.4891C161.53 27.5496 161.628 27.5797 161.756 27.5797C161.877 27.5797 161.982 27.5451 162.07 27.4759C162.158 27.4068 162.216 27.3142 162.243 27.1982C162.28 27.0469 162.189 26.9121 161.973 26.7939C161.943 26.7763 161.92 26.7634 161.904 26.7551C161.66 26.6169 161.506 26.4917 161.441 26.3798C161.376 26.2678 161.363 26.131 161.401 25.9694C161.451 25.7596 161.562 25.5897 161.731 25.4596C161.901 25.3295 162.099 25.2643 162.324 25.2643C162.509 25.2643 162.655 25.301 162.762 25.3742C162.869 25.4477 162.93 25.5528 162.945 25.6898L162.586 25.8586C162.555 25.7778 162.514 25.7186 162.463 25.681C162.412 25.6435 162.348 25.6247 162.27 25.6247C162.161 25.6247 162.066 25.6542 161.988 25.7125C161.91 25.7713 161.858 25.8498 161.835 25.9483C161.798 26.103 161.905 26.247 162.156 26.3806C162.175 26.3911 162.191 26.3995 162.201 26.4054C162.421 26.5224 162.564 26.6371 162.63 26.749C162.696 26.8611 162.709 27.0008 162.668 27.1683C162.61 27.4122 162.489 27.6058 162.305 27.7493C162.121 27.8928 161.901 27.9646 161.647 27.9646C161.433 27.9646 161.27 27.9143 161.158 27.8134C161.045 27.7127 160.99 27.5686 160.993 27.3809Z" fill="#696A6A"/>
<path d="M164.006 27.8962L164.622 25.3226H165.029L164.413 27.8962H164.006Z" fill="#696A6A"/>
<path d="M165 27.8965L165.64 25.2209L166.857 26.7943C166.89 26.8386 166.922 26.8861 166.955 26.9366C166.987 26.987 167.02 27.0437 167.054 27.1071L167.482 25.3228H167.859L167.219 27.9963L165.976 26.3949C165.943 26.3518 165.912 26.3061 165.883 26.258C165.854 26.2099 165.827 26.1594 165.803 26.1068L165.375 27.8965H165Z" fill="#696A6A"/>
<path d="M169.16 25.6778L168.629 27.8965H168.221L168.752 25.6778H168.086L168.171 25.3228H169.908L169.823 25.6778H169.16Z" fill="#696A6A"/>
<path d="M169.604 27.8962L170.22 25.3226H171.62L171.535 25.6776H170.543L170.388 26.3228H171.38L171.292 26.6902H170.3L170.101 27.5218H171.093L171.004 27.8962H169.604Z" fill="#696A6A"/>
<path d="M172.233 26.4194H172.307C172.523 26.4194 172.672 26.3938 172.756 26.3422C172.839 26.2906 172.896 26.1993 172.927 26.0679C172.961 25.9262 172.947 25.8262 172.885 25.7683C172.823 25.71 172.689 25.6811 172.484 25.6811H172.41L172.233 26.4194ZM172.13 26.7446L171.854 27.8962H171.472L172.088 25.3226H172.657C172.824 25.3226 172.95 25.3336 173.037 25.356C173.124 25.3783 173.193 25.4151 173.246 25.4668C173.309 25.5287 173.35 25.6093 173.369 25.7077C173.387 25.806 173.382 25.9138 173.354 26.0308C173.305 26.2371 173.218 26.3986 173.093 26.5154C172.968 26.6318 172.808 26.702 172.612 26.7253L173.196 27.8962H172.735L172.176 26.7446H172.13Z" fill="#696A6A"/>
<path d="M173.437 27.8962L174.053 25.3226H175.453L175.368 25.6776H174.376L174.222 26.3193H175.215L175.127 26.6866H174.135L173.845 27.8962H173.437Z" fill="#696A6A"/>
<path d="M175.926 26.8855H176.625L176.508 26.2982C176.503 26.2608 176.498 26.2178 176.493 26.1691C176.489 26.1204 176.486 26.0662 176.484 26.0064C176.457 26.0627 176.43 26.1152 176.403 26.1639C176.376 26.2124 176.349 26.2572 176.323 26.2982L175.926 26.8855ZM176.812 27.8962L176.686 27.2335H175.692L175.242 27.8962H174.813L176.669 25.2207L177.242 27.8962H176.812Z" fill="#696A6A"/>
<path d="M179.896 25.9483C179.805 25.8476 179.701 25.772 179.585 25.7215C179.468 25.6714 179.339 25.6459 179.198 25.6459C178.924 25.6459 178.679 25.7362 178.464 25.9166C178.248 26.0972 178.107 26.3309 178.038 26.6182C177.971 26.896 178 27.1249 178.124 27.3053C178.249 27.4859 178.438 27.5763 178.693 27.5763C178.841 27.5763 178.989 27.5493 179.136 27.4953C179.283 27.4414 179.432 27.36 179.581 27.2508L179.468 27.7239C179.339 27.8047 179.205 27.8652 179.066 27.9049C178.928 27.9447 178.783 27.9646 178.632 27.9646C178.44 27.9646 178.271 27.9325 178.123 27.8679C177.976 27.8035 177.855 27.7087 177.762 27.5831C177.67 27.4602 177.61 27.3152 177.585 27.1481C177.559 26.9812 177.569 26.8032 177.614 26.6144C177.659 26.4259 177.734 26.2486 177.84 26.0828C177.945 25.9169 178.075 25.7712 178.229 25.6459C178.384 25.5193 178.55 25.4237 178.727 25.3584C178.903 25.2936 179.085 25.2609 179.273 25.2609C179.42 25.2609 179.555 25.283 179.678 25.327C179.802 25.3708 179.915 25.4372 180.02 25.5266L179.896 25.9483Z" fill="#696A6A"/>
<path d="M179.936 27.8962L180.552 25.3226H181.952L181.867 25.6776H180.875L180.72 26.3228H181.712L181.624 26.6902H180.632L180.433 27.5218H181.425L181.336 27.8962H179.936Z" fill="#696A6A"/>
<path d="M172.498 23.0798H169.695L173.593 8.99998H176.396L172.498 23.0798Z" fill="#66686C"/>
<path d="M171.043 9.44507C170.848 9.17715 170.549 9.04196 170.141 9.04196H154.727L153.963 11.7996H156.768V11.798H167.986L167.17 14.745H155.952L155.953 14.7389H153.149L150.822 23.1394H153.627L155.189 17.5011H167.799C168.193 17.5011 168.564 17.3667 168.912 17.0981C169.26 16.8292 169.489 16.4976 169.599 16.1016L171.16 10.4621C171.274 10.0529 171.235 9.71328 171.043 9.44507Z" fill="#66686C"/>
<path d="M149.189 22.2009C149.034 22.7584 148.526 23.144 147.948 23.144H133.485C133.091 23.144 132.798 23.0097 132.605 22.7414C132.413 22.4727 132.371 22.1404 132.481 21.7446L136.01 9.04107H138.816L135.664 20.3872H146.888L150.04 9.04107H152.845L149.189 22.2009Z" fill="#66686C"/>
<path d="M181.238 9.02617L184.787 16.0843L177.326 23.1406L181.238 9.02617Z" fill="#27803B"/>
<path d="M178.75 9.02617L182.297 16.0843L174.833 23.1406L178.75 9.02617Z" fill="#E9661C"/>
<defs>
<clipPath id="clip0_2010_159">
<rect width="32" height="32" fill="white" transform="translate(200 2)"/>
</clipPath>
<clipPath id="clip1_2010_159">
<rect width="46" height="36" fill="white"/>
</clipPath>
<clipPath id="clip2_2010_159">
<rect width="55" height="17" fill="white" transform="translate(61 10)"/>
</clipPath>
</defs>
</svg>
