<?xml version="1.0" encoding="utf-8"?>
<!-- Generator: Adobe Illustrator 24.1.2, SVG Export Plug-In . SVG Version: 6.00 Build 0)  -->
<svg version="1.1" id="Layer_1" xmlns="http://www.w3.org/2000/svg" xmlns:xlink="http://www.w3.org/1999/xlink" x="0px" y="0px"
	 viewBox="0 0 40.7 22.4" style="enable-background:new 0 0 40.7 22.4;" xml:space="preserve">
<style type="text/css">
	.st0{fill:#70B346;}
	.st1{fill:#588157;}
	.st2{fill:#E2805D;}
</style>
<path class="st0" d="M5.7,1.5H5.5C4.9,1.3,4.3,1.2,3.6,1.2c-0.4,0-0.7,0-1,0.1C2.2,1.4,1.8,1.5,1.4,1.6c0,0.2,0,0.4,0,0.6
	c0,0.5,0,1.3-0.1,2.2l2.6-0.2c0.8-0.1,1.2-0.1,1.4-0.1s0.3,0.1,0.4,0.2s0.2,0.3,0.2,0.4c0,0.3-0.2,0.6-0.5,0.6c0,0,0,0-0.1,0
	L3.9,5.4L1.2,5.6c0,0.3,0,0.5,0,0.8s0,0.5,0,0.7c-0.1,0.5,0,1,0.2,1.5c0.1,0.1,0.4,0.2,0.9,0.2h1.1h1.1c0.1,0,0.2,0,0.4,0h0.3
	c0.3,0,0.6,0.2,0.6,0.5v0.1c0,0.3-0.2,0.6-0.5,0.6l0,0c-0.8,0.1-1.6,0.1-2.4,0.1C2.1,10.2,1.3,10,0.6,9.6C0.1,8.9-0.1,8.1,0,7.2
	C0,7,0,6.7,0,6.4s0-0.6,0-1c0.1-0.1,0-0.2,0-0.3s0-0.3,0.1-0.4c0.1-1.1,0.1-2,0.1-2.5c0-0.2,0-0.4-0.1-0.6c0-0.3,0-0.5,0-0.6
	c0-0.5,0.2-0.7,0.6-0.7c0.2,0,0.3,0.1,0.4,0.2C1.5,0.4,2,0.3,2.4,0.2s0.8-0.1,1.2-0.1c0.8,0,1.5,0.1,2.3,0.3C6.2,0.5,6.4,0.8,6.4,1
	S6.3,1.3,6.3,1.4C6.1,1.5,5.9,1.6,5.7,1.5z"/>
<path class="st0" d="M10.1,9.8c-0.7,0-1.5-0.2-2-0.7C7.6,8.5,7.3,7.8,7.3,7c0-0.9,0.3-1.7,0.8-2.5c0.4-0.8,1.1-1.3,2-1.4
	c0.4,0,0.9,0.1,1.3,0.3C12,3.7,12.3,4,12.3,4.3c0,0.1,0,0.3-0.1,0.4c-0.2,0.2-0.5,0.2-0.7,0.1l-0.2-0.2c-0.3-0.2-0.7-0.3-1.1-0.3
	C9.8,4.3,9.4,4.7,9,5.4C8.6,5.9,8.4,6.5,8.4,7.1c0,0.5,0.2,0.9,0.5,1.2c0.4,0.3,0.8,0.4,1.3,0.4c0.3,0,0.5-0.1,0.8-0.2l0.7-0.4
	C11.8,8.1,11.9,8,12,8s0.3,0.1,0.4,0.2c0.1,0.1,0.2,0.3,0.2,0.4c0,0.3-0.3,0.6-0.9,0.8C11.1,9.6,10.6,9.8,10.1,9.8z"/>
<path class="st0" d="M15.9,9.7c-0.6,0-1.3-0.3-1.7-0.7c-0.5-0.6-0.8-1.4-0.8-2.2s0.2-1.6,0.7-2.3c0.5-0.8,1.4-1.2,2.3-1.2
	c0.7,0,1.4,0.4,1.8,1.1c0.3,0.6,0.5,1.4,0.5,2.1c0,0.8-0.2,1.6-0.7,2.2C17.4,9.4,16.6,9.8,15.9,9.7z M16.2,4.5
	c-0.6,0-1.1,0.3-1.4,0.8c-0.3,0.5-0.4,1-0.4,1.5s0.1,1,0.5,1.3c0.2,0.3,0.6,0.4,0.9,0.4c0.4,0,0.8-0.2,1-0.5
	c0.3-0.4,0.5-0.8,0.5-1.3C17.5,5.3,17.1,4.5,16.2,4.5L16.2,4.5z"/>
<path class="st1" d="M5.7,13.9H5.5c-0.6-0.2-1.3-0.3-1.9-0.3c-0.4,0-0.7,0-1,0.1c-0.4,0.1-0.8,0.2-1.2,0.3c0,0.2,0,0.4,0,0.6
	c0,0.5,0,1.3-0.1,2.2l2.6-0.2c0.8-0.1,1.2-0.1,1.4-0.1c0.2,0,0.3,0.1,0.4,0.2s0.2,0.3,0.2,0.4c0,0.3-0.2,0.6-0.5,0.6c0,0,0,0-0.1,0
	l-1.4,0.1L1.2,18c0,0.3,0,0.5,0,0.8s0,0.5,0,0.7c-0.1,0.5,0,1,0.2,1.5c0.3,0.1,0.6,0.2,0.9,0.2h1.1c0.5,0,0.9,0,1.1,0
	c0.1,0,0.2,0,0.4,0c0.1,0,0.2,0,0.3,0c0.3,0,0.6,0.2,0.6,0.5v0.1c0,0.3-0.2,0.6-0.5,0.6l0,0c-0.8,0.1-1.6,0.1-2.4,0.1
	c-0.8,0.1-1.6-0.1-2.3-0.5c-0.5-0.7-0.7-1.6-0.6-2.4c0-0.3,0-0.5,0-0.8s0-0.6,0-1c0-0.1-0.1-0.2-0.1-0.3c0-0.1,0-0.3,0.1-0.4
	c0.1-1.1,0.1-2,0.1-2.5c0-0.2,0-0.4-0.1-0.6c0-0.3,0-0.5,0-0.6c0-0.5,0.2-0.7,0.6-0.7c0.2,0,0.3,0.1,0.4,0.2
	c0.4-0.1,0.9-0.2,1.3-0.3s0.8-0.1,1.2-0.1c0.8,0,1.5,0.1,2.3,0.3c0.2,0.1,0.4,0.3,0.4,0.6c0,0.2-0.1,0.3-0.1,0.4
	C6.1,13.9,5.9,13.9,5.7,13.9z"/>
<path class="st1" d="M12,22.2c-0.3,0-0.5-0.2-0.6-0.5c0,0,0,0,0-0.1l-0.2-1.3c0-0.4-0.1-0.9-0.1-1.3c0-0.1,0-0.3,0-0.5s0-0.5,0-0.6
	c0-0.8-0.1-1.3-0.5-1.3c-0.5,0-1,0.3-1.3,0.8c-0.4,0.5-0.7,1.2-0.8,1.8c0,0.2,0,0.3-0.1,0.6c0,0.2,0,0.4,0,0.6c0,0.1,0,0.3,0,0.5
	s0,0.3,0,0.5s0,0.3-0.2,0.4C8.3,22,8.1,22.1,8,22.1c-0.2,0-0.3-0.1-0.4-0.2s-0.2-0.3-0.2-0.4c0-0.2,0-0.3,0-0.5s0-0.4,0-0.5
	c0-0.4,0-1,0.1-1.7s0.1-1.3,0.1-1.7c0-0.1,0-0.3,0-0.5s0-0.4,0-0.6s0.1-0.3,0.2-0.4c0.1-0.1,0.3-0.2,0.4-0.2c0.4,0,0.6,0.3,0.6,0.8
	v0.7c0.4-0.7,1.2-1.2,2-1.3c0.6,0,1.1,0.3,1.3,0.8c0.2,0.5,0.3,1.1,0.3,1.6v1.1c0,0.4,0.1,0.8,0.1,1.3c0.1,0.4,0.1,0.8,0.1,1.3
	c0,0.2-0.1,0.3-0.2,0.4C12.3,22.1,12.2,22.2,12,22.2z"/>
<path class="st1" d="M16.4,22.1c-0.7,0-1.5-0.2-2-0.7c-0.6-0.5-0.9-1.2-0.9-2c0-0.9,0.3-1.7,0.8-2.5c0.4-0.8,1.1-1.3,2-1.4
	c0.4,0,0.9,0.1,1.3,0.3c0.6,0.2,0.9,0.5,0.9,0.8c0,0.1-0.1,0.3-0.1,0.4c-0.1,0.1-0.2,0.2-0.4,0.2c-0.1,0-0.2,0-0.3-0.1l-0.2-0.2
	c-0.3-0.2-0.7-0.3-1.1-0.3s-0.8,0.4-1.2,1.1c-0.3,0.5-0.5,1.1-0.5,1.7c0,0.5,0.2,0.9,0.5,1.2c0.4,0.3,0.8,0.4,1.2,0.4
	c0.3,0,0.5-0.1,0.8-0.2l0.7-0.4c0.1,0,0.2-0.1,0.3-0.1c0.1,0,0.3,0.1,0.4,0.2s0.2,0.3,0.2,0.4c0,0.3-0.3,0.6-0.9,0.8
	C17.3,22,16.8,22.1,16.4,22.1z"/>
<path class="st1" d="M21.4,17.2v2.9c0,0.3,0,0.8,0,1.4c0,0.4-0.2,0.6-0.6,0.6s-0.6-0.2-0.6-0.6s0-1.2,0.1-2.1s0.1-1.7,0.1-2.1
	c0-0.6,0-1.3,0-2.1s0-1.5,0-2.1c0-0.3,0.2-0.6,0.5-0.7c0.3,0,0.6,0.2,0.7,0.5c0,0.1,0,0.1,0,0.2c0,0.6,0,1.3,0,2.1
	S21.4,16.5,21.4,17.2z"/>
<path class="st1" d="M27.8,22.2c-0.2,0-0.3-0.1-0.4-0.3c-0.1-0.1-0.3-0.3-0.4-0.4c-0.3,0.2-0.7,0.3-1,0.5c-0.2,0.1-0.5,0.1-0.7,0.1
	c-0.7,0.1-1.5-0.2-2-0.8c-0.4-0.7-0.6-1.4-0.6-2.2c0-0.9,0.4-1.8,1-2.4s1.4-1,2.3-1c0.4,0,0.8,0.1,1.1,0.3c0.5,0.2,0.8,0.5,0.8,0.8
	c0,0.1,0,0.2-0.1,0.3c-0.1,0.2-0.1,0.5-0.1,0.7c0,0.3,0,0.8,0,1.3c0,0.4,0,0.8,0.1,1.1c0.1,0.3,0.2,0.7,0.4,1c0,0.1,0.1,0.2,0.1,0.3
	v0.1c0,0.1-0.1,0.3-0.2,0.4C28.1,22.1,28,22.2,27.8,22.2z M26.6,18.1c0-0.2,0-0.4,0-0.5s0.1-0.4,0.1-0.6c-0.1-0.1-0.2-0.1-0.4-0.2
	c-0.1,0-0.2-0.1-0.3-0.1c-0.6,0-1.2,0.3-1.6,0.8s-0.7,1.1-0.7,1.7c0,0.5,0.1,1,0.3,1.4c0.2,0.3,0.6,0.5,1,0.5c0.3,0,0.7-0.1,1-0.2
	c0.2-0.1,0.4-0.3,0.6-0.5C26.7,19.6,26.6,18.8,26.6,18.1z"/>
<path class="st2" d="M32.1,21.5c0,0.3-0.2,0.5-0.4,0.5h-0.1c-0.3,0-0.6-0.2-0.6-0.5l-1-2.4l-1-2.7c0-0.1-0.1-0.2-0.1-0.3
	c0-0.2,0.1-0.3,0.2-0.4c0.1-0.1,0.3-0.2,0.4-0.2c0.2,0,0.4,0.1,0.5,0.4l1.5,4.1c0.3-0.6,0.7-1.5,1.1-2.7c0.1-0.3,0.3-0.8,0.5-1.3
	c0.1-0.2,0.3-0.4,0.5-0.4s0.3,0.1,0.4,0.2c0.1,0.1,0.2,0.3,0.2,0.4c-0.3,0.9-0.6,1.7-1,2.5L32.1,21.5z"/>
<path class="st1" d="M37.9,22.1c-0.8,0-1.5-0.2-2.1-0.7s-0.9-1.3-0.9-2c0-0.9,0.2-1.8,0.7-2.5s1.3-1.1,2.1-1.1
	c0.5,0,1.1,0.1,1.6,0.3c0.5,0.2,0.8,0.7,0.8,1.2c0,0.4-0.3,0.8-0.7,1.1c-0.4,0.2-0.8,0.5-1.2,0.6L36,20c0.2,0.3,0.5,0.6,0.8,0.7
	c0.4,0.2,0.7,0.3,1.1,0.2c0.3,0,0.6-0.1,1-0.1c0.3-0.1,0.7-0.2,0.9-0.5c0.1-0.2,0.3-0.3,0.4-0.3c0.1,0,0.3,0.1,0.4,0.2
	c0.1,0.1,0.2,0.2,0.2,0.4c0,0.4-0.4,0.8-1,1.1C39.2,21.9,38.6,22.1,37.9,22.1z M37.8,16.7c-0.5,0-0.9,0.2-1.2,0.5
	c-0.4,0.5-0.6,1.1-0.7,1.7l1.8-0.9c0.5-0.2,1-0.5,1.5-0.9C38.8,16.9,38.3,16.7,37.8,16.7L37.8,16.7z"/>
<g>
	<path class="st0" d="M36.4,7.8c0,0-0.5,0.8-1.7,1.1c0,0-1.7,0.6-2.4,2.1c0,0-0.8,1.2-0.5,2.2c0,0,2.6-0.2,3.6-1.2
		c0,0,1.7-1.3,1.4-3.4l-0.2-1.1L36.4,7.8z"/>
	<path class="st0" d="M26.3,10.1c0,0-0.6,2.7,1.3,3.7c0,0,2,0.8,3.6,0.8c0,0,0.7,0.3,0.4-0.5c-0.1-0.5-0.9-2.5-3.2-2.9
		C28.3,11.2,26.2,10.2,26.3,10.1z"/>
	<path class="st1" d="M36.7,7.6L36.7,7.6L36.7,7.6C36.7,7.5,36.7,7.5,36.7,7.6c-0.1-0.1-0.1-0.1-0.2-0.1l0,0l0,0l0,0l0,0h-0.1l0,0
		c0,0,0,0-0.1,0.1l0,0c0,0-0.3,0.6-1.8,1.3c-3.1,1.4-3.1,4.3-3.1,4.3l0,0v0.2c-0.3-0.8-1.1-1.7-2.8-2.2c-1.7-0.4-2-1.3-2-1.3l0,0
		c0,0,0-0.1-0.1-0.1l0,0h-0.1l0,0l0,0l0,0h-0.1l0,0c0,0-0.1,0-0.1,0.1l0,0c0,0-1.2,2.8,1.4,4.2c1.2,0.7,3.2,0.8,3.7,0.8v1.7
		c0,0.1,0.1,0.2,0.2,0.2s0.2-0.1,0.2-0.2l0,0v-1.9c0,0,0-0.1,0-0.2v-1.3c2,0,3.5-0.6,4.3-1.7C37.4,9.9,36.7,7.7,36.7,7.6z
		 M28.7,11.5c2.3,0.5,2.7,2,2.9,2.8c-0.4-0.5-1.2-1.2-2.8-1.7c-1.5-0.5-1.9-1.5-2-2.1C27.1,10.8,27.6,11.3,28.7,11.5z M26.5,10.7
		c0.2,0.7,0.6,1.7,2.1,2.1c1.7,0.5,2.5,1.4,2.8,1.7c-0.7,0-2.4-0.2-3.5-0.8C26.4,13,26.4,11.6,26.5,10.7z M34.8,9.1
		c0.8-0.4,1.4-0.8,1.6-1.1c-0.2,0.7-0.6,2-2.2,2.7c-1.2,0.6-1.9,1.3-2.3,1.8C32.1,11.7,32.7,10.1,34.8,9.1z M35.9,11.4
		c-0.8,1-2.1,1.6-4,1.6c0.2-0.4,0.9-1.3,2.3-2c1.5-0.7,2.1-1.9,2.3-2.6C36.7,9.1,36.7,10.4,35.9,11.4z"/>
</g>
</svg>
