<?xml version="1.0" encoding="utf-8"?>
<!-- Generator: Adobe Illustrator 24.1.2, SVG Export Plug-In . SVG Version: 6.00 Build 0)  -->
<svg version="1.1" id="Layer_1" xmlns="http://www.w3.org/2000/svg" xmlns:xlink="http://www.w3.org/1999/xlink" x="0px" y="0px"
	 viewBox="0 0 81 45" style="enable-background:new 0 0 81 45;" xml:space="preserve">
<style type="text/css">
	.st0{fill:#71B347;}
</style>
<path class="st0" d="M42,9.8c0.1,0,0.2,0,0.3,0h28.8c6.7,0,9.5,5.5,9.5,12.2c0,6.8-2.7,12.2-9.5,12.2H42.3c-0.1,0-0.2,0-0.3,0v-3.9
	l3.1-3.1c1.4-1.4,2.1-3.2,2.1-5.2c0-2-0.8-3.8-2.1-5.2L42,13.7L42,9.8z M24.9,42.9l4.1-4.1h5.7c1.1,0,2.1-0.4,2.9-1.2
	c0.8-0.8,1.2-1.8,1.2-2.9V29l4.1-4.1c1.6-1.6,1.6-4.2,0-5.8l-4.1-4.1V9.3c0-2.3-1.8-4.1-4.1-4.1h-5.7l-4.1-4.1
	c-1.6-1.6-4.2-1.6-5.8,0l-4.1,4.1H9.3c-1.1,0-2.1,0.4-2.9,1.2C5.7,7.2,5.2,8.3,5.2,9.3v5.8l-4.1,4.1C0.4,20,0,21,0,22
	c0,1,0.4,2.1,1.2,2.9L5.2,29v5.8c0,2.3,1.8,4.1,4.1,4.1h5.7l4.1,4.1C20.7,44.5,23.3,44.5,24.9,42.9z"/>
</svg>
