<svg width="36" height="36" viewBox="0 0 36 36" fill="none" xmlns="http://www.w3.org/2000/svg">
<g clip-path="url(#clip0_1588_795)">
<path d="M0.703125 28.827V22.7126C0.703125 20.7073 2.09866 18.9723 4.05725 18.5427L8.54379 17.5583C9.64627 17.3167 10.4321 16.34 10.4321 15.2111V15.1823H16.2537V15.2097C16.2537 16.3391 17.0401 17.3161 18.1434 17.5573L22.6574 18.5444C24.6173 18.9728 26.0145 20.7084 26.0145 22.7148V28.827H0.703125Z" fill="#9BC6FF"/>
<path d="M18.1433 17.5575C17.04 17.3161 16.2537 16.3391 16.2537 15.2097V15.1823H10.432V15.2111C10.432 16.34 9.64624 17.3167 8.54376 17.5586L8.54074 17.5592L8.52893 17.5737L13.3429 28.827L18.1562 17.5737L18.1433 17.5575Z" fill="white"/>
<path d="M8.49548 7.43307V10.874C8.49548 13.6697 10.762 15.9362 13.5577 15.9362C16.3535 15.9362 18.6199 13.6697 18.6199 10.874V7.43307" fill="#FFDDCF"/>
<path d="M12.6983 0.703125H19.537V4.0968C19.537 5.85709 18.1102 7.28421 16.3499 7.28421H8.49548V4.90622C8.49548 2.58481 10.3772 0.703125 12.6983 0.703125Z" fill="#FFC15A"/>
<path d="M35.2955 27.3505C35.2955 31.7384 31.7384 35.2955 27.3504 35.2955C22.9625 35.2955 19.4054 31.7384 19.4054 27.3505C19.4054 22.9625 22.9625 19.4054 27.3504 19.4054C31.7384 19.4054 35.2955 22.9625 35.2955 27.3505Z" fill="#CBE558"/>
<path d="M29.6587 23.9593L26.4556 27.1623L25.0422 25.7489L23.0537 27.7377L26.4556 31.1396L26.4608 31.1344L28.4444 29.1511L31.6475 25.9481L29.6587 23.9593Z" fill="white"/>
<path d="M35.8698 25.8588C35.5633 24.1004 34.7319 22.5016 33.4657 21.2355C31.1938 18.9632 27.9616 18.2225 25.0631 19.0124C25.0582 19.0074 25.0535 19.0025 25.0483 18.9978C24.4135 18.4334 23.6387 18.039 22.8079 17.8575L18.2936 16.8703C17.618 16.7228 17.1041 16.1721 16.9838 15.5075C18.4018 14.4561 19.323 12.7708 19.323 10.874V6.60196C19.8946 5.92465 20.2401 5.05042 20.2401 4.0968V0.703125C20.2401 0.314758 19.9254 0 19.537 0H12.6983C9.99316 0 7.79205 2.20084 7.79205 4.90622V7.28394C7.79205 7.29465 7.79315 7.30508 7.7937 7.3158C7.79315 7.32623 7.79205 7.33667 7.79205 7.34738V10.874C7.79205 12.5846 8.54187 14.1229 9.72894 15.1795V15.1823V15.2108C9.72894 16.0035 9.16699 16.7017 8.39301 16.8714L3.90674 17.8558C2.80344 18.0978 1.80588 18.7158 1.09781 19.5958C0.38974 20.476 0 21.5829 0 22.7126V28.827C0 29.2154 0.314758 29.5302 0.703125 29.5302H18.9841C19.3576 30.9729 20.1075 32.3377 21.2355 33.4657C22.4986 34.7289 24.0933 35.5594 25.847 35.8676C26.3502 35.9561 26.8558 36 27.3593 36C28.5697 36 29.7669 35.7459 30.8842 35.2461C31.2388 35.0876 31.3976 34.6718 31.2391 34.3172C31.0806 33.9626 30.6645 33.8038 30.3102 33.9626C27.5872 35.1804 24.3399 34.5814 22.2297 32.4715C19.4062 29.6477 19.4062 25.0532 22.2297 22.2297C25.0535 19.406 29.6477 19.406 32.4715 22.2297C34.588 24.3463 35.1837 27.601 33.9541 30.3286C33.7945 30.6826 33.9521 31.099 34.3062 31.2586C34.6602 31.4182 35.0766 31.2605 35.2362 30.9065C35.95 29.3225 36.1692 27.5771 35.8698 25.8588ZM9.1983 4.90622C9.1983 2.9762 10.7685 1.40625 12.6983 1.40625H18.8339V4.0968C18.8339 5.46652 17.7196 6.58109 16.3499 6.58109H9.1983V4.90622ZM9.1983 10.874V7.98734H16.3499C16.9071 7.98734 17.437 7.86841 17.9168 7.65637V10.874C17.9168 13.2778 15.9612 15.2334 13.5577 15.2334C11.1539 15.2334 9.1983 13.2778 9.1983 10.874ZM11.0176 16.0483C11.7845 16.4262 12.6464 16.6393 13.5577 16.6393C14.3226 16.6393 15.0529 16.4883 15.7214 16.2166C15.981 16.9643 16.5207 17.5949 17.2249 17.964L13.3429 27.0393L9.46115 17.9651C10.2178 17.568 10.7845 16.8692 11.0176 16.0483ZM1.40625 22.7126C1.40625 21.0504 2.58453 19.5853 4.20804 19.2294L8.10681 18.3741L12.2772 28.1239H1.40625V22.7126ZM21.2355 21.2355C19.353 23.118 18.5221 25.6594 18.7413 28.1239H14.4083L18.5795 18.3727L22.5074 19.2316C22.8543 19.3074 23.1869 19.4362 23.4945 19.6092C22.6788 20.0146 21.9142 20.5565 21.2355 21.2355Z" fill="black"/>
<path d="M32.1446 25.4507L30.1558 23.4621C29.8814 23.1875 29.4362 23.1875 29.1616 23.4621L26.4556 26.1681L25.5396 25.2518C25.4078 25.12 25.2287 25.0458 25.0422 25.0458C24.856 25.0458 24.6769 25.12 24.5451 25.2518L22.5566 27.2403C22.2819 27.515 22.2819 27.9602 22.5566 28.2349L25.9585 31.6368C26.0958 31.7741 26.2757 31.8428 26.4556 31.8428C26.635 31.8428 26.8141 31.7747 26.9511 31.6384L32.1446 26.4452C32.2765 26.3134 32.3506 26.1346 32.3506 25.9481C32.3506 25.7616 32.2765 25.5828 32.1446 25.4507ZM26.4556 30.1454L24.048 27.7377L25.0422 26.7432L25.9585 27.6595C26.0903 27.7913 26.2691 27.8654 26.4556 27.8654C26.6421 27.8654 26.8209 27.7913 26.9528 27.6595L29.6587 24.9535L30.653 25.9481L26.4556 30.1454Z" fill="black"/>
<path d="M32.9683 32.2652C32.7834 32.2652 32.6019 32.3405 32.4711 32.4712C32.3404 32.6019 32.2651 32.7835 32.2651 32.9683C32.2651 33.154 32.3404 33.3347 32.4711 33.4655C32.6019 33.5962 32.7834 33.6714 32.9683 33.6714C33.1539 33.6714 33.3347 33.5962 33.4654 33.4655C33.597 33.3347 33.6714 33.154 33.6714 32.9683C33.6714 32.7835 33.597 32.6019 33.4654 32.4712C33.3347 32.3405 33.1539 32.2652 32.9683 32.2652Z" fill="black"/>
</g>
<defs>
<clipPath id="clip0_1588_795">
<rect width="36" height="36" fill="white"/>
</clipPath>
</defs>
</svg>
