<svg width="43" height="59" viewBox="0 0 43 59" fill="none" xmlns="http://www.w3.org/2000/svg">
                            <path d="M9.24548 25.6707L11.6204 27.0418L7.50696 34.1664L5.13209 32.7953L9.24548 25.6707Z" fill="#FFBFAB"/>
                            <path d="M10.4329 26.3564L11.6204 27.042L7.50696 34.1666L6.31953 33.4811L10.4329 26.3564Z" fill="#F89580"/>
                            <path d="M24.1803 32.7103L20.618 30.6536L21.9891 28.2787L25.5514 30.3354C28.1704 31.8475 31.5313 30.947 33.0434 28.3279C34.5555 25.7089 33.655 22.348 31.0359 20.8359L22.7239 16.037L24.095 13.6621L32.4071 18.4611C36.3356 20.7292 37.6864 25.7706 35.4183 29.6991C33.1502 33.6276 28.1088 34.9784 24.1803 32.7103Z" fill="#DFE7F4"/>
                            <path d="M22.0876 6.17002C18.8142 4.28014 14.6124 5.406 12.7226 8.67936C10.8327 11.9527 11.9585 16.1545 15.2319 18.0444C18.5053 19.9343 22.707 18.8084 24.5969 15.535C26.4868 12.2617 25.3609 8.0599 22.0876 6.17002Z" fill="#FED843"/>
                            <path d="M24.5969 15.5352C22.707 18.8085 18.5052 19.9344 15.2319 18.0445L22.0875 6.17017C25.3609 8.06004 26.4867 12.2618 24.5969 15.5352Z" fill="#FABE2C"/>
                            <path d="M21.0131 21.3824C20.7812 21.391 17.4365 22.4839 13.8608 20.4195C10.2834 18.3541 9.55951 14.9132 9.45067 14.7068L4.54498 11.8745L-2.31068 23.7489L2.59501 26.5812C2.82691 26.5726 6.17161 25.4796 9.74737 27.5441C13.3247 29.6095 14.0486 33.0504 14.1575 33.2568L19.0632 36.0891L25.9188 24.2147L21.0131 21.3824Z" fill="#FFE1BA"/>
                            <path d="M25.9189 24.2143L19.0632 36.0886L14.1575 33.2563C14.0487 33.05 13.3248 29.6091 9.7474 27.5437L13.8608 20.4191C17.4366 22.4835 20.7813 21.3906 21.0132 21.382L25.9189 24.2143Z" fill="#FFBFAB"/>
                            <path d="M3.44281 30.2371L-2.81869 41.0823C-3.95262 43.0463 -3.2771 45.5674 -1.31309 46.7013C0.650931 47.8352 3.17199 47.1597 4.30592 45.1957L10.5674 34.3505L3.44281 30.2371Z" fill="#FFE1BA"/>
                            <path d="M10.5674 34.3504L4.30593 45.1956C3.172 47.1597 0.650942 47.8352 -1.31308 46.7013L7.00513 32.2937L10.5674 34.3504Z" fill="#FFBFAB"/>
                            </svg>